M48
; DRILL file {KiCad 7.0.1} date Mon Jun 12 22:14:17 2023
; FORMAT={-:-/ absolute / metric / decimal}
; #@! TF.CreationDate,2023-06-12T22:14:17+07:00
; #@! TF.GenerationSoftware,Kicad,Pcbnew,7.0.1
; #@! TF.FileFunction,MixedPlating,1,2
FMAT,2
METRIC
; #@! TA.AperFunction,Plated,PTH,ViaDrill
T1C0.400
; #@! TA.AperFunction,Plated,PTH,ComponentDrill
T2C0.700
; #@! TA.AperFunction,Plated,PTH,ComponentDrill
T3C0.800
; #@! TA.AperFunction,Plated,PTH,ComponentDrill
T4C0.900
; #@! TA.AperFunction,Plated,PTH,ComponentDrill
T5C1.000
; #@! TA.AperFunction,NonPlated,NPTH,ComponentDrill
T6C4.600
%
G90
G05
T1
X100.584Y-103.358
X100.584Y-108.458
X100.884Y-99.558
X102.4Y-105.9
X102.5Y-100.9
X103.4Y-98.3
X104.2Y-82.4
X105.3Y-90.5
X105.5Y-98.6
X106.807Y-108.839
X107.5Y-82.8
X107.5Y-85.1
X107.5Y-93.1
X108.225Y-91.8
X109.093Y-100.203
X109.474Y-97.663
X109.601Y-92.964
X118.618Y-109.982
X118.8Y-77.3
X121.031Y-88.9
X121.285Y-83.693
X122.174Y-86.868
X122.4Y-75.1
X122.555Y-99.949
X122.682Y-97.155
X123.952Y-96.393
X125.924Y-74.676
X127.635Y-75.946
X128.495Y-78.965
X128.524Y-97.79
X131.572Y-103.124
X131.826Y-109.22
X131.953Y-76.2
X133.7Y-85.9
X134.3Y-77.3
X134.62Y-81.788
X135.255Y-80.01
X135.763Y-90.805
X135.9Y-106.1
X136.398Y-77.851
X138.557Y-75.692
X140.589Y-81.915
X141.097Y-103.632
X142.24Y-81.026
X142.748Y-79.375
X143.002Y-76.581
X144.526Y-86.487
X145.288Y-79.121
X145.669Y-102.489
X146.812Y-96.139
X146.812Y-107.061
X147.701Y-106.299
X148.209Y-77.216
X148.209Y-82.55
X148.3Y-80.3
X148.463Y-83.566
X148.9Y-90.6
X149.86Y-101.981
X149.86Y-108.204
X150.2Y-88.1
X150.368Y-84.074
X150.368Y-109.982
X151.003Y-78.867
X152.4Y-101.346
X152.527Y-76.8
X152.6Y-105.337
X153.948Y-81.165
X154.5Y-77.4
X154.813Y-105.664
X154.94Y-101.346
X157.861Y-89.535
X157.988Y-98.298
X158.2Y-77.9
X158.7Y-87.884
X158.8Y-92.1
X158.9Y-94.1
X160.3Y-90.7
X160.4Y-87.3
X161.798Y-97.949
X162.8Y-107.6
X163.195Y-98.044
X163.9Y-87.1
X164.846Y-80.645
X166.1Y-78.6
X166.5Y-86.9
X166.878Y-84.709
X167.8Y-98.5
X169.4Y-86.9
X171.704Y-98.425
X172.1Y-87.0
X172.212Y-109.474
X173.101Y-98.4
X174.371Y-98.425
X174.9Y-87.0
X175.006Y-102.616
X175.3Y-79.5
X177.0Y-96.8
X177.0Y-103.4
X177.292Y-86.36
X177.292Y-92.71
X177.9Y-97.9
X178.1Y-79.9
X178.3Y-75.6
X178.3Y-78.4
X178.7Y-106.3
T2
X140.204Y-91.004
X140.204Y-94.596
X143.796Y-94.596
T3
X127.73Y-89.301
X127.73Y-91.841
T4
X101.254Y-91.191
X101.254Y-93.731
T5
X119.475Y-93.096
X119.475Y-95.636
X119.475Y-98.176
X119.475Y-100.716
X119.475Y-103.256
X123.793Y-88.773
X123.793Y-91.313
X123.793Y-93.853
X131.286Y-88.186
X131.286Y-90.726
X131.286Y-93.266
X131.286Y-95.806
X137.96Y-109.1
X140.5Y-109.1
X143.04Y-109.1
X145.58Y-109.1
X152.654Y-85.725
X152.654Y-88.265
X152.654Y-90.805
X152.654Y-93.345
X152.654Y-95.885
X152.654Y-98.425
T6
X106.2Y-104.3
T5
G00X114.1Y-104.95
M15
G01X114.1Y-108.45
M16
G05
G00X114.15Y-79.65
M15
G01X114.15Y-76.15
M16
G05
G00X169.15Y-104.95
M15
G01X169.15Y-108.45
M16
G05
G00X169.2Y-79.65
M15
G01X169.2Y-76.15
M16
G05
T0
M30
