%TF.GenerationSoftware,KiCad,Pcbnew,7.0.1*%
%TF.CreationDate,2023-06-12T22:14:20+07:00*%
%TF.ProjectId,Air Conditioner Energy Saver V7,41697220-436f-46e6-9469-74696f6e6572,rev?*%
%TF.SameCoordinates,Original*%
%TF.FileFunction,Soldermask,Top*%
%TF.FilePolarity,Negative*%
%FSLAX46Y46*%
G04 Gerber Fmt 4.6, Leading zero omitted, Abs format (unit mm)*
G04 Created by KiCad (PCBNEW 7.0.1) date 2023-06-12 22:14:20*
%MOMM*%
%LPD*%
G01*
G04 APERTURE LIST*
G04 Aperture macros list*
%AMRoundRect*
0 Rectangle with rounded corners*
0 $1 Rounding radius*
0 $2 $3 $4 $5 $6 $7 $8 $9 X,Y pos of 4 corners*
0 Add a 4 corners polygon primitive as box body*
4,1,4,$2,$3,$4,$5,$6,$7,$8,$9,$2,$3,0*
0 Add four circle primitives for the rounded corners*
1,1,$1+$1,$2,$3*
1,1,$1+$1,$4,$5*
1,1,$1+$1,$6,$7*
1,1,$1+$1,$8,$9*
0 Add four rect primitives between the rounded corners*
20,1,$1+$1,$2,$3,$4,$5,0*
20,1,$1+$1,$4,$5,$6,$7,0*
20,1,$1+$1,$6,$7,$8,$9,0*
20,1,$1+$1,$8,$9,$2,$3,0*%
%AMHorizOval*
0 Thick line with rounded ends*
0 $1 width*
0 $2 $3 position (X,Y) of the first rounded end (center of the circle)*
0 $4 $5 position (X,Y) of the second rounded end (center of the circle)*
0 Add line between two ends*
20,1,$1,$2,$3,$4,$5,0*
0 Add two circle primitives to create the rounded ends*
1,1,$1,$2,$3*
1,1,$1,$4,$5*%
%AMFreePoly0*
4,1,9,3.862500,-0.866500,0.737500,-0.866500,0.737500,-0.450000,-0.737500,-0.450000,-0.737500,0.450000,0.737500,0.450000,0.737500,0.866500,3.862500,0.866500,3.862500,-0.866500,3.862500,-0.866500,$1*%
G04 Aperture macros list end*
%ADD10RoundRect,0.250000X1.950000X1.000000X-1.950000X1.000000X-1.950000X-1.000000X1.950000X-1.000000X0*%
%ADD11RoundRect,0.197500X-0.661905X-0.030738X-0.526807X-0.401917X0.661905X0.030738X0.526807X0.401917X0*%
%ADD12RoundRect,0.135000X0.185000X-0.135000X0.185000X0.135000X-0.185000X0.135000X-0.185000X-0.135000X0*%
%ADD13R,2.000000X1.600000*%
%ADD14RoundRect,0.135000X-0.135000X-0.185000X0.135000X-0.185000X0.135000X0.185000X-0.135000X0.185000X0*%
%ADD15RoundRect,0.150000X0.150000X-0.587500X0.150000X0.587500X-0.150000X0.587500X-0.150000X-0.587500X0*%
%ADD16RoundRect,0.250000X-0.650000X0.325000X-0.650000X-0.325000X0.650000X-0.325000X0.650000X0.325000X0*%
%ADD17RoundRect,0.225000X-0.225000X-0.250000X0.225000X-0.250000X0.225000X0.250000X-0.225000X0.250000X0*%
%ADD18R,1.700000X1.700000*%
%ADD19O,1.700000X1.700000*%
%ADD20RoundRect,0.135000X0.135000X0.185000X-0.135000X0.185000X-0.135000X-0.185000X0.135000X-0.185000X0*%
%ADD21RoundRect,0.135000X-0.185000X0.135000X-0.185000X-0.135000X0.185000X-0.135000X0.185000X0.135000X0*%
%ADD22R,0.700000X1.800000*%
%ADD23R,1.800000X0.700000*%
%ADD24RoundRect,0.218750X0.218750X0.256250X-0.218750X0.256250X-0.218750X-0.256250X0.218750X-0.256250X0*%
%ADD25RoundRect,0.200000X-0.275000X0.200000X-0.275000X-0.200000X0.275000X-0.200000X0.275000X0.200000X0*%
%ADD26RoundRect,0.200000X0.275000X-0.200000X0.275000X0.200000X-0.275000X0.200000X-0.275000X-0.200000X0*%
%ADD27RoundRect,0.140000X0.170000X-0.140000X0.170000X0.140000X-0.170000X0.140000X-0.170000X-0.140000X0*%
%ADD28R,0.900000X1.300000*%
%ADD29FreePoly0,270.000000*%
%ADD30RoundRect,0.175000X0.225000X0.175000X-0.225000X0.175000X-0.225000X-0.175000X0.225000X-0.175000X0*%
%ADD31RoundRect,0.225000X0.250000X-0.225000X0.250000X0.225000X-0.250000X0.225000X-0.250000X-0.225000X0*%
%ADD32RoundRect,0.200000X-0.200000X-0.275000X0.200000X-0.275000X0.200000X0.275000X-0.200000X0.275000X0*%
%ADD33RoundRect,0.140000X-0.170000X0.140000X-0.170000X-0.140000X0.170000X-0.140000X0.170000X0.140000X0*%
%ADD34HorizOval,1.200000X0.141421X-0.141421X-0.141421X0.141421X0*%
%ADD35HorizOval,1.200000X0.000000X0.000000X0.000000X0.000000X0*%
%ADD36RoundRect,0.150000X-0.150000X0.825000X-0.150000X-0.825000X0.150000X-0.825000X0.150000X0.825000X0*%
%ADD37RoundRect,0.250000X0.475000X-0.250000X0.475000X0.250000X-0.475000X0.250000X-0.475000X-0.250000X0*%
%ADD38RoundRect,0.500000X-0.500000X2.250000X-0.500000X-2.250000X0.500000X-2.250000X0.500000X2.250000X0*%
%ADD39RoundRect,0.140000X-0.140000X-0.170000X0.140000X-0.170000X0.140000X0.170000X-0.140000X0.170000X0*%
%ADD40RoundRect,0.150000X0.587500X0.150000X-0.587500X0.150000X-0.587500X-0.150000X0.587500X-0.150000X0*%
%ADD41RoundRect,0.147500X0.147500X0.172500X-0.147500X0.172500X-0.147500X-0.172500X0.147500X-0.172500X0*%
%ADD42RoundRect,0.250000X0.325000X0.650000X-0.325000X0.650000X-0.325000X-0.650000X0.325000X-0.650000X0*%
%ADD43RoundRect,0.250000X-0.325000X-0.650000X0.325000X-0.650000X0.325000X0.650000X-0.325000X0.650000X0*%
%ADD44C,4.600000*%
%ADD45RoundRect,0.500000X0.500000X-2.250000X0.500000X2.250000X-0.500000X2.250000X-0.500000X-2.250000X0*%
%ADD46C,1.400000*%
%ADD47R,1.800000X1.800000*%
%ADD48C,1.800000*%
G04 APERTURE END LIST*
D10*
%TO.C,C5*%
X114500000Y-87700000D03*
X107100000Y-87700000D03*
%TD*%
D11*
%TO.C,U1*%
X117141526Y-82729449D03*
X118010257Y-85116268D03*
X123460474Y-83132551D03*
X122591743Y-80745732D03*
%TD*%
D12*
%TO.C,R5*%
X178700000Y-108490000D03*
X178700000Y-107470000D03*
%TD*%
D13*
%TO.C,SW11*%
X150782000Y-76280000D03*
X145382000Y-76280000D03*
%TD*%
D14*
%TO.C,R6*%
X123188000Y-103251000D03*
X124208000Y-103251000D03*
%TD*%
D15*
%TO.C,Q2*%
X132050000Y-79137500D03*
X133950000Y-79137500D03*
X133000000Y-77262500D03*
%TD*%
D16*
%TO.C,C3*%
X136652000Y-101776000D03*
X136652000Y-104726000D03*
%TD*%
D13*
%TO.C,RST1*%
X160500000Y-108100000D03*
X155100000Y-108100000D03*
%TD*%
D17*
%TO.C,C16*%
X163025000Y-77100000D03*
X164575000Y-77100000D03*
%TD*%
D18*
%TO.C,J2*%
X152654000Y-98425000D03*
D19*
X152654000Y-95885000D03*
X152654000Y-93345000D03*
X152654000Y-90805000D03*
X152654000Y-88265000D03*
X152654000Y-85725000D03*
%TD*%
D12*
%TO.C,R11*%
X152600000Y-108210000D03*
X152600000Y-107190000D03*
%TD*%
D20*
%TO.C,R16*%
X133510000Y-81300000D03*
X132490000Y-81300000D03*
%TD*%
D21*
%TO.C,R1*%
X108700000Y-94690000D03*
X108700000Y-95710000D03*
%TD*%
D22*
%TO.C,U4*%
X178220000Y-82750000D03*
X176950000Y-82750000D03*
X174410000Y-82750000D03*
X173140000Y-82750000D03*
X171870000Y-82750000D03*
X170600000Y-82750000D03*
X169330000Y-82750000D03*
X168060000Y-82750000D03*
X166790000Y-82750000D03*
X165520000Y-82750000D03*
X164250000Y-82750000D03*
X162980000Y-82750000D03*
X161710000Y-82750000D03*
X160440000Y-82750000D03*
X159170000Y-82750000D03*
X157900000Y-82750000D03*
D23*
X156150000Y-84515000D03*
X156150000Y-85785000D03*
X156150000Y-87055000D03*
X156150000Y-88325000D03*
X156150000Y-89595000D03*
X156150000Y-90865000D03*
X156150000Y-92135000D03*
X156150000Y-93405000D03*
X156150000Y-94675000D03*
X156150000Y-95945000D03*
X156150000Y-97215000D03*
X156150000Y-98485000D03*
D22*
X157900000Y-100250000D03*
X159170000Y-100250000D03*
X160440000Y-100250000D03*
X161710000Y-100250000D03*
X162980000Y-100250000D03*
X164250000Y-100250000D03*
X165520000Y-100250000D03*
X166790000Y-100250000D03*
X168060000Y-100250000D03*
X169330000Y-100250000D03*
X170600000Y-100250000D03*
X171870000Y-100250000D03*
X173140000Y-100250000D03*
X174410000Y-100250000D03*
X176950000Y-100250000D03*
X178220000Y-100250000D03*
%TD*%
D24*
%TO.C,L3*%
X161287500Y-77100000D03*
X159712500Y-77100000D03*
%TD*%
D21*
%TO.C,R12*%
X124206000Y-105027000D03*
X124206000Y-106047000D03*
%TD*%
D25*
%TO.C,R2*%
X118872000Y-88837000D03*
X118872000Y-90487000D03*
%TD*%
D26*
%TO.C,R15*%
X101219000Y-88225000D03*
X101219000Y-86575000D03*
%TD*%
D27*
%TO.C,C18*%
X154500000Y-79580000D03*
X154500000Y-78620000D03*
%TD*%
D21*
%TO.C,R23*%
X137900000Y-80390000D03*
X137900000Y-81410000D03*
%TD*%
D14*
%TO.C,R8*%
X132586000Y-98552000D03*
X133606000Y-98552000D03*
%TD*%
D20*
%TO.C,R10*%
X133733000Y-102870000D03*
X132713000Y-102870000D03*
%TD*%
D21*
%TO.C,R19*%
X137600000Y-76990000D03*
X137600000Y-78010000D03*
%TD*%
D28*
%TO.C,U5*%
X130786000Y-82462500D03*
D29*
X129286000Y-82550000D03*
D28*
X127786000Y-82462500D03*
%TD*%
D27*
%TO.C,C19*%
X132715000Y-85062000D03*
X132715000Y-84102000D03*
%TD*%
D30*
%TO.C,D3*%
X177050000Y-108430000D03*
X175350000Y-108430000D03*
X175350000Y-107330000D03*
X177050000Y-107330000D03*
%TD*%
D31*
%TO.C,C2*%
X141400000Y-79375000D03*
X141400000Y-77825000D03*
%TD*%
D13*
%TO.C,SW22*%
X150782000Y-81280000D03*
X145382000Y-81280000D03*
%TD*%
D20*
%TO.C,R7*%
X126367000Y-99060000D03*
X125347000Y-99060000D03*
%TD*%
D32*
%TO.C,R9*%
X132144000Y-101219000D03*
X133794000Y-101219000D03*
%TD*%
D33*
%TO.C,C23*%
X125500000Y-85278000D03*
X125500000Y-86238000D03*
%TD*%
D34*
%TO.C,U2*%
X140203949Y-91003949D03*
D35*
X140203949Y-94596051D03*
X143796051Y-94596051D03*
%TD*%
D36*
%TO.C,U3*%
X130302000Y-101919000D03*
X129032000Y-101919000D03*
X127762000Y-101919000D03*
X126492000Y-101919000D03*
X126492000Y-106869000D03*
X127762000Y-106869000D03*
X129032000Y-106869000D03*
X130302000Y-106869000D03*
%TD*%
D37*
%TO.C,C15*%
X156400000Y-79550000D03*
X156400000Y-77650000D03*
%TD*%
D16*
%TO.C,C9*%
X132588000Y-104443000D03*
X132588000Y-107393000D03*
%TD*%
D38*
%TO.C,BT2*%
X114100000Y-106700000D03*
X169150000Y-106700000D03*
%TD*%
D39*
%TO.C,C4*%
X132870000Y-99822000D03*
X133830000Y-99822000D03*
%TD*%
D40*
%TO.C,Q1*%
X105837500Y-96050000D03*
X105837500Y-94150000D03*
X103962500Y-95100000D03*
%TD*%
D12*
%TO.C,R4*%
X177125000Y-105590000D03*
X177125000Y-104570000D03*
%TD*%
D41*
%TO.C,L2*%
X162685000Y-78900000D03*
X161715000Y-78900000D03*
%TD*%
D42*
%TO.C,C21*%
X175075000Y-76900000D03*
X172125000Y-76900000D03*
%TD*%
D17*
%TO.C,C14*%
X127241000Y-109093000D03*
X128791000Y-109093000D03*
%TD*%
D43*
%TO.C,C12*%
X121080000Y-108077000D03*
X124030000Y-108077000D03*
%TD*%
D12*
%TO.C,R3*%
X173900000Y-108390000D03*
X173900000Y-107370000D03*
%TD*%
D27*
%TO.C,C1*%
X138800000Y-87480000D03*
X138800000Y-86520000D03*
%TD*%
D12*
%TO.C,R13*%
X123063000Y-106047000D03*
X123063000Y-105027000D03*
%TD*%
D21*
%TO.C,R22*%
X139400000Y-76990000D03*
X139400000Y-78010000D03*
%TD*%
D14*
%TO.C,R14*%
X127506000Y-110493000D03*
X128526000Y-110493000D03*
%TD*%
D44*
%TO.C,H1*%
X106200000Y-104300000D03*
%TD*%
D45*
%TO.C,BT1*%
X169200000Y-77900000D03*
X114150000Y-77900000D03*
%TD*%
D21*
%TO.C,R24*%
X139400000Y-80390000D03*
X139400000Y-81410000D03*
%TD*%
D18*
%TO.C,JP1*%
X123793000Y-88773000D03*
D19*
X123793000Y-91313000D03*
X123793000Y-93853000D03*
%TD*%
D18*
%TO.C,J4*%
X131286000Y-88186000D03*
D19*
X131286000Y-90726000D03*
X131286000Y-93266000D03*
X131286000Y-95806000D03*
%TD*%
D18*
%TO.C,J1*%
X119475000Y-93096000D03*
D19*
X119475000Y-95636000D03*
X119475000Y-98176000D03*
X119475000Y-100716000D03*
X119475000Y-103256000D03*
%TD*%
D18*
%TO.C,J5*%
X145580000Y-109100000D03*
D19*
X143040000Y-109100000D03*
X140500000Y-109100000D03*
X137960000Y-109100000D03*
%TD*%
D46*
%TO.C,JP2*%
X127730000Y-89301000D03*
X127730000Y-91841000D03*
%TD*%
D47*
%TO.C,D1*%
X101254000Y-93731000D03*
D48*
X101254000Y-91191000D03*
%TD*%
M02*
