%TF.GenerationSoftware,KiCad,Pcbnew,7.0.1*%
%TF.CreationDate,2023-06-12T22:14:20+07:00*%
%TF.ProjectId,Air Conditioner Energy Saver V7,41697220-436f-46e6-9469-74696f6e6572,rev?*%
%TF.SameCoordinates,Original*%
%TF.FileFunction,Legend,Top*%
%TF.FilePolarity,Positive*%
%FSLAX46Y46*%
G04 Gerber Fmt 4.6, Leading zero omitted, Abs format (unit mm)*
G04 Created by KiCad (PCBNEW 7.0.1) date 2023-06-12 22:14:20*
%MOMM*%
%LPD*%
G01*
G04 APERTURE LIST*
%ADD10C,0.150000*%
%ADD11C,0.200000*%
%ADD12C,0.120000*%
%ADD13C,0.400000*%
%ADD14C,0.300000*%
G04 APERTURE END LIST*
D10*
X149221905Y-91314619D02*
X149221905Y-90314619D01*
X149221905Y-90314619D02*
X149602857Y-90314619D01*
X149602857Y-90314619D02*
X149698095Y-90362238D01*
X149698095Y-90362238D02*
X149745714Y-90409857D01*
X149745714Y-90409857D02*
X149793333Y-90505095D01*
X149793333Y-90505095D02*
X149793333Y-90647952D01*
X149793333Y-90647952D02*
X149745714Y-90743190D01*
X149745714Y-90743190D02*
X149698095Y-90790809D01*
X149698095Y-90790809D02*
X149602857Y-90838428D01*
X149602857Y-90838428D02*
X149221905Y-90838428D01*
X150269524Y-91314619D02*
X150460000Y-91314619D01*
X150460000Y-91314619D02*
X150555238Y-91267000D01*
X150555238Y-91267000D02*
X150602857Y-91219380D01*
X150602857Y-91219380D02*
X150698095Y-91076523D01*
X150698095Y-91076523D02*
X150745714Y-90886047D01*
X150745714Y-90886047D02*
X150745714Y-90505095D01*
X150745714Y-90505095D02*
X150698095Y-90409857D01*
X150698095Y-90409857D02*
X150650476Y-90362238D01*
X150650476Y-90362238D02*
X150555238Y-90314619D01*
X150555238Y-90314619D02*
X150364762Y-90314619D01*
X150364762Y-90314619D02*
X150269524Y-90362238D01*
X150269524Y-90362238D02*
X150221905Y-90409857D01*
X150221905Y-90409857D02*
X150174286Y-90505095D01*
X150174286Y-90505095D02*
X150174286Y-90743190D01*
X150174286Y-90743190D02*
X150221905Y-90838428D01*
X150221905Y-90838428D02*
X150269524Y-90886047D01*
X150269524Y-90886047D02*
X150364762Y-90933666D01*
X150364762Y-90933666D02*
X150555238Y-90933666D01*
X150555238Y-90933666D02*
X150650476Y-90886047D01*
X150650476Y-90886047D02*
X150698095Y-90838428D01*
X150698095Y-90838428D02*
X150745714Y-90743190D01*
X149421905Y-86314619D02*
X149421905Y-85314619D01*
X149421905Y-85314619D02*
X149802857Y-85314619D01*
X149802857Y-85314619D02*
X149898095Y-85362238D01*
X149898095Y-85362238D02*
X149945714Y-85409857D01*
X149945714Y-85409857D02*
X149993333Y-85505095D01*
X149993333Y-85505095D02*
X149993333Y-85647952D01*
X149993333Y-85647952D02*
X149945714Y-85743190D01*
X149945714Y-85743190D02*
X149898095Y-85790809D01*
X149898095Y-85790809D02*
X149802857Y-85838428D01*
X149802857Y-85838428D02*
X149421905Y-85838428D01*
X150326667Y-85314619D02*
X150993333Y-85314619D01*
X150993333Y-85314619D02*
X150564762Y-86314619D01*
X149421905Y-88814619D02*
X149421905Y-87814619D01*
X149421905Y-87814619D02*
X149802857Y-87814619D01*
X149802857Y-87814619D02*
X149898095Y-87862238D01*
X149898095Y-87862238D02*
X149945714Y-87909857D01*
X149945714Y-87909857D02*
X149993333Y-88005095D01*
X149993333Y-88005095D02*
X149993333Y-88147952D01*
X149993333Y-88147952D02*
X149945714Y-88243190D01*
X149945714Y-88243190D02*
X149898095Y-88290809D01*
X149898095Y-88290809D02*
X149802857Y-88338428D01*
X149802857Y-88338428D02*
X149421905Y-88338428D01*
X150564762Y-88243190D02*
X150469524Y-88195571D01*
X150469524Y-88195571D02*
X150421905Y-88147952D01*
X150421905Y-88147952D02*
X150374286Y-88052714D01*
X150374286Y-88052714D02*
X150374286Y-88005095D01*
X150374286Y-88005095D02*
X150421905Y-87909857D01*
X150421905Y-87909857D02*
X150469524Y-87862238D01*
X150469524Y-87862238D02*
X150564762Y-87814619D01*
X150564762Y-87814619D02*
X150755238Y-87814619D01*
X150755238Y-87814619D02*
X150850476Y-87862238D01*
X150850476Y-87862238D02*
X150898095Y-87909857D01*
X150898095Y-87909857D02*
X150945714Y-88005095D01*
X150945714Y-88005095D02*
X150945714Y-88052714D01*
X150945714Y-88052714D02*
X150898095Y-88147952D01*
X150898095Y-88147952D02*
X150850476Y-88195571D01*
X150850476Y-88195571D02*
X150755238Y-88243190D01*
X150755238Y-88243190D02*
X150564762Y-88243190D01*
X150564762Y-88243190D02*
X150469524Y-88290809D01*
X150469524Y-88290809D02*
X150421905Y-88338428D01*
X150421905Y-88338428D02*
X150374286Y-88433666D01*
X150374286Y-88433666D02*
X150374286Y-88624142D01*
X150374286Y-88624142D02*
X150421905Y-88719380D01*
X150421905Y-88719380D02*
X150469524Y-88767000D01*
X150469524Y-88767000D02*
X150564762Y-88814619D01*
X150564762Y-88814619D02*
X150755238Y-88814619D01*
X150755238Y-88814619D02*
X150850476Y-88767000D01*
X150850476Y-88767000D02*
X150898095Y-88719380D01*
X150898095Y-88719380D02*
X150945714Y-88624142D01*
X150945714Y-88624142D02*
X150945714Y-88433666D01*
X150945714Y-88433666D02*
X150898095Y-88338428D01*
X150898095Y-88338428D02*
X150850476Y-88290809D01*
X150850476Y-88290809D02*
X150755238Y-88243190D01*
X148645714Y-96114619D02*
X148645714Y-95114619D01*
X148645714Y-95114619D02*
X149026666Y-95114619D01*
X149026666Y-95114619D02*
X149121904Y-95162238D01*
X149121904Y-95162238D02*
X149169523Y-95209857D01*
X149169523Y-95209857D02*
X149217142Y-95305095D01*
X149217142Y-95305095D02*
X149217142Y-95447952D01*
X149217142Y-95447952D02*
X149169523Y-95543190D01*
X149169523Y-95543190D02*
X149121904Y-95590809D01*
X149121904Y-95590809D02*
X149026666Y-95638428D01*
X149026666Y-95638428D02*
X148645714Y-95638428D01*
X150169523Y-96114619D02*
X149598095Y-96114619D01*
X149883809Y-96114619D02*
X149883809Y-95114619D01*
X149883809Y-95114619D02*
X149788571Y-95257476D01*
X149788571Y-95257476D02*
X149693333Y-95352714D01*
X149693333Y-95352714D02*
X149598095Y-95400333D01*
X151121904Y-96114619D02*
X150550476Y-96114619D01*
X150836190Y-96114619D02*
X150836190Y-95114619D01*
X150836190Y-95114619D02*
X150740952Y-95257476D01*
X150740952Y-95257476D02*
X150645714Y-95352714D01*
X150645714Y-95352714D02*
X150550476Y-95400333D01*
X102619048Y-91081666D02*
X103380953Y-91081666D01*
X103000000Y-91462619D02*
X103000000Y-90700714D01*
X102619048Y-93681666D02*
X103380953Y-93681666D01*
X148545714Y-93714619D02*
X148545714Y-92714619D01*
X148545714Y-92714619D02*
X148926666Y-92714619D01*
X148926666Y-92714619D02*
X149021904Y-92762238D01*
X149021904Y-92762238D02*
X149069523Y-92809857D01*
X149069523Y-92809857D02*
X149117142Y-92905095D01*
X149117142Y-92905095D02*
X149117142Y-93047952D01*
X149117142Y-93047952D02*
X149069523Y-93143190D01*
X149069523Y-93143190D02*
X149021904Y-93190809D01*
X149021904Y-93190809D02*
X148926666Y-93238428D01*
X148926666Y-93238428D02*
X148545714Y-93238428D01*
X150069523Y-93714619D02*
X149498095Y-93714619D01*
X149783809Y-93714619D02*
X149783809Y-92714619D01*
X149783809Y-92714619D02*
X149688571Y-92857476D01*
X149688571Y-92857476D02*
X149593333Y-92952714D01*
X149593333Y-92952714D02*
X149498095Y-93000333D01*
X150688571Y-92714619D02*
X150783809Y-92714619D01*
X150783809Y-92714619D02*
X150879047Y-92762238D01*
X150879047Y-92762238D02*
X150926666Y-92809857D01*
X150926666Y-92809857D02*
X150974285Y-92905095D01*
X150974285Y-92905095D02*
X151021904Y-93095571D01*
X151021904Y-93095571D02*
X151021904Y-93333666D01*
X151021904Y-93333666D02*
X150974285Y-93524142D01*
X150974285Y-93524142D02*
X150926666Y-93619380D01*
X150926666Y-93619380D02*
X150879047Y-93667000D01*
X150879047Y-93667000D02*
X150783809Y-93714619D01*
X150783809Y-93714619D02*
X150688571Y-93714619D01*
X150688571Y-93714619D02*
X150593333Y-93667000D01*
X150593333Y-93667000D02*
X150545714Y-93619380D01*
X150545714Y-93619380D02*
X150498095Y-93524142D01*
X150498095Y-93524142D02*
X150450476Y-93333666D01*
X150450476Y-93333666D02*
X150450476Y-93095571D01*
X150450476Y-93095571D02*
X150498095Y-92905095D01*
X150498095Y-92905095D02*
X150545714Y-92809857D01*
X150545714Y-92809857D02*
X150593333Y-92762238D01*
X150593333Y-92762238D02*
X150688571Y-92714619D01*
%TO.C,C5*%
X110333333Y-82267380D02*
X110285714Y-82315000D01*
X110285714Y-82315000D02*
X110142857Y-82362619D01*
X110142857Y-82362619D02*
X110047619Y-82362619D01*
X110047619Y-82362619D02*
X109904762Y-82315000D01*
X109904762Y-82315000D02*
X109809524Y-82219761D01*
X109809524Y-82219761D02*
X109761905Y-82124523D01*
X109761905Y-82124523D02*
X109714286Y-81934047D01*
X109714286Y-81934047D02*
X109714286Y-81791190D01*
X109714286Y-81791190D02*
X109761905Y-81600714D01*
X109761905Y-81600714D02*
X109809524Y-81505476D01*
X109809524Y-81505476D02*
X109904762Y-81410238D01*
X109904762Y-81410238D02*
X110047619Y-81362619D01*
X110047619Y-81362619D02*
X110142857Y-81362619D01*
X110142857Y-81362619D02*
X110285714Y-81410238D01*
X110285714Y-81410238D02*
X110333333Y-81457857D01*
X111238095Y-81362619D02*
X110761905Y-81362619D01*
X110761905Y-81362619D02*
X110714286Y-81838809D01*
X110714286Y-81838809D02*
X110761905Y-81791190D01*
X110761905Y-81791190D02*
X110857143Y-81743571D01*
X110857143Y-81743571D02*
X111095238Y-81743571D01*
X111095238Y-81743571D02*
X111190476Y-81791190D01*
X111190476Y-81791190D02*
X111238095Y-81838809D01*
X111238095Y-81838809D02*
X111285714Y-81934047D01*
X111285714Y-81934047D02*
X111285714Y-82172142D01*
X111285714Y-82172142D02*
X111238095Y-82267380D01*
X111238095Y-82267380D02*
X111190476Y-82315000D01*
X111190476Y-82315000D02*
X111095238Y-82362619D01*
X111095238Y-82362619D02*
X110857143Y-82362619D01*
X110857143Y-82362619D02*
X110761905Y-82315000D01*
X110761905Y-82315000D02*
X110714286Y-82267380D01*
%TO.C,U1*%
X118172677Y-79311141D02*
X118449551Y-80071845D01*
X118449551Y-80071845D02*
X118526871Y-80145053D01*
X118526871Y-80145053D02*
X118587905Y-80173513D01*
X118587905Y-80173513D02*
X118693686Y-80185687D01*
X118693686Y-80185687D02*
X118872675Y-80120541D01*
X118872675Y-80120541D02*
X118945883Y-80043220D01*
X118945883Y-80043220D02*
X118974344Y-79982186D01*
X118974344Y-79982186D02*
X118986518Y-79876405D01*
X118986518Y-79876405D02*
X118709644Y-79115701D01*
X119991357Y-79713374D02*
X119454390Y-79908814D01*
X119722873Y-79811094D02*
X119380853Y-78871401D01*
X119380853Y-78871401D02*
X119340219Y-79038216D01*
X119340219Y-79038216D02*
X119283298Y-79160284D01*
X119283298Y-79160284D02*
X119210090Y-79237605D01*
%TO.C,R5*%
X178649333Y-110317619D02*
X178316000Y-109841428D01*
X178077905Y-110317619D02*
X178077905Y-109317619D01*
X178077905Y-109317619D02*
X178458857Y-109317619D01*
X178458857Y-109317619D02*
X178554095Y-109365238D01*
X178554095Y-109365238D02*
X178601714Y-109412857D01*
X178601714Y-109412857D02*
X178649333Y-109508095D01*
X178649333Y-109508095D02*
X178649333Y-109650952D01*
X178649333Y-109650952D02*
X178601714Y-109746190D01*
X178601714Y-109746190D02*
X178554095Y-109793809D01*
X178554095Y-109793809D02*
X178458857Y-109841428D01*
X178458857Y-109841428D02*
X178077905Y-109841428D01*
X179554095Y-109317619D02*
X179077905Y-109317619D01*
X179077905Y-109317619D02*
X179030286Y-109793809D01*
X179030286Y-109793809D02*
X179077905Y-109746190D01*
X179077905Y-109746190D02*
X179173143Y-109698571D01*
X179173143Y-109698571D02*
X179411238Y-109698571D01*
X179411238Y-109698571D02*
X179506476Y-109746190D01*
X179506476Y-109746190D02*
X179554095Y-109793809D01*
X179554095Y-109793809D02*
X179601714Y-109889047D01*
X179601714Y-109889047D02*
X179601714Y-110127142D01*
X179601714Y-110127142D02*
X179554095Y-110222380D01*
X179554095Y-110222380D02*
X179506476Y-110270000D01*
X179506476Y-110270000D02*
X179411238Y-110317619D01*
X179411238Y-110317619D02*
X179173143Y-110317619D01*
X179173143Y-110317619D02*
X179077905Y-110270000D01*
X179077905Y-110270000D02*
X179030286Y-110222380D01*
%TO.C,SW11*%
X146526476Y-79155000D02*
X146669333Y-79202619D01*
X146669333Y-79202619D02*
X146907428Y-79202619D01*
X146907428Y-79202619D02*
X147002666Y-79155000D01*
X147002666Y-79155000D02*
X147050285Y-79107380D01*
X147050285Y-79107380D02*
X147097904Y-79012142D01*
X147097904Y-79012142D02*
X147097904Y-78916904D01*
X147097904Y-78916904D02*
X147050285Y-78821666D01*
X147050285Y-78821666D02*
X147002666Y-78774047D01*
X147002666Y-78774047D02*
X146907428Y-78726428D01*
X146907428Y-78726428D02*
X146716952Y-78678809D01*
X146716952Y-78678809D02*
X146621714Y-78631190D01*
X146621714Y-78631190D02*
X146574095Y-78583571D01*
X146574095Y-78583571D02*
X146526476Y-78488333D01*
X146526476Y-78488333D02*
X146526476Y-78393095D01*
X146526476Y-78393095D02*
X146574095Y-78297857D01*
X146574095Y-78297857D02*
X146621714Y-78250238D01*
X146621714Y-78250238D02*
X146716952Y-78202619D01*
X146716952Y-78202619D02*
X146955047Y-78202619D01*
X146955047Y-78202619D02*
X147097904Y-78250238D01*
X147431238Y-78202619D02*
X147669333Y-79202619D01*
X147669333Y-79202619D02*
X147859809Y-78488333D01*
X147859809Y-78488333D02*
X148050285Y-79202619D01*
X148050285Y-79202619D02*
X148288381Y-78202619D01*
X149193142Y-79202619D02*
X148621714Y-79202619D01*
X148907428Y-79202619D02*
X148907428Y-78202619D01*
X148907428Y-78202619D02*
X148812190Y-78345476D01*
X148812190Y-78345476D02*
X148716952Y-78440714D01*
X148716952Y-78440714D02*
X148621714Y-78488333D01*
X150145523Y-79202619D02*
X149574095Y-79202619D01*
X149859809Y-79202619D02*
X149859809Y-78202619D01*
X149859809Y-78202619D02*
X149764571Y-78345476D01*
X149764571Y-78345476D02*
X149669333Y-78440714D01*
X149669333Y-78440714D02*
X149574095Y-78488333D01*
%TO.C,R6*%
X123377692Y-102443619D02*
X123044359Y-101967428D01*
X122806264Y-102443619D02*
X122806264Y-101443619D01*
X122806264Y-101443619D02*
X123187216Y-101443619D01*
X123187216Y-101443619D02*
X123282454Y-101491238D01*
X123282454Y-101491238D02*
X123330073Y-101538857D01*
X123330073Y-101538857D02*
X123377692Y-101634095D01*
X123377692Y-101634095D02*
X123377692Y-101776952D01*
X123377692Y-101776952D02*
X123330073Y-101872190D01*
X123330073Y-101872190D02*
X123282454Y-101919809D01*
X123282454Y-101919809D02*
X123187216Y-101967428D01*
X123187216Y-101967428D02*
X122806264Y-101967428D01*
X124234835Y-101443619D02*
X124044359Y-101443619D01*
X124044359Y-101443619D02*
X123949121Y-101491238D01*
X123949121Y-101491238D02*
X123901502Y-101538857D01*
X123901502Y-101538857D02*
X123806264Y-101681714D01*
X123806264Y-101681714D02*
X123758645Y-101872190D01*
X123758645Y-101872190D02*
X123758645Y-102253142D01*
X123758645Y-102253142D02*
X123806264Y-102348380D01*
X123806264Y-102348380D02*
X123853883Y-102396000D01*
X123853883Y-102396000D02*
X123949121Y-102443619D01*
X123949121Y-102443619D02*
X124139597Y-102443619D01*
X124139597Y-102443619D02*
X124234835Y-102396000D01*
X124234835Y-102396000D02*
X124282454Y-102348380D01*
X124282454Y-102348380D02*
X124330073Y-102253142D01*
X124330073Y-102253142D02*
X124330073Y-102015047D01*
X124330073Y-102015047D02*
X124282454Y-101919809D01*
X124282454Y-101919809D02*
X124234835Y-101872190D01*
X124234835Y-101872190D02*
X124139597Y-101824571D01*
X124139597Y-101824571D02*
X123949121Y-101824571D01*
X123949121Y-101824571D02*
X123853883Y-101872190D01*
X123853883Y-101872190D02*
X123806264Y-101919809D01*
X123806264Y-101919809D02*
X123758645Y-102015047D01*
%TO.C,Q2*%
X132804761Y-75957857D02*
X132709523Y-75910238D01*
X132709523Y-75910238D02*
X132614285Y-75815000D01*
X132614285Y-75815000D02*
X132471428Y-75672142D01*
X132471428Y-75672142D02*
X132376190Y-75624523D01*
X132376190Y-75624523D02*
X132280952Y-75624523D01*
X132328571Y-75862619D02*
X132233333Y-75815000D01*
X132233333Y-75815000D02*
X132138095Y-75719761D01*
X132138095Y-75719761D02*
X132090476Y-75529285D01*
X132090476Y-75529285D02*
X132090476Y-75195952D01*
X132090476Y-75195952D02*
X132138095Y-75005476D01*
X132138095Y-75005476D02*
X132233333Y-74910238D01*
X132233333Y-74910238D02*
X132328571Y-74862619D01*
X132328571Y-74862619D02*
X132519047Y-74862619D01*
X132519047Y-74862619D02*
X132614285Y-74910238D01*
X132614285Y-74910238D02*
X132709523Y-75005476D01*
X132709523Y-75005476D02*
X132757142Y-75195952D01*
X132757142Y-75195952D02*
X132757142Y-75529285D01*
X132757142Y-75529285D02*
X132709523Y-75719761D01*
X132709523Y-75719761D02*
X132614285Y-75815000D01*
X132614285Y-75815000D02*
X132519047Y-75862619D01*
X132519047Y-75862619D02*
X132328571Y-75862619D01*
X133138095Y-74957857D02*
X133185714Y-74910238D01*
X133185714Y-74910238D02*
X133280952Y-74862619D01*
X133280952Y-74862619D02*
X133519047Y-74862619D01*
X133519047Y-74862619D02*
X133614285Y-74910238D01*
X133614285Y-74910238D02*
X133661904Y-74957857D01*
X133661904Y-74957857D02*
X133709523Y-75053095D01*
X133709523Y-75053095D02*
X133709523Y-75148333D01*
X133709523Y-75148333D02*
X133661904Y-75291190D01*
X133661904Y-75291190D02*
X133090476Y-75862619D01*
X133090476Y-75862619D02*
X133709523Y-75862619D01*
%TO.C,C3*%
X139051380Y-103417666D02*
X139099000Y-103465285D01*
X139099000Y-103465285D02*
X139146619Y-103608142D01*
X139146619Y-103608142D02*
X139146619Y-103703380D01*
X139146619Y-103703380D02*
X139099000Y-103846237D01*
X139099000Y-103846237D02*
X139003761Y-103941475D01*
X139003761Y-103941475D02*
X138908523Y-103989094D01*
X138908523Y-103989094D02*
X138718047Y-104036713D01*
X138718047Y-104036713D02*
X138575190Y-104036713D01*
X138575190Y-104036713D02*
X138384714Y-103989094D01*
X138384714Y-103989094D02*
X138289476Y-103941475D01*
X138289476Y-103941475D02*
X138194238Y-103846237D01*
X138194238Y-103846237D02*
X138146619Y-103703380D01*
X138146619Y-103703380D02*
X138146619Y-103608142D01*
X138146619Y-103608142D02*
X138194238Y-103465285D01*
X138194238Y-103465285D02*
X138241857Y-103417666D01*
X138146619Y-103084332D02*
X138146619Y-102465285D01*
X138146619Y-102465285D02*
X138527571Y-102798618D01*
X138527571Y-102798618D02*
X138527571Y-102655761D01*
X138527571Y-102655761D02*
X138575190Y-102560523D01*
X138575190Y-102560523D02*
X138622809Y-102512904D01*
X138622809Y-102512904D02*
X138718047Y-102465285D01*
X138718047Y-102465285D02*
X138956142Y-102465285D01*
X138956142Y-102465285D02*
X139051380Y-102512904D01*
X139051380Y-102512904D02*
X139099000Y-102560523D01*
X139099000Y-102560523D02*
X139146619Y-102655761D01*
X139146619Y-102655761D02*
X139146619Y-102941475D01*
X139146619Y-102941475D02*
X139099000Y-103036713D01*
X139099000Y-103036713D02*
X139051380Y-103084332D01*
%TO.C,RST1*%
X155948190Y-105745619D02*
X155614857Y-105269428D01*
X155376762Y-105745619D02*
X155376762Y-104745619D01*
X155376762Y-104745619D02*
X155757714Y-104745619D01*
X155757714Y-104745619D02*
X155852952Y-104793238D01*
X155852952Y-104793238D02*
X155900571Y-104840857D01*
X155900571Y-104840857D02*
X155948190Y-104936095D01*
X155948190Y-104936095D02*
X155948190Y-105078952D01*
X155948190Y-105078952D02*
X155900571Y-105174190D01*
X155900571Y-105174190D02*
X155852952Y-105221809D01*
X155852952Y-105221809D02*
X155757714Y-105269428D01*
X155757714Y-105269428D02*
X155376762Y-105269428D01*
X156329143Y-105698000D02*
X156472000Y-105745619D01*
X156472000Y-105745619D02*
X156710095Y-105745619D01*
X156710095Y-105745619D02*
X156805333Y-105698000D01*
X156805333Y-105698000D02*
X156852952Y-105650380D01*
X156852952Y-105650380D02*
X156900571Y-105555142D01*
X156900571Y-105555142D02*
X156900571Y-105459904D01*
X156900571Y-105459904D02*
X156852952Y-105364666D01*
X156852952Y-105364666D02*
X156805333Y-105317047D01*
X156805333Y-105317047D02*
X156710095Y-105269428D01*
X156710095Y-105269428D02*
X156519619Y-105221809D01*
X156519619Y-105221809D02*
X156424381Y-105174190D01*
X156424381Y-105174190D02*
X156376762Y-105126571D01*
X156376762Y-105126571D02*
X156329143Y-105031333D01*
X156329143Y-105031333D02*
X156329143Y-104936095D01*
X156329143Y-104936095D02*
X156376762Y-104840857D01*
X156376762Y-104840857D02*
X156424381Y-104793238D01*
X156424381Y-104793238D02*
X156519619Y-104745619D01*
X156519619Y-104745619D02*
X156757714Y-104745619D01*
X156757714Y-104745619D02*
X156900571Y-104793238D01*
X157186286Y-104745619D02*
X157757714Y-104745619D01*
X157472000Y-105745619D02*
X157472000Y-104745619D01*
X158614857Y-105745619D02*
X158043429Y-105745619D01*
X158329143Y-105745619D02*
X158329143Y-104745619D01*
X158329143Y-104745619D02*
X158233905Y-104888476D01*
X158233905Y-104888476D02*
X158138667Y-104983714D01*
X158138667Y-104983714D02*
X158043429Y-105031333D01*
%TO.C,C16*%
X163157142Y-75967380D02*
X163109523Y-76015000D01*
X163109523Y-76015000D02*
X162966666Y-76062619D01*
X162966666Y-76062619D02*
X162871428Y-76062619D01*
X162871428Y-76062619D02*
X162728571Y-76015000D01*
X162728571Y-76015000D02*
X162633333Y-75919761D01*
X162633333Y-75919761D02*
X162585714Y-75824523D01*
X162585714Y-75824523D02*
X162538095Y-75634047D01*
X162538095Y-75634047D02*
X162538095Y-75491190D01*
X162538095Y-75491190D02*
X162585714Y-75300714D01*
X162585714Y-75300714D02*
X162633333Y-75205476D01*
X162633333Y-75205476D02*
X162728571Y-75110238D01*
X162728571Y-75110238D02*
X162871428Y-75062619D01*
X162871428Y-75062619D02*
X162966666Y-75062619D01*
X162966666Y-75062619D02*
X163109523Y-75110238D01*
X163109523Y-75110238D02*
X163157142Y-75157857D01*
X164109523Y-76062619D02*
X163538095Y-76062619D01*
X163823809Y-76062619D02*
X163823809Y-75062619D01*
X163823809Y-75062619D02*
X163728571Y-75205476D01*
X163728571Y-75205476D02*
X163633333Y-75300714D01*
X163633333Y-75300714D02*
X163538095Y-75348333D01*
X164966666Y-75062619D02*
X164776190Y-75062619D01*
X164776190Y-75062619D02*
X164680952Y-75110238D01*
X164680952Y-75110238D02*
X164633333Y-75157857D01*
X164633333Y-75157857D02*
X164538095Y-75300714D01*
X164538095Y-75300714D02*
X164490476Y-75491190D01*
X164490476Y-75491190D02*
X164490476Y-75872142D01*
X164490476Y-75872142D02*
X164538095Y-75967380D01*
X164538095Y-75967380D02*
X164585714Y-76015000D01*
X164585714Y-76015000D02*
X164680952Y-76062619D01*
X164680952Y-76062619D02*
X164871428Y-76062619D01*
X164871428Y-76062619D02*
X164966666Y-76015000D01*
X164966666Y-76015000D02*
X165014285Y-75967380D01*
X165014285Y-75967380D02*
X165061904Y-75872142D01*
X165061904Y-75872142D02*
X165061904Y-75634047D01*
X165061904Y-75634047D02*
X165014285Y-75538809D01*
X165014285Y-75538809D02*
X164966666Y-75491190D01*
X164966666Y-75491190D02*
X164871428Y-75443571D01*
X164871428Y-75443571D02*
X164680952Y-75443571D01*
X164680952Y-75443571D02*
X164585714Y-75491190D01*
X164585714Y-75491190D02*
X164538095Y-75538809D01*
X164538095Y-75538809D02*
X164490476Y-75634047D01*
%TO.C,J2*%
X152120666Y-82867619D02*
X152120666Y-83581904D01*
X152120666Y-83581904D02*
X152073047Y-83724761D01*
X152073047Y-83724761D02*
X151977809Y-83820000D01*
X151977809Y-83820000D02*
X151834952Y-83867619D01*
X151834952Y-83867619D02*
X151739714Y-83867619D01*
X152549238Y-82962857D02*
X152596857Y-82915238D01*
X152596857Y-82915238D02*
X152692095Y-82867619D01*
X152692095Y-82867619D02*
X152930190Y-82867619D01*
X152930190Y-82867619D02*
X153025428Y-82915238D01*
X153025428Y-82915238D02*
X153073047Y-82962857D01*
X153073047Y-82962857D02*
X153120666Y-83058095D01*
X153120666Y-83058095D02*
X153120666Y-83153333D01*
X153120666Y-83153333D02*
X153073047Y-83296190D01*
X153073047Y-83296190D02*
X152501619Y-83867619D01*
X152501619Y-83867619D02*
X153120666Y-83867619D01*
%TO.C,R11*%
X151465619Y-108465857D02*
X150989428Y-108799190D01*
X151465619Y-109037285D02*
X150465619Y-109037285D01*
X150465619Y-109037285D02*
X150465619Y-108656333D01*
X150465619Y-108656333D02*
X150513238Y-108561095D01*
X150513238Y-108561095D02*
X150560857Y-108513476D01*
X150560857Y-108513476D02*
X150656095Y-108465857D01*
X150656095Y-108465857D02*
X150798952Y-108465857D01*
X150798952Y-108465857D02*
X150894190Y-108513476D01*
X150894190Y-108513476D02*
X150941809Y-108561095D01*
X150941809Y-108561095D02*
X150989428Y-108656333D01*
X150989428Y-108656333D02*
X150989428Y-109037285D01*
X151465619Y-107513476D02*
X151465619Y-108084904D01*
X151465619Y-107799190D02*
X150465619Y-107799190D01*
X150465619Y-107799190D02*
X150608476Y-107894428D01*
X150608476Y-107894428D02*
X150703714Y-107989666D01*
X150703714Y-107989666D02*
X150751333Y-108084904D01*
X151465619Y-106561095D02*
X151465619Y-107132523D01*
X151465619Y-106846809D02*
X150465619Y-106846809D01*
X150465619Y-106846809D02*
X150608476Y-106942047D01*
X150608476Y-106942047D02*
X150703714Y-107037285D01*
X150703714Y-107037285D02*
X150751333Y-107132523D01*
%TO.C,R16*%
X132157142Y-83162619D02*
X131823809Y-82686428D01*
X131585714Y-83162619D02*
X131585714Y-82162619D01*
X131585714Y-82162619D02*
X131966666Y-82162619D01*
X131966666Y-82162619D02*
X132061904Y-82210238D01*
X132061904Y-82210238D02*
X132109523Y-82257857D01*
X132109523Y-82257857D02*
X132157142Y-82353095D01*
X132157142Y-82353095D02*
X132157142Y-82495952D01*
X132157142Y-82495952D02*
X132109523Y-82591190D01*
X132109523Y-82591190D02*
X132061904Y-82638809D01*
X132061904Y-82638809D02*
X131966666Y-82686428D01*
X131966666Y-82686428D02*
X131585714Y-82686428D01*
X133109523Y-83162619D02*
X132538095Y-83162619D01*
X132823809Y-83162619D02*
X132823809Y-82162619D01*
X132823809Y-82162619D02*
X132728571Y-82305476D01*
X132728571Y-82305476D02*
X132633333Y-82400714D01*
X132633333Y-82400714D02*
X132538095Y-82448333D01*
X133966666Y-82162619D02*
X133776190Y-82162619D01*
X133776190Y-82162619D02*
X133680952Y-82210238D01*
X133680952Y-82210238D02*
X133633333Y-82257857D01*
X133633333Y-82257857D02*
X133538095Y-82400714D01*
X133538095Y-82400714D02*
X133490476Y-82591190D01*
X133490476Y-82591190D02*
X133490476Y-82972142D01*
X133490476Y-82972142D02*
X133538095Y-83067380D01*
X133538095Y-83067380D02*
X133585714Y-83115000D01*
X133585714Y-83115000D02*
X133680952Y-83162619D01*
X133680952Y-83162619D02*
X133871428Y-83162619D01*
X133871428Y-83162619D02*
X133966666Y-83115000D01*
X133966666Y-83115000D02*
X134014285Y-83067380D01*
X134014285Y-83067380D02*
X134061904Y-82972142D01*
X134061904Y-82972142D02*
X134061904Y-82734047D01*
X134061904Y-82734047D02*
X134014285Y-82638809D01*
X134014285Y-82638809D02*
X133966666Y-82591190D01*
X133966666Y-82591190D02*
X133871428Y-82543571D01*
X133871428Y-82543571D02*
X133680952Y-82543571D01*
X133680952Y-82543571D02*
X133585714Y-82591190D01*
X133585714Y-82591190D02*
X133538095Y-82638809D01*
X133538095Y-82638809D02*
X133490476Y-82734047D01*
%TO.C,R1*%
X110332619Y-95366666D02*
X109856428Y-95699999D01*
X110332619Y-95938094D02*
X109332619Y-95938094D01*
X109332619Y-95938094D02*
X109332619Y-95557142D01*
X109332619Y-95557142D02*
X109380238Y-95461904D01*
X109380238Y-95461904D02*
X109427857Y-95414285D01*
X109427857Y-95414285D02*
X109523095Y-95366666D01*
X109523095Y-95366666D02*
X109665952Y-95366666D01*
X109665952Y-95366666D02*
X109761190Y-95414285D01*
X109761190Y-95414285D02*
X109808809Y-95461904D01*
X109808809Y-95461904D02*
X109856428Y-95557142D01*
X109856428Y-95557142D02*
X109856428Y-95938094D01*
X110332619Y-94414285D02*
X110332619Y-94985713D01*
X110332619Y-94699999D02*
X109332619Y-94699999D01*
X109332619Y-94699999D02*
X109475476Y-94795237D01*
X109475476Y-94795237D02*
X109570714Y-94890475D01*
X109570714Y-94890475D02*
X109618333Y-94985713D01*
%TO.C,U4*%
X171338095Y-79962619D02*
X171338095Y-80772142D01*
X171338095Y-80772142D02*
X171385714Y-80867380D01*
X171385714Y-80867380D02*
X171433333Y-80915000D01*
X171433333Y-80915000D02*
X171528571Y-80962619D01*
X171528571Y-80962619D02*
X171719047Y-80962619D01*
X171719047Y-80962619D02*
X171814285Y-80915000D01*
X171814285Y-80915000D02*
X171861904Y-80867380D01*
X171861904Y-80867380D02*
X171909523Y-80772142D01*
X171909523Y-80772142D02*
X171909523Y-79962619D01*
X172814285Y-80295952D02*
X172814285Y-80962619D01*
X172576190Y-79915000D02*
X172338095Y-80629285D01*
X172338095Y-80629285D02*
X172957142Y-80629285D01*
%TO.C,L3*%
X160333333Y-76162619D02*
X159857143Y-76162619D01*
X159857143Y-76162619D02*
X159857143Y-75162619D01*
X160571429Y-75162619D02*
X161190476Y-75162619D01*
X161190476Y-75162619D02*
X160857143Y-75543571D01*
X160857143Y-75543571D02*
X161000000Y-75543571D01*
X161000000Y-75543571D02*
X161095238Y-75591190D01*
X161095238Y-75591190D02*
X161142857Y-75638809D01*
X161142857Y-75638809D02*
X161190476Y-75734047D01*
X161190476Y-75734047D02*
X161190476Y-75972142D01*
X161190476Y-75972142D02*
X161142857Y-76067380D01*
X161142857Y-76067380D02*
X161095238Y-76115000D01*
X161095238Y-76115000D02*
X161000000Y-76162619D01*
X161000000Y-76162619D02*
X160714286Y-76162619D01*
X160714286Y-76162619D02*
X160619048Y-76115000D01*
X160619048Y-76115000D02*
X160571429Y-76067380D01*
%TO.C,R12*%
X125684619Y-105925857D02*
X125208428Y-106259190D01*
X125684619Y-106497285D02*
X124684619Y-106497285D01*
X124684619Y-106497285D02*
X124684619Y-106116333D01*
X124684619Y-106116333D02*
X124732238Y-106021095D01*
X124732238Y-106021095D02*
X124779857Y-105973476D01*
X124779857Y-105973476D02*
X124875095Y-105925857D01*
X124875095Y-105925857D02*
X125017952Y-105925857D01*
X125017952Y-105925857D02*
X125113190Y-105973476D01*
X125113190Y-105973476D02*
X125160809Y-106021095D01*
X125160809Y-106021095D02*
X125208428Y-106116333D01*
X125208428Y-106116333D02*
X125208428Y-106497285D01*
X125684619Y-104973476D02*
X125684619Y-105544904D01*
X125684619Y-105259190D02*
X124684619Y-105259190D01*
X124684619Y-105259190D02*
X124827476Y-105354428D01*
X124827476Y-105354428D02*
X124922714Y-105449666D01*
X124922714Y-105449666D02*
X124970333Y-105544904D01*
X124779857Y-104592523D02*
X124732238Y-104544904D01*
X124732238Y-104544904D02*
X124684619Y-104449666D01*
X124684619Y-104449666D02*
X124684619Y-104211571D01*
X124684619Y-104211571D02*
X124732238Y-104116333D01*
X124732238Y-104116333D02*
X124779857Y-104068714D01*
X124779857Y-104068714D02*
X124875095Y-104021095D01*
X124875095Y-104021095D02*
X124970333Y-104021095D01*
X124970333Y-104021095D02*
X125113190Y-104068714D01*
X125113190Y-104068714D02*
X125684619Y-104640142D01*
X125684619Y-104640142D02*
X125684619Y-104021095D01*
%TO.C,R2*%
X118578333Y-87838619D02*
X118245000Y-87362428D01*
X118006905Y-87838619D02*
X118006905Y-86838619D01*
X118006905Y-86838619D02*
X118387857Y-86838619D01*
X118387857Y-86838619D02*
X118483095Y-86886238D01*
X118483095Y-86886238D02*
X118530714Y-86933857D01*
X118530714Y-86933857D02*
X118578333Y-87029095D01*
X118578333Y-87029095D02*
X118578333Y-87171952D01*
X118578333Y-87171952D02*
X118530714Y-87267190D01*
X118530714Y-87267190D02*
X118483095Y-87314809D01*
X118483095Y-87314809D02*
X118387857Y-87362428D01*
X118387857Y-87362428D02*
X118006905Y-87362428D01*
X118959286Y-86933857D02*
X119006905Y-86886238D01*
X119006905Y-86886238D02*
X119102143Y-86838619D01*
X119102143Y-86838619D02*
X119340238Y-86838619D01*
X119340238Y-86838619D02*
X119435476Y-86886238D01*
X119435476Y-86886238D02*
X119483095Y-86933857D01*
X119483095Y-86933857D02*
X119530714Y-87029095D01*
X119530714Y-87029095D02*
X119530714Y-87124333D01*
X119530714Y-87124333D02*
X119483095Y-87267190D01*
X119483095Y-87267190D02*
X118911667Y-87838619D01*
X118911667Y-87838619D02*
X119530714Y-87838619D01*
%TO.C,R15*%
X100251619Y-88042857D02*
X99775428Y-88376190D01*
X100251619Y-88614285D02*
X99251619Y-88614285D01*
X99251619Y-88614285D02*
X99251619Y-88233333D01*
X99251619Y-88233333D02*
X99299238Y-88138095D01*
X99299238Y-88138095D02*
X99346857Y-88090476D01*
X99346857Y-88090476D02*
X99442095Y-88042857D01*
X99442095Y-88042857D02*
X99584952Y-88042857D01*
X99584952Y-88042857D02*
X99680190Y-88090476D01*
X99680190Y-88090476D02*
X99727809Y-88138095D01*
X99727809Y-88138095D02*
X99775428Y-88233333D01*
X99775428Y-88233333D02*
X99775428Y-88614285D01*
X100251619Y-87090476D02*
X100251619Y-87661904D01*
X100251619Y-87376190D02*
X99251619Y-87376190D01*
X99251619Y-87376190D02*
X99394476Y-87471428D01*
X99394476Y-87471428D02*
X99489714Y-87566666D01*
X99489714Y-87566666D02*
X99537333Y-87661904D01*
X99251619Y-86185714D02*
X99251619Y-86661904D01*
X99251619Y-86661904D02*
X99727809Y-86709523D01*
X99727809Y-86709523D02*
X99680190Y-86661904D01*
X99680190Y-86661904D02*
X99632571Y-86566666D01*
X99632571Y-86566666D02*
X99632571Y-86328571D01*
X99632571Y-86328571D02*
X99680190Y-86233333D01*
X99680190Y-86233333D02*
X99727809Y-86185714D01*
X99727809Y-86185714D02*
X99823047Y-86138095D01*
X99823047Y-86138095D02*
X100061142Y-86138095D01*
X100061142Y-86138095D02*
X100156380Y-86185714D01*
X100156380Y-86185714D02*
X100204000Y-86233333D01*
X100204000Y-86233333D02*
X100251619Y-86328571D01*
X100251619Y-86328571D02*
X100251619Y-86566666D01*
X100251619Y-86566666D02*
X100204000Y-86661904D01*
X100204000Y-86661904D02*
X100156380Y-86709523D01*
%TO.C,C18*%
X153656380Y-78874857D02*
X153704000Y-78922476D01*
X153704000Y-78922476D02*
X153751619Y-79065333D01*
X153751619Y-79065333D02*
X153751619Y-79160571D01*
X153751619Y-79160571D02*
X153704000Y-79303428D01*
X153704000Y-79303428D02*
X153608761Y-79398666D01*
X153608761Y-79398666D02*
X153513523Y-79446285D01*
X153513523Y-79446285D02*
X153323047Y-79493904D01*
X153323047Y-79493904D02*
X153180190Y-79493904D01*
X153180190Y-79493904D02*
X152989714Y-79446285D01*
X152989714Y-79446285D02*
X152894476Y-79398666D01*
X152894476Y-79398666D02*
X152799238Y-79303428D01*
X152799238Y-79303428D02*
X152751619Y-79160571D01*
X152751619Y-79160571D02*
X152751619Y-79065333D01*
X152751619Y-79065333D02*
X152799238Y-78922476D01*
X152799238Y-78922476D02*
X152846857Y-78874857D01*
X153751619Y-77922476D02*
X153751619Y-78493904D01*
X153751619Y-78208190D02*
X152751619Y-78208190D01*
X152751619Y-78208190D02*
X152894476Y-78303428D01*
X152894476Y-78303428D02*
X152989714Y-78398666D01*
X152989714Y-78398666D02*
X153037333Y-78493904D01*
X153180190Y-77351047D02*
X153132571Y-77446285D01*
X153132571Y-77446285D02*
X153084952Y-77493904D01*
X153084952Y-77493904D02*
X152989714Y-77541523D01*
X152989714Y-77541523D02*
X152942095Y-77541523D01*
X152942095Y-77541523D02*
X152846857Y-77493904D01*
X152846857Y-77493904D02*
X152799238Y-77446285D01*
X152799238Y-77446285D02*
X152751619Y-77351047D01*
X152751619Y-77351047D02*
X152751619Y-77160571D01*
X152751619Y-77160571D02*
X152799238Y-77065333D01*
X152799238Y-77065333D02*
X152846857Y-77017714D01*
X152846857Y-77017714D02*
X152942095Y-76970095D01*
X152942095Y-76970095D02*
X152989714Y-76970095D01*
X152989714Y-76970095D02*
X153084952Y-77017714D01*
X153084952Y-77017714D02*
X153132571Y-77065333D01*
X153132571Y-77065333D02*
X153180190Y-77160571D01*
X153180190Y-77160571D02*
X153180190Y-77351047D01*
X153180190Y-77351047D02*
X153227809Y-77446285D01*
X153227809Y-77446285D02*
X153275428Y-77493904D01*
X153275428Y-77493904D02*
X153370666Y-77541523D01*
X153370666Y-77541523D02*
X153561142Y-77541523D01*
X153561142Y-77541523D02*
X153656380Y-77493904D01*
X153656380Y-77493904D02*
X153704000Y-77446285D01*
X153704000Y-77446285D02*
X153751619Y-77351047D01*
X153751619Y-77351047D02*
X153751619Y-77160571D01*
X153751619Y-77160571D02*
X153704000Y-77065333D01*
X153704000Y-77065333D02*
X153656380Y-77017714D01*
X153656380Y-77017714D02*
X153561142Y-76970095D01*
X153561142Y-76970095D02*
X153370666Y-76970095D01*
X153370666Y-76970095D02*
X153275428Y-77017714D01*
X153275428Y-77017714D02*
X153227809Y-77065333D01*
X153227809Y-77065333D02*
X153180190Y-77160571D01*
%TO.C,R23*%
X138362619Y-84042857D02*
X137886428Y-84376190D01*
X138362619Y-84614285D02*
X137362619Y-84614285D01*
X137362619Y-84614285D02*
X137362619Y-84233333D01*
X137362619Y-84233333D02*
X137410238Y-84138095D01*
X137410238Y-84138095D02*
X137457857Y-84090476D01*
X137457857Y-84090476D02*
X137553095Y-84042857D01*
X137553095Y-84042857D02*
X137695952Y-84042857D01*
X137695952Y-84042857D02*
X137791190Y-84090476D01*
X137791190Y-84090476D02*
X137838809Y-84138095D01*
X137838809Y-84138095D02*
X137886428Y-84233333D01*
X137886428Y-84233333D02*
X137886428Y-84614285D01*
X137457857Y-83661904D02*
X137410238Y-83614285D01*
X137410238Y-83614285D02*
X137362619Y-83519047D01*
X137362619Y-83519047D02*
X137362619Y-83280952D01*
X137362619Y-83280952D02*
X137410238Y-83185714D01*
X137410238Y-83185714D02*
X137457857Y-83138095D01*
X137457857Y-83138095D02*
X137553095Y-83090476D01*
X137553095Y-83090476D02*
X137648333Y-83090476D01*
X137648333Y-83090476D02*
X137791190Y-83138095D01*
X137791190Y-83138095D02*
X138362619Y-83709523D01*
X138362619Y-83709523D02*
X138362619Y-83090476D01*
X137362619Y-82757142D02*
X137362619Y-82138095D01*
X137362619Y-82138095D02*
X137743571Y-82471428D01*
X137743571Y-82471428D02*
X137743571Y-82328571D01*
X137743571Y-82328571D02*
X137791190Y-82233333D01*
X137791190Y-82233333D02*
X137838809Y-82185714D01*
X137838809Y-82185714D02*
X137934047Y-82138095D01*
X137934047Y-82138095D02*
X138172142Y-82138095D01*
X138172142Y-82138095D02*
X138267380Y-82185714D01*
X138267380Y-82185714D02*
X138315000Y-82233333D01*
X138315000Y-82233333D02*
X138362619Y-82328571D01*
X138362619Y-82328571D02*
X138362619Y-82614285D01*
X138362619Y-82614285D02*
X138315000Y-82709523D01*
X138315000Y-82709523D02*
X138267380Y-82757142D01*
%TO.C,R8*%
X130770333Y-99014619D02*
X130437000Y-98538428D01*
X130198905Y-99014619D02*
X130198905Y-98014619D01*
X130198905Y-98014619D02*
X130579857Y-98014619D01*
X130579857Y-98014619D02*
X130675095Y-98062238D01*
X130675095Y-98062238D02*
X130722714Y-98109857D01*
X130722714Y-98109857D02*
X130770333Y-98205095D01*
X130770333Y-98205095D02*
X130770333Y-98347952D01*
X130770333Y-98347952D02*
X130722714Y-98443190D01*
X130722714Y-98443190D02*
X130675095Y-98490809D01*
X130675095Y-98490809D02*
X130579857Y-98538428D01*
X130579857Y-98538428D02*
X130198905Y-98538428D01*
X131341762Y-98443190D02*
X131246524Y-98395571D01*
X131246524Y-98395571D02*
X131198905Y-98347952D01*
X131198905Y-98347952D02*
X131151286Y-98252714D01*
X131151286Y-98252714D02*
X131151286Y-98205095D01*
X131151286Y-98205095D02*
X131198905Y-98109857D01*
X131198905Y-98109857D02*
X131246524Y-98062238D01*
X131246524Y-98062238D02*
X131341762Y-98014619D01*
X131341762Y-98014619D02*
X131532238Y-98014619D01*
X131532238Y-98014619D02*
X131627476Y-98062238D01*
X131627476Y-98062238D02*
X131675095Y-98109857D01*
X131675095Y-98109857D02*
X131722714Y-98205095D01*
X131722714Y-98205095D02*
X131722714Y-98252714D01*
X131722714Y-98252714D02*
X131675095Y-98347952D01*
X131675095Y-98347952D02*
X131627476Y-98395571D01*
X131627476Y-98395571D02*
X131532238Y-98443190D01*
X131532238Y-98443190D02*
X131341762Y-98443190D01*
X131341762Y-98443190D02*
X131246524Y-98490809D01*
X131246524Y-98490809D02*
X131198905Y-98538428D01*
X131198905Y-98538428D02*
X131151286Y-98633666D01*
X131151286Y-98633666D02*
X131151286Y-98824142D01*
X131151286Y-98824142D02*
X131198905Y-98919380D01*
X131198905Y-98919380D02*
X131246524Y-98967000D01*
X131246524Y-98967000D02*
X131341762Y-99014619D01*
X131341762Y-99014619D02*
X131532238Y-99014619D01*
X131532238Y-99014619D02*
X131627476Y-98967000D01*
X131627476Y-98967000D02*
X131675095Y-98919380D01*
X131675095Y-98919380D02*
X131722714Y-98824142D01*
X131722714Y-98824142D02*
X131722714Y-98633666D01*
X131722714Y-98633666D02*
X131675095Y-98538428D01*
X131675095Y-98538428D02*
X131627476Y-98490809D01*
X131627476Y-98490809D02*
X131532238Y-98443190D01*
%TO.C,R10*%
X135336619Y-104020857D02*
X134860428Y-104354190D01*
X135336619Y-104592285D02*
X134336619Y-104592285D01*
X134336619Y-104592285D02*
X134336619Y-104211333D01*
X134336619Y-104211333D02*
X134384238Y-104116095D01*
X134384238Y-104116095D02*
X134431857Y-104068476D01*
X134431857Y-104068476D02*
X134527095Y-104020857D01*
X134527095Y-104020857D02*
X134669952Y-104020857D01*
X134669952Y-104020857D02*
X134765190Y-104068476D01*
X134765190Y-104068476D02*
X134812809Y-104116095D01*
X134812809Y-104116095D02*
X134860428Y-104211333D01*
X134860428Y-104211333D02*
X134860428Y-104592285D01*
X135336619Y-103068476D02*
X135336619Y-103639904D01*
X135336619Y-103354190D02*
X134336619Y-103354190D01*
X134336619Y-103354190D02*
X134479476Y-103449428D01*
X134479476Y-103449428D02*
X134574714Y-103544666D01*
X134574714Y-103544666D02*
X134622333Y-103639904D01*
X134336619Y-102449428D02*
X134336619Y-102354190D01*
X134336619Y-102354190D02*
X134384238Y-102258952D01*
X134384238Y-102258952D02*
X134431857Y-102211333D01*
X134431857Y-102211333D02*
X134527095Y-102163714D01*
X134527095Y-102163714D02*
X134717571Y-102116095D01*
X134717571Y-102116095D02*
X134955666Y-102116095D01*
X134955666Y-102116095D02*
X135146142Y-102163714D01*
X135146142Y-102163714D02*
X135241380Y-102211333D01*
X135241380Y-102211333D02*
X135289000Y-102258952D01*
X135289000Y-102258952D02*
X135336619Y-102354190D01*
X135336619Y-102354190D02*
X135336619Y-102449428D01*
X135336619Y-102449428D02*
X135289000Y-102544666D01*
X135289000Y-102544666D02*
X135241380Y-102592285D01*
X135241380Y-102592285D02*
X135146142Y-102639904D01*
X135146142Y-102639904D02*
X134955666Y-102687523D01*
X134955666Y-102687523D02*
X134717571Y-102687523D01*
X134717571Y-102687523D02*
X134527095Y-102639904D01*
X134527095Y-102639904D02*
X134431857Y-102592285D01*
X134431857Y-102592285D02*
X134384238Y-102544666D01*
X134384238Y-102544666D02*
X134336619Y-102449428D01*
%TO.C,R19*%
X137962619Y-75642857D02*
X137486428Y-75976190D01*
X137962619Y-76214285D02*
X136962619Y-76214285D01*
X136962619Y-76214285D02*
X136962619Y-75833333D01*
X136962619Y-75833333D02*
X137010238Y-75738095D01*
X137010238Y-75738095D02*
X137057857Y-75690476D01*
X137057857Y-75690476D02*
X137153095Y-75642857D01*
X137153095Y-75642857D02*
X137295952Y-75642857D01*
X137295952Y-75642857D02*
X137391190Y-75690476D01*
X137391190Y-75690476D02*
X137438809Y-75738095D01*
X137438809Y-75738095D02*
X137486428Y-75833333D01*
X137486428Y-75833333D02*
X137486428Y-76214285D01*
X137962619Y-74690476D02*
X137962619Y-75261904D01*
X137962619Y-74976190D02*
X136962619Y-74976190D01*
X136962619Y-74976190D02*
X137105476Y-75071428D01*
X137105476Y-75071428D02*
X137200714Y-75166666D01*
X137200714Y-75166666D02*
X137248333Y-75261904D01*
X137962619Y-74214285D02*
X137962619Y-74023809D01*
X137962619Y-74023809D02*
X137915000Y-73928571D01*
X137915000Y-73928571D02*
X137867380Y-73880952D01*
X137867380Y-73880952D02*
X137724523Y-73785714D01*
X137724523Y-73785714D02*
X137534047Y-73738095D01*
X137534047Y-73738095D02*
X137153095Y-73738095D01*
X137153095Y-73738095D02*
X137057857Y-73785714D01*
X137057857Y-73785714D02*
X137010238Y-73833333D01*
X137010238Y-73833333D02*
X136962619Y-73928571D01*
X136962619Y-73928571D02*
X136962619Y-74119047D01*
X136962619Y-74119047D02*
X137010238Y-74214285D01*
X137010238Y-74214285D02*
X137057857Y-74261904D01*
X137057857Y-74261904D02*
X137153095Y-74309523D01*
X137153095Y-74309523D02*
X137391190Y-74309523D01*
X137391190Y-74309523D02*
X137486428Y-74261904D01*
X137486428Y-74261904D02*
X137534047Y-74214285D01*
X137534047Y-74214285D02*
X137581666Y-74119047D01*
X137581666Y-74119047D02*
X137581666Y-73928571D01*
X137581666Y-73928571D02*
X137534047Y-73833333D01*
X137534047Y-73833333D02*
X137486428Y-73785714D01*
X137486428Y-73785714D02*
X137391190Y-73738095D01*
%TO.C,U5*%
X127889095Y-80234619D02*
X127889095Y-81044142D01*
X127889095Y-81044142D02*
X127936714Y-81139380D01*
X127936714Y-81139380D02*
X127984333Y-81187000D01*
X127984333Y-81187000D02*
X128079571Y-81234619D01*
X128079571Y-81234619D02*
X128270047Y-81234619D01*
X128270047Y-81234619D02*
X128365285Y-81187000D01*
X128365285Y-81187000D02*
X128412904Y-81139380D01*
X128412904Y-81139380D02*
X128460523Y-81044142D01*
X128460523Y-81044142D02*
X128460523Y-80234619D01*
X129412904Y-80234619D02*
X128936714Y-80234619D01*
X128936714Y-80234619D02*
X128889095Y-80710809D01*
X128889095Y-80710809D02*
X128936714Y-80663190D01*
X128936714Y-80663190D02*
X129031952Y-80615571D01*
X129031952Y-80615571D02*
X129270047Y-80615571D01*
X129270047Y-80615571D02*
X129365285Y-80663190D01*
X129365285Y-80663190D02*
X129412904Y-80710809D01*
X129412904Y-80710809D02*
X129460523Y-80806047D01*
X129460523Y-80806047D02*
X129460523Y-81044142D01*
X129460523Y-81044142D02*
X129412904Y-81139380D01*
X129412904Y-81139380D02*
X129365285Y-81187000D01*
X129365285Y-81187000D02*
X129270047Y-81234619D01*
X129270047Y-81234619D02*
X129031952Y-81234619D01*
X129031952Y-81234619D02*
X128936714Y-81187000D01*
X128936714Y-81187000D02*
X128889095Y-81139380D01*
%TO.C,C19*%
X134606380Y-85332693D02*
X134654000Y-85380312D01*
X134654000Y-85380312D02*
X134701619Y-85523169D01*
X134701619Y-85523169D02*
X134701619Y-85618407D01*
X134701619Y-85618407D02*
X134654000Y-85761264D01*
X134654000Y-85761264D02*
X134558761Y-85856502D01*
X134558761Y-85856502D02*
X134463523Y-85904121D01*
X134463523Y-85904121D02*
X134273047Y-85951740D01*
X134273047Y-85951740D02*
X134130190Y-85951740D01*
X134130190Y-85951740D02*
X133939714Y-85904121D01*
X133939714Y-85904121D02*
X133844476Y-85856502D01*
X133844476Y-85856502D02*
X133749238Y-85761264D01*
X133749238Y-85761264D02*
X133701619Y-85618407D01*
X133701619Y-85618407D02*
X133701619Y-85523169D01*
X133701619Y-85523169D02*
X133749238Y-85380312D01*
X133749238Y-85380312D02*
X133796857Y-85332693D01*
X134701619Y-84380312D02*
X134701619Y-84951740D01*
X134701619Y-84666026D02*
X133701619Y-84666026D01*
X133701619Y-84666026D02*
X133844476Y-84761264D01*
X133844476Y-84761264D02*
X133939714Y-84856502D01*
X133939714Y-84856502D02*
X133987333Y-84951740D01*
X134701619Y-83904121D02*
X134701619Y-83713645D01*
X134701619Y-83713645D02*
X134654000Y-83618407D01*
X134654000Y-83618407D02*
X134606380Y-83570788D01*
X134606380Y-83570788D02*
X134463523Y-83475550D01*
X134463523Y-83475550D02*
X134273047Y-83427931D01*
X134273047Y-83427931D02*
X133892095Y-83427931D01*
X133892095Y-83427931D02*
X133796857Y-83475550D01*
X133796857Y-83475550D02*
X133749238Y-83523169D01*
X133749238Y-83523169D02*
X133701619Y-83618407D01*
X133701619Y-83618407D02*
X133701619Y-83808883D01*
X133701619Y-83808883D02*
X133749238Y-83904121D01*
X133749238Y-83904121D02*
X133796857Y-83951740D01*
X133796857Y-83951740D02*
X133892095Y-83999359D01*
X133892095Y-83999359D02*
X134130190Y-83999359D01*
X134130190Y-83999359D02*
X134225428Y-83951740D01*
X134225428Y-83951740D02*
X134273047Y-83904121D01*
X134273047Y-83904121D02*
X134320666Y-83808883D01*
X134320666Y-83808883D02*
X134320666Y-83618407D01*
X134320666Y-83618407D02*
X134273047Y-83523169D01*
X134273047Y-83523169D02*
X134225428Y-83475550D01*
X134225428Y-83475550D02*
X134130190Y-83427931D01*
%TO.C,D3*%
X174811905Y-106392619D02*
X174811905Y-105392619D01*
X174811905Y-105392619D02*
X175050000Y-105392619D01*
X175050000Y-105392619D02*
X175192857Y-105440238D01*
X175192857Y-105440238D02*
X175288095Y-105535476D01*
X175288095Y-105535476D02*
X175335714Y-105630714D01*
X175335714Y-105630714D02*
X175383333Y-105821190D01*
X175383333Y-105821190D02*
X175383333Y-105964047D01*
X175383333Y-105964047D02*
X175335714Y-106154523D01*
X175335714Y-106154523D02*
X175288095Y-106249761D01*
X175288095Y-106249761D02*
X175192857Y-106345000D01*
X175192857Y-106345000D02*
X175050000Y-106392619D01*
X175050000Y-106392619D02*
X174811905Y-106392619D01*
X175716667Y-105392619D02*
X176335714Y-105392619D01*
X176335714Y-105392619D02*
X176002381Y-105773571D01*
X176002381Y-105773571D02*
X176145238Y-105773571D01*
X176145238Y-105773571D02*
X176240476Y-105821190D01*
X176240476Y-105821190D02*
X176288095Y-105868809D01*
X176288095Y-105868809D02*
X176335714Y-105964047D01*
X176335714Y-105964047D02*
X176335714Y-106202142D01*
X176335714Y-106202142D02*
X176288095Y-106297380D01*
X176288095Y-106297380D02*
X176240476Y-106345000D01*
X176240476Y-106345000D02*
X176145238Y-106392619D01*
X176145238Y-106392619D02*
X175859524Y-106392619D01*
X175859524Y-106392619D02*
X175764286Y-106345000D01*
X175764286Y-106345000D02*
X175716667Y-106297380D01*
%TO.C,C2*%
X141867380Y-76266666D02*
X141915000Y-76314285D01*
X141915000Y-76314285D02*
X141962619Y-76457142D01*
X141962619Y-76457142D02*
X141962619Y-76552380D01*
X141962619Y-76552380D02*
X141915000Y-76695237D01*
X141915000Y-76695237D02*
X141819761Y-76790475D01*
X141819761Y-76790475D02*
X141724523Y-76838094D01*
X141724523Y-76838094D02*
X141534047Y-76885713D01*
X141534047Y-76885713D02*
X141391190Y-76885713D01*
X141391190Y-76885713D02*
X141200714Y-76838094D01*
X141200714Y-76838094D02*
X141105476Y-76790475D01*
X141105476Y-76790475D02*
X141010238Y-76695237D01*
X141010238Y-76695237D02*
X140962619Y-76552380D01*
X140962619Y-76552380D02*
X140962619Y-76457142D01*
X140962619Y-76457142D02*
X141010238Y-76314285D01*
X141010238Y-76314285D02*
X141057857Y-76266666D01*
X141057857Y-75885713D02*
X141010238Y-75838094D01*
X141010238Y-75838094D02*
X140962619Y-75742856D01*
X140962619Y-75742856D02*
X140962619Y-75504761D01*
X140962619Y-75504761D02*
X141010238Y-75409523D01*
X141010238Y-75409523D02*
X141057857Y-75361904D01*
X141057857Y-75361904D02*
X141153095Y-75314285D01*
X141153095Y-75314285D02*
X141248333Y-75314285D01*
X141248333Y-75314285D02*
X141391190Y-75361904D01*
X141391190Y-75361904D02*
X141962619Y-75933332D01*
X141962619Y-75933332D02*
X141962619Y-75314285D01*
%TO.C,SW22*%
X145891476Y-84616000D02*
X146034333Y-84663619D01*
X146034333Y-84663619D02*
X146272428Y-84663619D01*
X146272428Y-84663619D02*
X146367666Y-84616000D01*
X146367666Y-84616000D02*
X146415285Y-84568380D01*
X146415285Y-84568380D02*
X146462904Y-84473142D01*
X146462904Y-84473142D02*
X146462904Y-84377904D01*
X146462904Y-84377904D02*
X146415285Y-84282666D01*
X146415285Y-84282666D02*
X146367666Y-84235047D01*
X146367666Y-84235047D02*
X146272428Y-84187428D01*
X146272428Y-84187428D02*
X146081952Y-84139809D01*
X146081952Y-84139809D02*
X145986714Y-84092190D01*
X145986714Y-84092190D02*
X145939095Y-84044571D01*
X145939095Y-84044571D02*
X145891476Y-83949333D01*
X145891476Y-83949333D02*
X145891476Y-83854095D01*
X145891476Y-83854095D02*
X145939095Y-83758857D01*
X145939095Y-83758857D02*
X145986714Y-83711238D01*
X145986714Y-83711238D02*
X146081952Y-83663619D01*
X146081952Y-83663619D02*
X146320047Y-83663619D01*
X146320047Y-83663619D02*
X146462904Y-83711238D01*
X146796238Y-83663619D02*
X147034333Y-84663619D01*
X147034333Y-84663619D02*
X147224809Y-83949333D01*
X147224809Y-83949333D02*
X147415285Y-84663619D01*
X147415285Y-84663619D02*
X147653381Y-83663619D01*
X147986714Y-83758857D02*
X148034333Y-83711238D01*
X148034333Y-83711238D02*
X148129571Y-83663619D01*
X148129571Y-83663619D02*
X148367666Y-83663619D01*
X148367666Y-83663619D02*
X148462904Y-83711238D01*
X148462904Y-83711238D02*
X148510523Y-83758857D01*
X148510523Y-83758857D02*
X148558142Y-83854095D01*
X148558142Y-83854095D02*
X148558142Y-83949333D01*
X148558142Y-83949333D02*
X148510523Y-84092190D01*
X148510523Y-84092190D02*
X147939095Y-84663619D01*
X147939095Y-84663619D02*
X148558142Y-84663619D01*
X148939095Y-83758857D02*
X148986714Y-83711238D01*
X148986714Y-83711238D02*
X149081952Y-83663619D01*
X149081952Y-83663619D02*
X149320047Y-83663619D01*
X149320047Y-83663619D02*
X149415285Y-83711238D01*
X149415285Y-83711238D02*
X149462904Y-83758857D01*
X149462904Y-83758857D02*
X149510523Y-83854095D01*
X149510523Y-83854095D02*
X149510523Y-83949333D01*
X149510523Y-83949333D02*
X149462904Y-84092190D01*
X149462904Y-84092190D02*
X148891476Y-84663619D01*
X148891476Y-84663619D02*
X149510523Y-84663619D01*
%TO.C,R7*%
X124990333Y-100722619D02*
X124657000Y-100246428D01*
X124418905Y-100722619D02*
X124418905Y-99722619D01*
X124418905Y-99722619D02*
X124799857Y-99722619D01*
X124799857Y-99722619D02*
X124895095Y-99770238D01*
X124895095Y-99770238D02*
X124942714Y-99817857D01*
X124942714Y-99817857D02*
X124990333Y-99913095D01*
X124990333Y-99913095D02*
X124990333Y-100055952D01*
X124990333Y-100055952D02*
X124942714Y-100151190D01*
X124942714Y-100151190D02*
X124895095Y-100198809D01*
X124895095Y-100198809D02*
X124799857Y-100246428D01*
X124799857Y-100246428D02*
X124418905Y-100246428D01*
X125323667Y-99722619D02*
X125990333Y-99722619D01*
X125990333Y-99722619D02*
X125561762Y-100722619D01*
%TO.C,R9*%
X134834333Y-99014619D02*
X134501000Y-98538428D01*
X134262905Y-99014619D02*
X134262905Y-98014619D01*
X134262905Y-98014619D02*
X134643857Y-98014619D01*
X134643857Y-98014619D02*
X134739095Y-98062238D01*
X134739095Y-98062238D02*
X134786714Y-98109857D01*
X134786714Y-98109857D02*
X134834333Y-98205095D01*
X134834333Y-98205095D02*
X134834333Y-98347952D01*
X134834333Y-98347952D02*
X134786714Y-98443190D01*
X134786714Y-98443190D02*
X134739095Y-98490809D01*
X134739095Y-98490809D02*
X134643857Y-98538428D01*
X134643857Y-98538428D02*
X134262905Y-98538428D01*
X135310524Y-99014619D02*
X135501000Y-99014619D01*
X135501000Y-99014619D02*
X135596238Y-98967000D01*
X135596238Y-98967000D02*
X135643857Y-98919380D01*
X135643857Y-98919380D02*
X135739095Y-98776523D01*
X135739095Y-98776523D02*
X135786714Y-98586047D01*
X135786714Y-98586047D02*
X135786714Y-98205095D01*
X135786714Y-98205095D02*
X135739095Y-98109857D01*
X135739095Y-98109857D02*
X135691476Y-98062238D01*
X135691476Y-98062238D02*
X135596238Y-98014619D01*
X135596238Y-98014619D02*
X135405762Y-98014619D01*
X135405762Y-98014619D02*
X135310524Y-98062238D01*
X135310524Y-98062238D02*
X135262905Y-98109857D01*
X135262905Y-98109857D02*
X135215286Y-98205095D01*
X135215286Y-98205095D02*
X135215286Y-98443190D01*
X135215286Y-98443190D02*
X135262905Y-98538428D01*
X135262905Y-98538428D02*
X135310524Y-98586047D01*
X135310524Y-98586047D02*
X135405762Y-98633666D01*
X135405762Y-98633666D02*
X135596238Y-98633666D01*
X135596238Y-98633666D02*
X135691476Y-98586047D01*
X135691476Y-98586047D02*
X135739095Y-98538428D01*
X135739095Y-98538428D02*
X135786714Y-98443190D01*
%TO.C,C23*%
X124827380Y-87129857D02*
X124875000Y-87177476D01*
X124875000Y-87177476D02*
X124922619Y-87320333D01*
X124922619Y-87320333D02*
X124922619Y-87415571D01*
X124922619Y-87415571D02*
X124875000Y-87558428D01*
X124875000Y-87558428D02*
X124779761Y-87653666D01*
X124779761Y-87653666D02*
X124684523Y-87701285D01*
X124684523Y-87701285D02*
X124494047Y-87748904D01*
X124494047Y-87748904D02*
X124351190Y-87748904D01*
X124351190Y-87748904D02*
X124160714Y-87701285D01*
X124160714Y-87701285D02*
X124065476Y-87653666D01*
X124065476Y-87653666D02*
X123970238Y-87558428D01*
X123970238Y-87558428D02*
X123922619Y-87415571D01*
X123922619Y-87415571D02*
X123922619Y-87320333D01*
X123922619Y-87320333D02*
X123970238Y-87177476D01*
X123970238Y-87177476D02*
X124017857Y-87129857D01*
X124017857Y-86748904D02*
X123970238Y-86701285D01*
X123970238Y-86701285D02*
X123922619Y-86606047D01*
X123922619Y-86606047D02*
X123922619Y-86367952D01*
X123922619Y-86367952D02*
X123970238Y-86272714D01*
X123970238Y-86272714D02*
X124017857Y-86225095D01*
X124017857Y-86225095D02*
X124113095Y-86177476D01*
X124113095Y-86177476D02*
X124208333Y-86177476D01*
X124208333Y-86177476D02*
X124351190Y-86225095D01*
X124351190Y-86225095D02*
X124922619Y-86796523D01*
X124922619Y-86796523D02*
X124922619Y-86177476D01*
X123922619Y-85844142D02*
X123922619Y-85225095D01*
X123922619Y-85225095D02*
X124303571Y-85558428D01*
X124303571Y-85558428D02*
X124303571Y-85415571D01*
X124303571Y-85415571D02*
X124351190Y-85320333D01*
X124351190Y-85320333D02*
X124398809Y-85272714D01*
X124398809Y-85272714D02*
X124494047Y-85225095D01*
X124494047Y-85225095D02*
X124732142Y-85225095D01*
X124732142Y-85225095D02*
X124827380Y-85272714D01*
X124827380Y-85272714D02*
X124875000Y-85320333D01*
X124875000Y-85320333D02*
X124922619Y-85415571D01*
X124922619Y-85415571D02*
X124922619Y-85701285D01*
X124922619Y-85701285D02*
X124875000Y-85796523D01*
X124875000Y-85796523D02*
X124827380Y-85844142D01*
%TO.C,U2*%
X145956599Y-87765905D02*
X145384179Y-88338325D01*
X145384179Y-88338325D02*
X145350508Y-88439340D01*
X145350508Y-88439340D02*
X145350508Y-88506683D01*
X145350508Y-88506683D02*
X145384179Y-88607699D01*
X145384179Y-88607699D02*
X145518866Y-88742386D01*
X145518866Y-88742386D02*
X145619882Y-88776057D01*
X145619882Y-88776057D02*
X145687225Y-88776057D01*
X145687225Y-88776057D02*
X145788240Y-88742386D01*
X145788240Y-88742386D02*
X146360660Y-88169966D01*
X146596362Y-88540355D02*
X146663706Y-88540355D01*
X146663706Y-88540355D02*
X146764721Y-88574027D01*
X146764721Y-88574027D02*
X146933080Y-88742386D01*
X146933080Y-88742386D02*
X146966752Y-88843401D01*
X146966752Y-88843401D02*
X146966752Y-88910744D01*
X146966752Y-88910744D02*
X146933080Y-89011760D01*
X146933080Y-89011760D02*
X146865736Y-89079103D01*
X146865736Y-89079103D02*
X146731049Y-89146447D01*
X146731049Y-89146447D02*
X145922927Y-89146447D01*
X145922927Y-89146447D02*
X146360660Y-89584179D01*
%TO.C,U3*%
X131034619Y-109727904D02*
X131844142Y-109727904D01*
X131844142Y-109727904D02*
X131939380Y-109680285D01*
X131939380Y-109680285D02*
X131987000Y-109632666D01*
X131987000Y-109632666D02*
X132034619Y-109537428D01*
X132034619Y-109537428D02*
X132034619Y-109346952D01*
X132034619Y-109346952D02*
X131987000Y-109251714D01*
X131987000Y-109251714D02*
X131939380Y-109204095D01*
X131939380Y-109204095D02*
X131844142Y-109156476D01*
X131844142Y-109156476D02*
X131034619Y-109156476D01*
X131034619Y-108775523D02*
X131034619Y-108156476D01*
X131034619Y-108156476D02*
X131415571Y-108489809D01*
X131415571Y-108489809D02*
X131415571Y-108346952D01*
X131415571Y-108346952D02*
X131463190Y-108251714D01*
X131463190Y-108251714D02*
X131510809Y-108204095D01*
X131510809Y-108204095D02*
X131606047Y-108156476D01*
X131606047Y-108156476D02*
X131844142Y-108156476D01*
X131844142Y-108156476D02*
X131939380Y-108204095D01*
X131939380Y-108204095D02*
X131987000Y-108251714D01*
X131987000Y-108251714D02*
X132034619Y-108346952D01*
X132034619Y-108346952D02*
X132034619Y-108632666D01*
X132034619Y-108632666D02*
X131987000Y-108727904D01*
X131987000Y-108727904D02*
X131939380Y-108775523D01*
%TO.C,C15*%
X155757142Y-81467380D02*
X155709523Y-81515000D01*
X155709523Y-81515000D02*
X155566666Y-81562619D01*
X155566666Y-81562619D02*
X155471428Y-81562619D01*
X155471428Y-81562619D02*
X155328571Y-81515000D01*
X155328571Y-81515000D02*
X155233333Y-81419761D01*
X155233333Y-81419761D02*
X155185714Y-81324523D01*
X155185714Y-81324523D02*
X155138095Y-81134047D01*
X155138095Y-81134047D02*
X155138095Y-80991190D01*
X155138095Y-80991190D02*
X155185714Y-80800714D01*
X155185714Y-80800714D02*
X155233333Y-80705476D01*
X155233333Y-80705476D02*
X155328571Y-80610238D01*
X155328571Y-80610238D02*
X155471428Y-80562619D01*
X155471428Y-80562619D02*
X155566666Y-80562619D01*
X155566666Y-80562619D02*
X155709523Y-80610238D01*
X155709523Y-80610238D02*
X155757142Y-80657857D01*
X156709523Y-81562619D02*
X156138095Y-81562619D01*
X156423809Y-81562619D02*
X156423809Y-80562619D01*
X156423809Y-80562619D02*
X156328571Y-80705476D01*
X156328571Y-80705476D02*
X156233333Y-80800714D01*
X156233333Y-80800714D02*
X156138095Y-80848333D01*
X157614285Y-80562619D02*
X157138095Y-80562619D01*
X157138095Y-80562619D02*
X157090476Y-81038809D01*
X157090476Y-81038809D02*
X157138095Y-80991190D01*
X157138095Y-80991190D02*
X157233333Y-80943571D01*
X157233333Y-80943571D02*
X157471428Y-80943571D01*
X157471428Y-80943571D02*
X157566666Y-80991190D01*
X157566666Y-80991190D02*
X157614285Y-81038809D01*
X157614285Y-81038809D02*
X157661904Y-81134047D01*
X157661904Y-81134047D02*
X157661904Y-81372142D01*
X157661904Y-81372142D02*
X157614285Y-81467380D01*
X157614285Y-81467380D02*
X157566666Y-81515000D01*
X157566666Y-81515000D02*
X157471428Y-81562619D01*
X157471428Y-81562619D02*
X157233333Y-81562619D01*
X157233333Y-81562619D02*
X157138095Y-81515000D01*
X157138095Y-81515000D02*
X157090476Y-81467380D01*
%TO.C,C9*%
X134860380Y-107227666D02*
X134908000Y-107275285D01*
X134908000Y-107275285D02*
X134955619Y-107418142D01*
X134955619Y-107418142D02*
X134955619Y-107513380D01*
X134955619Y-107513380D02*
X134908000Y-107656237D01*
X134908000Y-107656237D02*
X134812761Y-107751475D01*
X134812761Y-107751475D02*
X134717523Y-107799094D01*
X134717523Y-107799094D02*
X134527047Y-107846713D01*
X134527047Y-107846713D02*
X134384190Y-107846713D01*
X134384190Y-107846713D02*
X134193714Y-107799094D01*
X134193714Y-107799094D02*
X134098476Y-107751475D01*
X134098476Y-107751475D02*
X134003238Y-107656237D01*
X134003238Y-107656237D02*
X133955619Y-107513380D01*
X133955619Y-107513380D02*
X133955619Y-107418142D01*
X133955619Y-107418142D02*
X134003238Y-107275285D01*
X134003238Y-107275285D02*
X134050857Y-107227666D01*
X134955619Y-106751475D02*
X134955619Y-106560999D01*
X134955619Y-106560999D02*
X134908000Y-106465761D01*
X134908000Y-106465761D02*
X134860380Y-106418142D01*
X134860380Y-106418142D02*
X134717523Y-106322904D01*
X134717523Y-106322904D02*
X134527047Y-106275285D01*
X134527047Y-106275285D02*
X134146095Y-106275285D01*
X134146095Y-106275285D02*
X134050857Y-106322904D01*
X134050857Y-106322904D02*
X134003238Y-106370523D01*
X134003238Y-106370523D02*
X133955619Y-106465761D01*
X133955619Y-106465761D02*
X133955619Y-106656237D01*
X133955619Y-106656237D02*
X134003238Y-106751475D01*
X134003238Y-106751475D02*
X134050857Y-106799094D01*
X134050857Y-106799094D02*
X134146095Y-106846713D01*
X134146095Y-106846713D02*
X134384190Y-106846713D01*
X134384190Y-106846713D02*
X134479428Y-106799094D01*
X134479428Y-106799094D02*
X134527047Y-106751475D01*
X134527047Y-106751475D02*
X134574666Y-106656237D01*
X134574666Y-106656237D02*
X134574666Y-106465761D01*
X134574666Y-106465761D02*
X134527047Y-106370523D01*
X134527047Y-106370523D02*
X134479428Y-106322904D01*
X134479428Y-106322904D02*
X134384190Y-106275285D01*
%TO.C,BT2*%
X111611190Y-106014285D02*
X111563571Y-106157142D01*
X111563571Y-106157142D02*
X111515952Y-106204761D01*
X111515952Y-106204761D02*
X111420714Y-106252380D01*
X111420714Y-106252380D02*
X111277857Y-106252380D01*
X111277857Y-106252380D02*
X111182619Y-106204761D01*
X111182619Y-106204761D02*
X111135000Y-106157142D01*
X111135000Y-106157142D02*
X111087380Y-106061904D01*
X111087380Y-106061904D02*
X111087380Y-105680952D01*
X111087380Y-105680952D02*
X112087380Y-105680952D01*
X112087380Y-105680952D02*
X112087380Y-106014285D01*
X112087380Y-106014285D02*
X112039761Y-106109523D01*
X112039761Y-106109523D02*
X111992142Y-106157142D01*
X111992142Y-106157142D02*
X111896904Y-106204761D01*
X111896904Y-106204761D02*
X111801666Y-106204761D01*
X111801666Y-106204761D02*
X111706428Y-106157142D01*
X111706428Y-106157142D02*
X111658809Y-106109523D01*
X111658809Y-106109523D02*
X111611190Y-106014285D01*
X111611190Y-106014285D02*
X111611190Y-105680952D01*
X112087380Y-106538095D02*
X112087380Y-107109523D01*
X111087380Y-106823809D02*
X112087380Y-106823809D01*
X111992142Y-107395238D02*
X112039761Y-107442857D01*
X112039761Y-107442857D02*
X112087380Y-107538095D01*
X112087380Y-107538095D02*
X112087380Y-107776190D01*
X112087380Y-107776190D02*
X112039761Y-107871428D01*
X112039761Y-107871428D02*
X111992142Y-107919047D01*
X111992142Y-107919047D02*
X111896904Y-107966666D01*
X111896904Y-107966666D02*
X111801666Y-107966666D01*
X111801666Y-107966666D02*
X111658809Y-107919047D01*
X111658809Y-107919047D02*
X111087380Y-107347619D01*
X111087380Y-107347619D02*
X111087380Y-107966666D01*
D11*
X166221428Y-106777500D02*
X165078571Y-106777500D01*
X117321428Y-106577500D02*
X116178571Y-106577500D01*
X116749999Y-106006071D02*
X116749999Y-107148928D01*
D10*
%TO.C,C4*%
X135215333Y-100189380D02*
X135167714Y-100237000D01*
X135167714Y-100237000D02*
X135024857Y-100284619D01*
X135024857Y-100284619D02*
X134929619Y-100284619D01*
X134929619Y-100284619D02*
X134786762Y-100237000D01*
X134786762Y-100237000D02*
X134691524Y-100141761D01*
X134691524Y-100141761D02*
X134643905Y-100046523D01*
X134643905Y-100046523D02*
X134596286Y-99856047D01*
X134596286Y-99856047D02*
X134596286Y-99713190D01*
X134596286Y-99713190D02*
X134643905Y-99522714D01*
X134643905Y-99522714D02*
X134691524Y-99427476D01*
X134691524Y-99427476D02*
X134786762Y-99332238D01*
X134786762Y-99332238D02*
X134929619Y-99284619D01*
X134929619Y-99284619D02*
X135024857Y-99284619D01*
X135024857Y-99284619D02*
X135167714Y-99332238D01*
X135167714Y-99332238D02*
X135215333Y-99379857D01*
X136072476Y-99617952D02*
X136072476Y-100284619D01*
X135834381Y-99237000D02*
X135596286Y-99951285D01*
X135596286Y-99951285D02*
X136215333Y-99951285D01*
%TO.C,Q1*%
X104804761Y-93157857D02*
X104709523Y-93110238D01*
X104709523Y-93110238D02*
X104614285Y-93015000D01*
X104614285Y-93015000D02*
X104471428Y-92872142D01*
X104471428Y-92872142D02*
X104376190Y-92824523D01*
X104376190Y-92824523D02*
X104280952Y-92824523D01*
X104328571Y-93062619D02*
X104233333Y-93015000D01*
X104233333Y-93015000D02*
X104138095Y-92919761D01*
X104138095Y-92919761D02*
X104090476Y-92729285D01*
X104090476Y-92729285D02*
X104090476Y-92395952D01*
X104090476Y-92395952D02*
X104138095Y-92205476D01*
X104138095Y-92205476D02*
X104233333Y-92110238D01*
X104233333Y-92110238D02*
X104328571Y-92062619D01*
X104328571Y-92062619D02*
X104519047Y-92062619D01*
X104519047Y-92062619D02*
X104614285Y-92110238D01*
X104614285Y-92110238D02*
X104709523Y-92205476D01*
X104709523Y-92205476D02*
X104757142Y-92395952D01*
X104757142Y-92395952D02*
X104757142Y-92729285D01*
X104757142Y-92729285D02*
X104709523Y-92919761D01*
X104709523Y-92919761D02*
X104614285Y-93015000D01*
X104614285Y-93015000D02*
X104519047Y-93062619D01*
X104519047Y-93062619D02*
X104328571Y-93062619D01*
X105709523Y-93062619D02*
X105138095Y-93062619D01*
X105423809Y-93062619D02*
X105423809Y-92062619D01*
X105423809Y-92062619D02*
X105328571Y-92205476D01*
X105328571Y-92205476D02*
X105233333Y-92300714D01*
X105233333Y-92300714D02*
X105138095Y-92348333D01*
%TO.C,R4*%
X178533333Y-105462619D02*
X178200000Y-104986428D01*
X177961905Y-105462619D02*
X177961905Y-104462619D01*
X177961905Y-104462619D02*
X178342857Y-104462619D01*
X178342857Y-104462619D02*
X178438095Y-104510238D01*
X178438095Y-104510238D02*
X178485714Y-104557857D01*
X178485714Y-104557857D02*
X178533333Y-104653095D01*
X178533333Y-104653095D02*
X178533333Y-104795952D01*
X178533333Y-104795952D02*
X178485714Y-104891190D01*
X178485714Y-104891190D02*
X178438095Y-104938809D01*
X178438095Y-104938809D02*
X178342857Y-104986428D01*
X178342857Y-104986428D02*
X177961905Y-104986428D01*
X179390476Y-104795952D02*
X179390476Y-105462619D01*
X179152381Y-104415000D02*
X178914286Y-105129285D01*
X178914286Y-105129285D02*
X179533333Y-105129285D01*
%TO.C,L2*%
X164133333Y-79362619D02*
X163657143Y-79362619D01*
X163657143Y-79362619D02*
X163657143Y-78362619D01*
X164419048Y-78457857D02*
X164466667Y-78410238D01*
X164466667Y-78410238D02*
X164561905Y-78362619D01*
X164561905Y-78362619D02*
X164800000Y-78362619D01*
X164800000Y-78362619D02*
X164895238Y-78410238D01*
X164895238Y-78410238D02*
X164942857Y-78457857D01*
X164942857Y-78457857D02*
X164990476Y-78553095D01*
X164990476Y-78553095D02*
X164990476Y-78648333D01*
X164990476Y-78648333D02*
X164942857Y-78791190D01*
X164942857Y-78791190D02*
X164371429Y-79362619D01*
X164371429Y-79362619D02*
X164990476Y-79362619D01*
%TO.C,C21*%
X172882142Y-75367380D02*
X172834523Y-75415000D01*
X172834523Y-75415000D02*
X172691666Y-75462619D01*
X172691666Y-75462619D02*
X172596428Y-75462619D01*
X172596428Y-75462619D02*
X172453571Y-75415000D01*
X172453571Y-75415000D02*
X172358333Y-75319761D01*
X172358333Y-75319761D02*
X172310714Y-75224523D01*
X172310714Y-75224523D02*
X172263095Y-75034047D01*
X172263095Y-75034047D02*
X172263095Y-74891190D01*
X172263095Y-74891190D02*
X172310714Y-74700714D01*
X172310714Y-74700714D02*
X172358333Y-74605476D01*
X172358333Y-74605476D02*
X172453571Y-74510238D01*
X172453571Y-74510238D02*
X172596428Y-74462619D01*
X172596428Y-74462619D02*
X172691666Y-74462619D01*
X172691666Y-74462619D02*
X172834523Y-74510238D01*
X172834523Y-74510238D02*
X172882142Y-74557857D01*
X173263095Y-74557857D02*
X173310714Y-74510238D01*
X173310714Y-74510238D02*
X173405952Y-74462619D01*
X173405952Y-74462619D02*
X173644047Y-74462619D01*
X173644047Y-74462619D02*
X173739285Y-74510238D01*
X173739285Y-74510238D02*
X173786904Y-74557857D01*
X173786904Y-74557857D02*
X173834523Y-74653095D01*
X173834523Y-74653095D02*
X173834523Y-74748333D01*
X173834523Y-74748333D02*
X173786904Y-74891190D01*
X173786904Y-74891190D02*
X173215476Y-75462619D01*
X173215476Y-75462619D02*
X173834523Y-75462619D01*
X174786904Y-75462619D02*
X174215476Y-75462619D01*
X174501190Y-75462619D02*
X174501190Y-74462619D01*
X174501190Y-74462619D02*
X174405952Y-74605476D01*
X174405952Y-74605476D02*
X174310714Y-74700714D01*
X174310714Y-74700714D02*
X174215476Y-74748333D01*
%TO.C,C14*%
X126183380Y-110135857D02*
X126231000Y-110183476D01*
X126231000Y-110183476D02*
X126278619Y-110326333D01*
X126278619Y-110326333D02*
X126278619Y-110421571D01*
X126278619Y-110421571D02*
X126231000Y-110564428D01*
X126231000Y-110564428D02*
X126135761Y-110659666D01*
X126135761Y-110659666D02*
X126040523Y-110707285D01*
X126040523Y-110707285D02*
X125850047Y-110754904D01*
X125850047Y-110754904D02*
X125707190Y-110754904D01*
X125707190Y-110754904D02*
X125516714Y-110707285D01*
X125516714Y-110707285D02*
X125421476Y-110659666D01*
X125421476Y-110659666D02*
X125326238Y-110564428D01*
X125326238Y-110564428D02*
X125278619Y-110421571D01*
X125278619Y-110421571D02*
X125278619Y-110326333D01*
X125278619Y-110326333D02*
X125326238Y-110183476D01*
X125326238Y-110183476D02*
X125373857Y-110135857D01*
X126278619Y-109183476D02*
X126278619Y-109754904D01*
X126278619Y-109469190D02*
X125278619Y-109469190D01*
X125278619Y-109469190D02*
X125421476Y-109564428D01*
X125421476Y-109564428D02*
X125516714Y-109659666D01*
X125516714Y-109659666D02*
X125564333Y-109754904D01*
X125611952Y-108326333D02*
X126278619Y-108326333D01*
X125231000Y-108564428D02*
X125945285Y-108802523D01*
X125945285Y-108802523D02*
X125945285Y-108183476D01*
%TO.C,C12*%
X117924142Y-108638380D02*
X117876523Y-108686000D01*
X117876523Y-108686000D02*
X117733666Y-108733619D01*
X117733666Y-108733619D02*
X117638428Y-108733619D01*
X117638428Y-108733619D02*
X117495571Y-108686000D01*
X117495571Y-108686000D02*
X117400333Y-108590761D01*
X117400333Y-108590761D02*
X117352714Y-108495523D01*
X117352714Y-108495523D02*
X117305095Y-108305047D01*
X117305095Y-108305047D02*
X117305095Y-108162190D01*
X117305095Y-108162190D02*
X117352714Y-107971714D01*
X117352714Y-107971714D02*
X117400333Y-107876476D01*
X117400333Y-107876476D02*
X117495571Y-107781238D01*
X117495571Y-107781238D02*
X117638428Y-107733619D01*
X117638428Y-107733619D02*
X117733666Y-107733619D01*
X117733666Y-107733619D02*
X117876523Y-107781238D01*
X117876523Y-107781238D02*
X117924142Y-107828857D01*
X118876523Y-108733619D02*
X118305095Y-108733619D01*
X118590809Y-108733619D02*
X118590809Y-107733619D01*
X118590809Y-107733619D02*
X118495571Y-107876476D01*
X118495571Y-107876476D02*
X118400333Y-107971714D01*
X118400333Y-107971714D02*
X118305095Y-108019333D01*
X119257476Y-107828857D02*
X119305095Y-107781238D01*
X119305095Y-107781238D02*
X119400333Y-107733619D01*
X119400333Y-107733619D02*
X119638428Y-107733619D01*
X119638428Y-107733619D02*
X119733666Y-107781238D01*
X119733666Y-107781238D02*
X119781285Y-107828857D01*
X119781285Y-107828857D02*
X119828904Y-107924095D01*
X119828904Y-107924095D02*
X119828904Y-108019333D01*
X119828904Y-108019333D02*
X119781285Y-108162190D01*
X119781285Y-108162190D02*
X119209857Y-108733619D01*
X119209857Y-108733619D02*
X119828904Y-108733619D01*
%TO.C,R3*%
X173192619Y-108046666D02*
X172716428Y-108379999D01*
X173192619Y-108618094D02*
X172192619Y-108618094D01*
X172192619Y-108618094D02*
X172192619Y-108237142D01*
X172192619Y-108237142D02*
X172240238Y-108141904D01*
X172240238Y-108141904D02*
X172287857Y-108094285D01*
X172287857Y-108094285D02*
X172383095Y-108046666D01*
X172383095Y-108046666D02*
X172525952Y-108046666D01*
X172525952Y-108046666D02*
X172621190Y-108094285D01*
X172621190Y-108094285D02*
X172668809Y-108141904D01*
X172668809Y-108141904D02*
X172716428Y-108237142D01*
X172716428Y-108237142D02*
X172716428Y-108618094D01*
X172192619Y-107713332D02*
X172192619Y-107094285D01*
X172192619Y-107094285D02*
X172573571Y-107427618D01*
X172573571Y-107427618D02*
X172573571Y-107284761D01*
X172573571Y-107284761D02*
X172621190Y-107189523D01*
X172621190Y-107189523D02*
X172668809Y-107141904D01*
X172668809Y-107141904D02*
X172764047Y-107094285D01*
X172764047Y-107094285D02*
X173002142Y-107094285D01*
X173002142Y-107094285D02*
X173097380Y-107141904D01*
X173097380Y-107141904D02*
X173145000Y-107189523D01*
X173145000Y-107189523D02*
X173192619Y-107284761D01*
X173192619Y-107284761D02*
X173192619Y-107570475D01*
X173192619Y-107570475D02*
X173145000Y-107665713D01*
X173145000Y-107665713D02*
X173097380Y-107713332D01*
%TO.C,C1*%
X138007380Y-87166666D02*
X138055000Y-87214285D01*
X138055000Y-87214285D02*
X138102619Y-87357142D01*
X138102619Y-87357142D02*
X138102619Y-87452380D01*
X138102619Y-87452380D02*
X138055000Y-87595237D01*
X138055000Y-87595237D02*
X137959761Y-87690475D01*
X137959761Y-87690475D02*
X137864523Y-87738094D01*
X137864523Y-87738094D02*
X137674047Y-87785713D01*
X137674047Y-87785713D02*
X137531190Y-87785713D01*
X137531190Y-87785713D02*
X137340714Y-87738094D01*
X137340714Y-87738094D02*
X137245476Y-87690475D01*
X137245476Y-87690475D02*
X137150238Y-87595237D01*
X137150238Y-87595237D02*
X137102619Y-87452380D01*
X137102619Y-87452380D02*
X137102619Y-87357142D01*
X137102619Y-87357142D02*
X137150238Y-87214285D01*
X137150238Y-87214285D02*
X137197857Y-87166666D01*
X138102619Y-86214285D02*
X138102619Y-86785713D01*
X138102619Y-86499999D02*
X137102619Y-86499999D01*
X137102619Y-86499999D02*
X137245476Y-86595237D01*
X137245476Y-86595237D02*
X137340714Y-86690475D01*
X137340714Y-86690475D02*
X137388333Y-86785713D01*
%TO.C,R13*%
X122255619Y-105671857D02*
X121779428Y-106005190D01*
X122255619Y-106243285D02*
X121255619Y-106243285D01*
X121255619Y-106243285D02*
X121255619Y-105862333D01*
X121255619Y-105862333D02*
X121303238Y-105767095D01*
X121303238Y-105767095D02*
X121350857Y-105719476D01*
X121350857Y-105719476D02*
X121446095Y-105671857D01*
X121446095Y-105671857D02*
X121588952Y-105671857D01*
X121588952Y-105671857D02*
X121684190Y-105719476D01*
X121684190Y-105719476D02*
X121731809Y-105767095D01*
X121731809Y-105767095D02*
X121779428Y-105862333D01*
X121779428Y-105862333D02*
X121779428Y-106243285D01*
X122255619Y-104719476D02*
X122255619Y-105290904D01*
X122255619Y-105005190D02*
X121255619Y-105005190D01*
X121255619Y-105005190D02*
X121398476Y-105100428D01*
X121398476Y-105100428D02*
X121493714Y-105195666D01*
X121493714Y-105195666D02*
X121541333Y-105290904D01*
X121255619Y-104386142D02*
X121255619Y-103767095D01*
X121255619Y-103767095D02*
X121636571Y-104100428D01*
X121636571Y-104100428D02*
X121636571Y-103957571D01*
X121636571Y-103957571D02*
X121684190Y-103862333D01*
X121684190Y-103862333D02*
X121731809Y-103814714D01*
X121731809Y-103814714D02*
X121827047Y-103767095D01*
X121827047Y-103767095D02*
X122065142Y-103767095D01*
X122065142Y-103767095D02*
X122160380Y-103814714D01*
X122160380Y-103814714D02*
X122208000Y-103862333D01*
X122208000Y-103862333D02*
X122255619Y-103957571D01*
X122255619Y-103957571D02*
X122255619Y-104243285D01*
X122255619Y-104243285D02*
X122208000Y-104338523D01*
X122208000Y-104338523D02*
X122160380Y-104386142D01*
%TO.C,R22*%
X139862619Y-75642857D02*
X139386428Y-75976190D01*
X139862619Y-76214285D02*
X138862619Y-76214285D01*
X138862619Y-76214285D02*
X138862619Y-75833333D01*
X138862619Y-75833333D02*
X138910238Y-75738095D01*
X138910238Y-75738095D02*
X138957857Y-75690476D01*
X138957857Y-75690476D02*
X139053095Y-75642857D01*
X139053095Y-75642857D02*
X139195952Y-75642857D01*
X139195952Y-75642857D02*
X139291190Y-75690476D01*
X139291190Y-75690476D02*
X139338809Y-75738095D01*
X139338809Y-75738095D02*
X139386428Y-75833333D01*
X139386428Y-75833333D02*
X139386428Y-76214285D01*
X138957857Y-75261904D02*
X138910238Y-75214285D01*
X138910238Y-75214285D02*
X138862619Y-75119047D01*
X138862619Y-75119047D02*
X138862619Y-74880952D01*
X138862619Y-74880952D02*
X138910238Y-74785714D01*
X138910238Y-74785714D02*
X138957857Y-74738095D01*
X138957857Y-74738095D02*
X139053095Y-74690476D01*
X139053095Y-74690476D02*
X139148333Y-74690476D01*
X139148333Y-74690476D02*
X139291190Y-74738095D01*
X139291190Y-74738095D02*
X139862619Y-75309523D01*
X139862619Y-75309523D02*
X139862619Y-74690476D01*
X138957857Y-74309523D02*
X138910238Y-74261904D01*
X138910238Y-74261904D02*
X138862619Y-74166666D01*
X138862619Y-74166666D02*
X138862619Y-73928571D01*
X138862619Y-73928571D02*
X138910238Y-73833333D01*
X138910238Y-73833333D02*
X138957857Y-73785714D01*
X138957857Y-73785714D02*
X139053095Y-73738095D01*
X139053095Y-73738095D02*
X139148333Y-73738095D01*
X139148333Y-73738095D02*
X139291190Y-73785714D01*
X139291190Y-73785714D02*
X139862619Y-74357142D01*
X139862619Y-74357142D02*
X139862619Y-73738095D01*
%TO.C,R14*%
X130040142Y-110955619D02*
X129706809Y-110479428D01*
X129468714Y-110955619D02*
X129468714Y-109955619D01*
X129468714Y-109955619D02*
X129849666Y-109955619D01*
X129849666Y-109955619D02*
X129944904Y-110003238D01*
X129944904Y-110003238D02*
X129992523Y-110050857D01*
X129992523Y-110050857D02*
X130040142Y-110146095D01*
X130040142Y-110146095D02*
X130040142Y-110288952D01*
X130040142Y-110288952D02*
X129992523Y-110384190D01*
X129992523Y-110384190D02*
X129944904Y-110431809D01*
X129944904Y-110431809D02*
X129849666Y-110479428D01*
X129849666Y-110479428D02*
X129468714Y-110479428D01*
X130992523Y-110955619D02*
X130421095Y-110955619D01*
X130706809Y-110955619D02*
X130706809Y-109955619D01*
X130706809Y-109955619D02*
X130611571Y-110098476D01*
X130611571Y-110098476D02*
X130516333Y-110193714D01*
X130516333Y-110193714D02*
X130421095Y-110241333D01*
X131849666Y-110288952D02*
X131849666Y-110955619D01*
X131611571Y-109908000D02*
X131373476Y-110622285D01*
X131373476Y-110622285D02*
X131992523Y-110622285D01*
%TO.C,H1*%
X105438095Y-104662619D02*
X105438095Y-103662619D01*
X105438095Y-104138809D02*
X106009523Y-104138809D01*
X106009523Y-104662619D02*
X106009523Y-103662619D01*
X107009523Y-104662619D02*
X106438095Y-104662619D01*
X106723809Y-104662619D02*
X106723809Y-103662619D01*
X106723809Y-103662619D02*
X106628571Y-103805476D01*
X106628571Y-103805476D02*
X106533333Y-103900714D01*
X106533333Y-103900714D02*
X106438095Y-103948333D01*
%TO.C,BT1*%
X112411190Y-77214285D02*
X112363571Y-77357142D01*
X112363571Y-77357142D02*
X112315952Y-77404761D01*
X112315952Y-77404761D02*
X112220714Y-77452380D01*
X112220714Y-77452380D02*
X112077857Y-77452380D01*
X112077857Y-77452380D02*
X111982619Y-77404761D01*
X111982619Y-77404761D02*
X111935000Y-77357142D01*
X111935000Y-77357142D02*
X111887380Y-77261904D01*
X111887380Y-77261904D02*
X111887380Y-76880952D01*
X111887380Y-76880952D02*
X112887380Y-76880952D01*
X112887380Y-76880952D02*
X112887380Y-77214285D01*
X112887380Y-77214285D02*
X112839761Y-77309523D01*
X112839761Y-77309523D02*
X112792142Y-77357142D01*
X112792142Y-77357142D02*
X112696904Y-77404761D01*
X112696904Y-77404761D02*
X112601666Y-77404761D01*
X112601666Y-77404761D02*
X112506428Y-77357142D01*
X112506428Y-77357142D02*
X112458809Y-77309523D01*
X112458809Y-77309523D02*
X112411190Y-77214285D01*
X112411190Y-77214285D02*
X112411190Y-76880952D01*
X112887380Y-77738095D02*
X112887380Y-78309523D01*
X111887380Y-78023809D02*
X112887380Y-78023809D01*
X111887380Y-79166666D02*
X111887380Y-78595238D01*
X111887380Y-78880952D02*
X112887380Y-78880952D01*
X112887380Y-78880952D02*
X112744523Y-78785714D01*
X112744523Y-78785714D02*
X112649285Y-78690476D01*
X112649285Y-78690476D02*
X112601666Y-78595238D01*
D11*
X166678571Y-77422500D02*
X167821429Y-77422500D01*
X167250000Y-77993928D02*
X167250000Y-76851071D01*
X116128571Y-77722500D02*
X117271429Y-77722500D01*
D10*
%TO.C,R24*%
X139762619Y-84142857D02*
X139286428Y-84476190D01*
X139762619Y-84714285D02*
X138762619Y-84714285D01*
X138762619Y-84714285D02*
X138762619Y-84333333D01*
X138762619Y-84333333D02*
X138810238Y-84238095D01*
X138810238Y-84238095D02*
X138857857Y-84190476D01*
X138857857Y-84190476D02*
X138953095Y-84142857D01*
X138953095Y-84142857D02*
X139095952Y-84142857D01*
X139095952Y-84142857D02*
X139191190Y-84190476D01*
X139191190Y-84190476D02*
X139238809Y-84238095D01*
X139238809Y-84238095D02*
X139286428Y-84333333D01*
X139286428Y-84333333D02*
X139286428Y-84714285D01*
X138857857Y-83761904D02*
X138810238Y-83714285D01*
X138810238Y-83714285D02*
X138762619Y-83619047D01*
X138762619Y-83619047D02*
X138762619Y-83380952D01*
X138762619Y-83380952D02*
X138810238Y-83285714D01*
X138810238Y-83285714D02*
X138857857Y-83238095D01*
X138857857Y-83238095D02*
X138953095Y-83190476D01*
X138953095Y-83190476D02*
X139048333Y-83190476D01*
X139048333Y-83190476D02*
X139191190Y-83238095D01*
X139191190Y-83238095D02*
X139762619Y-83809523D01*
X139762619Y-83809523D02*
X139762619Y-83190476D01*
X139095952Y-82333333D02*
X139762619Y-82333333D01*
X138715000Y-82571428D02*
X139429285Y-82809523D01*
X139429285Y-82809523D02*
X139429285Y-82190476D01*
D12*
%TO.C,C5*%
X116400000Y-90210000D02*
X115400000Y-90210000D01*
X115900000Y-90710000D02*
X115900000Y-89710000D01*
X115160000Y-90995563D02*
X115160000Y-89210000D01*
X115160000Y-90995563D02*
X114095563Y-92060000D01*
X115160000Y-84404437D02*
X115160000Y-86190000D01*
X115160000Y-84404437D02*
X114095563Y-83340000D01*
X114095563Y-92060000D02*
X106440000Y-92060000D01*
X114095563Y-83340000D02*
X106440000Y-83340000D01*
X106440000Y-92060000D02*
X106440000Y-89210000D01*
X106440000Y-83340000D02*
X106440000Y-86190000D01*
%TO.C,U1*%
X117566564Y-81265809D02*
X121325335Y-79897728D01*
X117566564Y-81265809D02*
X119276665Y-85964272D01*
X123035436Y-84596191D02*
X121325335Y-79897728D01*
X119276665Y-85964272D02*
X123035436Y-84596191D01*
D13*
X116673135Y-81770202D02*
G75*
G03*
X116673135Y-81770202I-200000J0D01*
G01*
D12*
%TO.C,R5*%
X178320000Y-108133641D02*
X178320000Y-107826359D01*
X179080000Y-108133641D02*
X179080000Y-107826359D01*
%TO.C,SW11*%
X151182000Y-78130000D02*
X151182000Y-77480000D01*
X151182000Y-75080000D02*
X151182000Y-74430000D01*
X151182000Y-74430000D02*
X144982000Y-74430000D01*
X144982000Y-78130000D02*
X151182000Y-78130000D01*
X144982000Y-78130000D02*
X144982000Y-77480000D01*
X144982000Y-74430000D02*
X144982000Y-75080000D01*
%TO.C,R6*%
X123544359Y-102871000D02*
X123851641Y-102871000D01*
X123544359Y-103631000D02*
X123851641Y-103631000D01*
%TO.C,Q2*%
X131440000Y-78200000D02*
X131440000Y-79875000D01*
X131440000Y-78200000D02*
X131440000Y-77550000D01*
X134560000Y-78200000D02*
X134560000Y-78850000D01*
X134560000Y-78200000D02*
X134560000Y-77550000D01*
%TO.C,C3*%
X137562000Y-102539748D02*
X137562000Y-103962252D01*
X135742000Y-102539748D02*
X135742000Y-103962252D01*
%TO.C,RST1*%
X160900000Y-109950000D02*
X160900000Y-109300000D01*
X160900000Y-106900000D02*
X160900000Y-106250000D01*
X160900000Y-106250000D02*
X154700000Y-106250000D01*
X154700000Y-109950000D02*
X160900000Y-109950000D01*
X154700000Y-109950000D02*
X154700000Y-109300000D01*
X154700000Y-106250000D02*
X154700000Y-106900000D01*
%TO.C,C16*%
X163659420Y-76590000D02*
X163940580Y-76590000D01*
X163659420Y-77610000D02*
X163940580Y-77610000D01*
%TO.C,J2*%
X153984000Y-99755000D02*
X152654000Y-99755000D01*
X153984000Y-98425000D02*
X153984000Y-99755000D01*
X153984000Y-97155000D02*
X153984000Y-84395000D01*
X153984000Y-97155000D02*
X151324000Y-97155000D01*
X153984000Y-84395000D02*
X151324000Y-84395000D01*
X151324000Y-97155000D02*
X151324000Y-84395000D01*
%TO.C,R11*%
X152220000Y-107853641D02*
X152220000Y-107546359D01*
X152980000Y-107853641D02*
X152980000Y-107546359D01*
%TO.C,R16*%
X133153641Y-81680000D02*
X132846359Y-81680000D01*
X133153641Y-80920000D02*
X132846359Y-80920000D01*
%TO.C,R1*%
X109080000Y-95046359D02*
X109080000Y-95353641D01*
X108320000Y-95046359D02*
X108320000Y-95353641D01*
%TO.C,U4*%
X184970000Y-82630000D02*
X178990000Y-82630000D01*
X178990000Y-82630000D02*
X178990000Y-82130000D01*
X176200000Y-82630000D02*
X175160000Y-82630000D01*
X156030000Y-82630000D02*
X157150000Y-82630000D01*
X156030000Y-82630000D02*
X156030000Y-83780000D01*
X184970000Y-100370000D02*
X184970000Y-82630000D01*
X184970000Y-100370000D02*
X178990000Y-100370000D01*
X176200000Y-100370000D02*
X175160000Y-100370000D01*
X156030000Y-100370000D02*
X156030000Y-99220000D01*
X156030000Y-100370000D02*
X157150000Y-100370000D01*
%TO.C,L3*%
X160662779Y-77610000D02*
X160337221Y-77610000D01*
X160662779Y-76590000D02*
X160337221Y-76590000D01*
%TO.C,R12*%
X124586000Y-105383359D02*
X124586000Y-105690641D01*
X123826000Y-105383359D02*
X123826000Y-105690641D01*
%TO.C,R2*%
X119394500Y-89424742D02*
X119394500Y-89899258D01*
X118349500Y-89424742D02*
X118349500Y-89899258D01*
%TO.C,R15*%
X100696500Y-87637258D02*
X100696500Y-87162742D01*
X101741500Y-87637258D02*
X101741500Y-87162742D01*
%TO.C,C18*%
X154140000Y-79207836D02*
X154140000Y-78992164D01*
X154860000Y-79207836D02*
X154860000Y-78992164D01*
%TO.C,R23*%
X138280000Y-80746359D02*
X138280000Y-81053641D01*
X137520000Y-80746359D02*
X137520000Y-81053641D01*
%TO.C,R8*%
X132942359Y-98172000D02*
X133249641Y-98172000D01*
X132942359Y-98932000D02*
X133249641Y-98932000D01*
%TO.C,R10*%
X133376641Y-103250000D02*
X133069359Y-103250000D01*
X133376641Y-102490000D02*
X133069359Y-102490000D01*
%TO.C,R19*%
X137980000Y-77346359D02*
X137980000Y-77653641D01*
X137220000Y-77346359D02*
X137220000Y-77653641D01*
%TO.C,U5*%
X131416000Y-81912500D02*
X131416000Y-83052500D01*
X131646000Y-83052500D02*
X131416000Y-83052500D01*
X131646000Y-83052500D02*
X131646000Y-85772500D01*
X126926000Y-83052500D02*
X127156000Y-83052500D01*
X131646000Y-85772500D02*
X130336000Y-85772500D01*
X128236000Y-85772500D02*
X126926000Y-85772500D01*
X126926000Y-85772500D02*
X126926000Y-83052500D01*
%TO.C,C19*%
X132355000Y-84689836D02*
X132355000Y-84474164D01*
X133075000Y-84689836D02*
X133075000Y-84474164D01*
%TO.C,D3*%
X177250000Y-108930000D02*
X175150000Y-108930000D01*
X177250000Y-106830000D02*
X177250000Y-108930000D01*
X177250000Y-106830000D02*
X175150000Y-106830000D01*
X175150000Y-106830000D02*
X175150000Y-108930000D01*
D14*
X177700000Y-108980000D02*
G75*
G03*
X177700000Y-108980000I-100000J0D01*
G01*
D12*
%TO.C,C2*%
X140890000Y-78740580D02*
X140890000Y-78459420D01*
X141910000Y-78740580D02*
X141910000Y-78459420D01*
%TO.C,SW22*%
X151182000Y-83130000D02*
X151182000Y-82480000D01*
X151182000Y-80080000D02*
X151182000Y-79430000D01*
X151182000Y-79430000D02*
X144982000Y-79430000D01*
X144982000Y-83130000D02*
X151182000Y-83130000D01*
X144982000Y-83130000D02*
X144982000Y-82480000D01*
X144982000Y-79430000D02*
X144982000Y-80080000D01*
%TO.C,R7*%
X126010641Y-99440000D02*
X125703359Y-99440000D01*
X126010641Y-98680000D02*
X125703359Y-98680000D01*
%TO.C,R9*%
X132731742Y-100696500D02*
X133206258Y-100696500D01*
X132731742Y-101741500D02*
X133206258Y-101741500D01*
%TO.C,C23*%
X125860000Y-85650164D02*
X125860000Y-85865836D01*
X125140000Y-85650164D02*
X125140000Y-85865836D01*
%TO.C,U2*%
X141450001Y-86751483D02*
X141450000Y-88011483D01*
X142550000Y-86751483D02*
X141450001Y-86751483D01*
X142550001Y-88011483D02*
X142550000Y-86751483D01*
X141450364Y-88011442D02*
G75*
G03*
X142550001Y-88011484I549636J-4788558D01*
G01*
%TO.C,U3*%
X130957000Y-104394000D02*
X130957000Y-100944000D01*
X130957000Y-104394000D02*
X130957000Y-106344000D01*
X125837000Y-104394000D02*
X125837000Y-102444000D01*
X125837000Y-104394000D02*
X125837000Y-106344000D01*
D14*
X130638421Y-100494000D02*
G75*
G03*
X130638421Y-100494000I-141421J0D01*
G01*
D12*
%TO.C,C15*%
X155665000Y-78861252D02*
X155665000Y-78338748D01*
X157135000Y-78861252D02*
X157135000Y-78338748D01*
%TO.C,C9*%
X133498000Y-105206748D02*
X133498000Y-106629252D01*
X131678000Y-105206748D02*
X131678000Y-106629252D01*
%TO.C,C4*%
X133242164Y-99462000D02*
X133457836Y-99462000D01*
X133242164Y-100182000D02*
X133457836Y-100182000D01*
%TO.C,Q1*%
X104900000Y-96660000D02*
X106575000Y-96660000D01*
X104900000Y-96660000D02*
X104250000Y-96660000D01*
X104900000Y-93540000D02*
X105550000Y-93540000D01*
X104900000Y-93540000D02*
X104250000Y-93540000D01*
%TO.C,R4*%
X176745000Y-105233641D02*
X176745000Y-104926359D01*
X177505000Y-105233641D02*
X177505000Y-104926359D01*
%TO.C,C21*%
X174311252Y-77810000D02*
X172888748Y-77810000D01*
X174311252Y-75990000D02*
X172888748Y-75990000D01*
%TO.C,C14*%
X127875420Y-108583000D02*
X128156580Y-108583000D01*
X127875420Y-109603000D02*
X128156580Y-109603000D01*
%TO.C,C12*%
X121843748Y-107167000D02*
X123266252Y-107167000D01*
X121843748Y-108987000D02*
X123266252Y-108987000D01*
%TO.C,R3*%
X173520000Y-108033641D02*
X173520000Y-107726359D01*
X174280000Y-108033641D02*
X174280000Y-107726359D01*
%TO.C,C1*%
X138440000Y-87107836D02*
X138440000Y-86892164D01*
X139160000Y-87107836D02*
X139160000Y-86892164D01*
%TO.C,R13*%
X122683000Y-105690641D02*
X122683000Y-105383359D01*
X123443000Y-105690641D02*
X123443000Y-105383359D01*
%TO.C,R22*%
X139780000Y-77346359D02*
X139780000Y-77653641D01*
X139020000Y-77346359D02*
X139020000Y-77653641D01*
%TO.C,R14*%
X127862359Y-110113000D02*
X128169641Y-110113000D01*
X127862359Y-110873000D02*
X128169641Y-110873000D01*
%TO.C,R24*%
X139780000Y-80746359D02*
X139780000Y-81053641D01*
X139020000Y-80746359D02*
X139020000Y-81053641D01*
%TD*%
M02*
