%TF.GenerationSoftware,KiCad,Pcbnew,7.0.1*%
%TF.CreationDate,2023-06-12T22:14:20+07:00*%
%TF.ProjectId,Air Conditioner Energy Saver V7,41697220-436f-46e6-9469-74696f6e6572,rev?*%
%TF.SameCoordinates,Original*%
%TF.FileFunction,Copper,L2,Bot*%
%TF.FilePolarity,Positive*%
%FSLAX46Y46*%
G04 Gerber Fmt 4.6, Leading zero omitted, Abs format (unit mm)*
G04 Created by KiCad (PCBNEW 7.0.1) date 2023-06-12 22:14:20*
%MOMM*%
%LPD*%
G01*
G04 APERTURE LIST*
G04 Aperture macros list*
%AMRoundRect*
0 Rectangle with rounded corners*
0 $1 Rounding radius*
0 $2 $3 $4 $5 $6 $7 $8 $9 X,Y pos of 4 corners*
0 Add a 4 corners polygon primitive as box body*
4,1,4,$2,$3,$4,$5,$6,$7,$8,$9,$2,$3,0*
0 Add four circle primitives for the rounded corners*
1,1,$1+$1,$2,$3*
1,1,$1+$1,$4,$5*
1,1,$1+$1,$6,$7*
1,1,$1+$1,$8,$9*
0 Add four rect primitives between the rounded corners*
20,1,$1+$1,$2,$3,$4,$5,0*
20,1,$1+$1,$4,$5,$6,$7,0*
20,1,$1+$1,$6,$7,$8,$9,0*
20,1,$1+$1,$8,$9,$2,$3,0*%
%AMHorizOval*
0 Thick line with rounded ends*
0 $1 width*
0 $2 $3 position (X,Y) of the first rounded end (center of the circle)*
0 $4 $5 position (X,Y) of the second rounded end (center of the circle)*
0 Add line between two ends*
20,1,$1,$2,$3,$4,$5,0*
0 Add two circle primitives to create the rounded ends*
1,1,$1,$2,$3*
1,1,$1,$4,$5*%
G04 Aperture macros list end*
%TA.AperFunction,ComponentPad*%
%ADD10R,1.700000X1.700000*%
%TD*%
%TA.AperFunction,ComponentPad*%
%ADD11O,1.700000X1.700000*%
%TD*%
%TA.AperFunction,ComponentPad*%
%ADD12HorizOval,1.200000X0.141421X-0.141421X-0.141421X0.141421X0*%
%TD*%
%TA.AperFunction,ComponentPad*%
%ADD13HorizOval,1.200000X0.000000X0.000000X0.000000X0.000000X0*%
%TD*%
%TA.AperFunction,ComponentPad*%
%ADD14RoundRect,0.500000X-0.500000X2.250000X-0.500000X-2.250000X0.500000X-2.250000X0.500000X2.250000X0*%
%TD*%
%TA.AperFunction,ComponentPad*%
%ADD15RoundRect,0.500000X0.500000X-2.250000X0.500000X2.250000X-0.500000X2.250000X-0.500000X-2.250000X0*%
%TD*%
%TA.AperFunction,SMDPad,CuDef*%
%ADD16R,1.500000X1.500000*%
%TD*%
%TA.AperFunction,SMDPad,CuDef*%
%ADD17R,1.600000X2.000000*%
%TD*%
%TA.AperFunction,ComponentPad*%
%ADD18C,1.400000*%
%TD*%
%TA.AperFunction,ComponentPad*%
%ADD19R,1.800000X1.800000*%
%TD*%
%TA.AperFunction,ComponentPad*%
%ADD20C,1.800000*%
%TD*%
%TA.AperFunction,ViaPad*%
%ADD21C,0.800000*%
%TD*%
%TA.AperFunction,Conductor*%
%ADD22C,0.500000*%
%TD*%
%TA.AperFunction,Conductor*%
%ADD23C,0.254000*%
%TD*%
%TA.AperFunction,Conductor*%
%ADD24C,0.300000*%
%TD*%
%TA.AperFunction,Conductor*%
%ADD25C,0.250000*%
%TD*%
%TA.AperFunction,Conductor*%
%ADD26C,1.000000*%
%TD*%
G04 APERTURE END LIST*
D10*
%TO.P,J2,1,Pin_1*%
%TO.N,GND*%
X152654000Y-98425000D03*
D11*
%TO.P,J2,2,Pin_2*%
%TO.N,Net-(J2-Pad2)*%
X152654000Y-95885000D03*
%TO.P,J2,3,Pin_3*%
%TO.N,Net-(J2-Pad3)*%
X152654000Y-93345000D03*
%TO.P,J2,4,Pin_4*%
%TO.N,Net-(J2-Pad4)*%
X152654000Y-90805000D03*
%TO.P,J2,5,Pin_5*%
%TO.N,Net-(J2-Pad5)*%
X152654000Y-88265000D03*
%TO.P,J2,6,Pin_6*%
%TO.N,Net-(J2-Pad6)*%
X152654000Y-85725000D03*
%TD*%
D12*
%TO.P,U2,1,D*%
%TO.N,/OP_VCC*%
X140203949Y-91003949D03*
D13*
%TO.P,U2,2,S*%
%TO.N,Net-(R7-Pad1)*%
X140203949Y-94596051D03*
%TO.P,U2,3,G*%
%TO.N,GND*%
X143796051Y-94596051D03*
%TD*%
D14*
%TO.P,BT2,1,+*%
%TO.N,Net-(BT1-Pad2)*%
X114100000Y-106700000D03*
%TO.P,BT2,2,-*%
%TO.N,GND*%
X169150000Y-106700000D03*
%TD*%
D15*
%TO.P,BT1,1,+*%
%TO.N,+3V0*%
X169200000Y-77900000D03*
%TO.P,BT1,2,-*%
%TO.N,Net-(BT1-Pad2)*%
X114150000Y-77900000D03*
%TD*%
D16*
%TO.P,P17,1,1*%
%TO.N,Net-(P17-Pad1)*%
X166475000Y-95500000D03*
%TD*%
D17*
%TO.P,SW1,1,1*%
%TO.N,/SW1*%
X146113000Y-81567000D03*
%TO.P,SW1,2,2*%
%TO.N,Net-(R22-Pad1)*%
X146113000Y-76167000D03*
%TD*%
D16*
%TO.P,P31,1,1*%
%TO.N,Net-(P31-Pad1)*%
X163850000Y-89000000D03*
%TD*%
D10*
%TO.P,JP1,1,A*%
%TO.N,+1V8*%
X123793000Y-88773000D03*
D11*
%TO.P,JP1,2,C*%
%TO.N,Net-(JP1-Pad2)*%
X123793000Y-91313000D03*
%TO.P,JP1,3,B*%
%TO.N,/DEC4*%
X123793000Y-93853000D03*
%TD*%
D16*
%TO.P,P26,1,1*%
%TO.N,Net-(P26-Pad1)*%
X172175000Y-89000000D03*
%TD*%
D10*
%TO.P,J4,1,Pin_1*%
%TO.N,GND*%
X131286000Y-88186000D03*
D11*
%TO.P,J4,2,Pin_2*%
X131286000Y-90726000D03*
%TO.P,J4,3,Pin_3*%
X131286000Y-93266000D03*
%TO.P,J4,4,Pin_4*%
X131286000Y-95806000D03*
%TD*%
D16*
%TO.P,P22,1,1*%
%TO.N,Net-(P22-Pad1)*%
X169350000Y-95500000D03*
%TD*%
%TO.P,P25,1,1*%
%TO.N,Net-(P25-Pad1)*%
X174950000Y-89000000D03*
%TD*%
D17*
%TO.P,SW2,1,1*%
%TO.N,/SW2*%
X136313000Y-81567000D03*
%TO.P,SW2,2,2*%
%TO.N,Net-(R19-Pad1)*%
X136313000Y-76167000D03*
%TD*%
D10*
%TO.P,J1,1,Pin_1*%
%TO.N,GND*%
X119475000Y-93096000D03*
D11*
%TO.P,J1,2,Pin_2*%
%TO.N,/SWCLK*%
X119475000Y-95636000D03*
%TO.P,J1,3,Pin_3*%
%TO.N,/SWDIO*%
X119475000Y-98176000D03*
%TO.P,J1,4,Pin_4*%
%TO.N,/RESET*%
X119475000Y-100716000D03*
%TO.P,J1,5,Pin_5*%
%TO.N,+3V0*%
X119475000Y-103256000D03*
%TD*%
D10*
%TO.P,J5,1,Pin_1*%
%TO.N,GND*%
X145580000Y-109100000D03*
D11*
%TO.P,J5,2,Pin_2*%
%TO.N,/TX*%
X143040000Y-109100000D03*
%TO.P,J5,3,Pin_3*%
%TO.N,/RX*%
X140500000Y-109100000D03*
%TO.P,J5,4,Pin_4*%
%TO.N,+3V0*%
X137960000Y-109100000D03*
%TD*%
D16*
%TO.P,P3,1,1*%
%TO.N,Net-(P3-Pad1)*%
X160500000Y-92400000D03*
%TD*%
%TO.P,P2,1,1*%
%TO.N,/DRV_IR*%
X160400000Y-88900000D03*
%TD*%
%TO.P,P16,1,1*%
%TO.N,Net-(P16-Pad1)*%
X163600000Y-95500000D03*
%TD*%
%TO.P,P29,1,1*%
%TO.N,Net-(P29-Pad1)*%
X166625000Y-89000000D03*
%TD*%
%TO.P,P13,1,1*%
%TO.N,Net-(P13-Pad1)*%
X160400000Y-95650000D03*
%TD*%
%TO.P,P23,1,1*%
%TO.N,Net-(P23-Pad1)*%
X172225000Y-95500000D03*
%TD*%
D17*
%TO.P,RST2,1,1*%
%TO.N,GND*%
X163020000Y-79977000D03*
%TO.P,RST2,2,2*%
%TO.N,/RESET*%
X163020000Y-85377000D03*
%TD*%
D18*
%TO.P,JP2,1,A*%
%TO.N,+3V0*%
X127730000Y-89301000D03*
%TO.P,JP2,2,B*%
%TO.N,Net-(C19-Pad1)*%
X127730000Y-91841000D03*
%TD*%
D19*
%TO.P,D1,1,K*%
%TO.N,Net-(D1-Pad1)*%
X101254000Y-93731000D03*
D20*
%TO.P,D1,2,A*%
%TO.N,Net-(D1-Pad2)*%
X101254000Y-91191000D03*
%TD*%
D16*
%TO.P,P27,1,1*%
%TO.N,Net-(P27-Pad1)*%
X169400000Y-89000000D03*
%TD*%
%TO.P,P24,1,1*%
%TO.N,Net-(P24-Pad1)*%
X175100000Y-95500000D03*
%TD*%
D21*
%TO.N,GND*%
X162800000Y-107600000D03*
X144526000Y-86487000D03*
X175300000Y-79500000D03*
X172212000Y-109474000D03*
X104200000Y-82400000D03*
X178300000Y-75600000D03*
X118800000Y-77300000D03*
X177292000Y-86360000D03*
X166100000Y-78600000D03*
X141097000Y-103632000D03*
X150368000Y-109982000D03*
X103400000Y-98300000D03*
X127635000Y-75946000D03*
X135763000Y-90805000D03*
X142240000Y-81026000D03*
X105500000Y-98600000D03*
X133700000Y-85900000D03*
X100584000Y-108458000D03*
X107500000Y-85100000D03*
X158200000Y-77900000D03*
X118618000Y-109982000D03*
X122555000Y-99949000D03*
X100584000Y-103358000D03*
X106807000Y-108839000D03*
X148209000Y-77216000D03*
X134620000Y-81788000D03*
X107500000Y-93100000D03*
X154500000Y-77400000D03*
X146812000Y-96139000D03*
X178300000Y-78400000D03*
X100884000Y-99558000D03*
X151003000Y-78867000D03*
X121285000Y-83693000D03*
X131953000Y-76200000D03*
X109474000Y-97663000D03*
X135900000Y-106100000D03*
X177292000Y-92710000D03*
X105300000Y-90500000D03*
X107500000Y-82800000D03*
X128524000Y-97790000D03*
X109601000Y-92964000D03*
X102500000Y-100900000D03*
X178100000Y-79900000D03*
X102400000Y-105900000D03*
X122400000Y-75100000D03*
X122174000Y-86868000D03*
X175006000Y-102616000D03*
%TO.N,Net-(C2-Pad1)*%
X142748000Y-79375000D03*
X134300000Y-77300000D03*
%TO.N,/PIR*%
X148900000Y-90600000D03*
X157861000Y-89535000D03*
%TO.N,/OP_VCC*%
X123952000Y-96393000D03*
X131826000Y-109220000D03*
X131572000Y-103124000D03*
X121031000Y-88900000D03*
%TO.N,/RESET*%
X167800000Y-98500000D03*
X149860000Y-108204000D03*
X149860000Y-101981000D03*
X145669000Y-102489000D03*
%TO.N,/SWCLK*%
X147701000Y-106299000D03*
%TO.N,/SWDIO*%
X146812000Y-107061000D03*
%TO.N,/IR1*%
X158900000Y-94100000D03*
X122682000Y-97155000D03*
%TO.N,/LED_B*%
X154813000Y-105664000D03*
X154940000Y-101346000D03*
%TO.N,/LED_G*%
X177000000Y-96800000D03*
X177000000Y-103400000D03*
%TO.N,/LED_R*%
X177900000Y-97900000D03*
X178700000Y-106300000D03*
%TO.N,Net-(R19-Pad1)*%
X145288000Y-79121000D03*
X136398000Y-77851000D03*
%TO.N,Net-(R22-Pad1)*%
X143002000Y-76581000D03*
%TO.N,/SW2*%
X148300000Y-80300000D03*
X135255000Y-80010000D03*
X164846000Y-80645000D03*
%TO.N,/SW1*%
X153947576Y-81165500D03*
X140589000Y-81915000D03*
X166878000Y-84709000D03*
%TO.N,/IR_IN*%
X158700000Y-87884000D03*
X148463000Y-83566000D03*
%TO.N,+3V0*%
X152527000Y-76800000D03*
X150200000Y-88100000D03*
X128494812Y-78964812D03*
X108225000Y-91800000D03*
X138557000Y-75692000D03*
X150368000Y-84074000D03*
X152600000Y-105337000D03*
X152400000Y-101346000D03*
X109093000Y-100203000D03*
%TO.N,/DEC4*%
X125924000Y-74676000D03*
%TO.N,Net-(J2-Pad6)*%
X158800000Y-92100000D03*
%TO.N,Net-(P3-Pad1)*%
X160300000Y-90700000D03*
%TO.N,Net-(P13-Pad1)*%
X157988000Y-98298000D03*
%TO.N,Net-(P16-Pad1)*%
X161798000Y-97949020D03*
%TO.N,Net-(P17-Pad1)*%
X163195000Y-98044000D03*
%TO.N,/DRV_IR*%
X160400000Y-87300000D03*
X148209000Y-82550000D03*
%TO.N,Net-(P23-Pad1)*%
X173101000Y-98400000D03*
%TO.N,Net-(P24-Pad1)*%
X174371000Y-98425000D03*
%TO.N,Net-(P25-Pad1)*%
X174900000Y-87000000D03*
%TO.N,Net-(P26-Pad1)*%
X172100000Y-87000000D03*
%TO.N,Net-(P27-Pad1)*%
X169400000Y-86900000D03*
%TO.N,Net-(P29-Pad1)*%
X166500000Y-86900000D03*
%TO.N,Net-(P31-Pad1)*%
X163900000Y-87100000D03*
%TO.N,Net-(P22-Pad1)*%
X171704000Y-98425000D03*
%TD*%
D22*
%TO.N,Net-(C2-Pad1)*%
X142723000Y-79400000D02*
X136400000Y-79400000D01*
X142748000Y-79375000D02*
X142723000Y-79400000D01*
X136400000Y-79400000D02*
X134300000Y-77300000D01*
D23*
%TO.N,/PIR*%
X149965000Y-89535000D02*
X157861000Y-89535000D01*
X148900000Y-90600000D02*
X149965000Y-89535000D01*
D24*
%TO.N,/OP_VCC*%
X123952000Y-96139000D02*
X123952000Y-96393000D01*
X131699000Y-109093000D02*
X131699000Y-103251000D01*
X121031000Y-93218000D02*
X123952000Y-96139000D01*
X131699000Y-103251000D02*
X131572000Y-103124000D01*
X131826000Y-109220000D02*
X131699000Y-109093000D01*
X121031000Y-88900000D02*
X121031000Y-93218000D01*
D23*
%TO.N,/RESET*%
X127381000Y-101981000D02*
X124495489Y-99095489D01*
X167767000Y-93599000D02*
X165354000Y-91186000D01*
X121095511Y-99095489D02*
X119475000Y-100716000D01*
X167800000Y-98500000D02*
X167767000Y-98467000D01*
X149860000Y-101981000D02*
X151542480Y-100298520D01*
X124495489Y-99095489D02*
X121095511Y-99095489D01*
X167767000Y-98467000D02*
X167767000Y-93599000D01*
X166001480Y-100298520D02*
X167800000Y-98500000D01*
X163068000Y-91186000D02*
X162179000Y-90297000D01*
X162179000Y-90297000D02*
X162179000Y-86218000D01*
X145669000Y-102489000D02*
X145161000Y-101981000D01*
X165354000Y-91186000D02*
X163068000Y-91186000D01*
X149860000Y-108204000D02*
X149860000Y-101981000D01*
X151542480Y-100298520D02*
X166001480Y-100298520D01*
X145161000Y-101981000D02*
X127381000Y-101981000D01*
X162179000Y-86218000D02*
X163020000Y-85377000D01*
D24*
%TO.N,/SWCLK*%
X119475000Y-95636000D02*
X119475000Y-95726000D01*
X146508998Y-100711000D02*
X147701000Y-101903002D01*
X121666000Y-97917000D02*
X125658572Y-97917000D01*
X125658572Y-97917000D02*
X128452572Y-100711000D01*
X147701000Y-101903002D02*
X147701000Y-106299000D01*
X119475000Y-95726000D02*
X121666000Y-97917000D01*
X128452572Y-100711000D02*
X146508998Y-100711000D01*
%TO.N,/SWDIO*%
X146812000Y-102226520D02*
X145796000Y-101210520D01*
X145796000Y-101210520D02*
X133612480Y-101210520D01*
X125288969Y-98618969D02*
X119917969Y-98618969D01*
X146812000Y-107061000D02*
X146812000Y-102226520D01*
X127889000Y-101219000D02*
X125288969Y-98618969D01*
X133612480Y-101210520D02*
X133604000Y-101219000D01*
X133604000Y-101219000D02*
X127889000Y-101219000D01*
X119917969Y-98618969D02*
X119475000Y-98176000D01*
%TO.N,/IR1*%
X158900000Y-94973000D02*
X158900000Y-94100000D01*
X122682000Y-97155000D02*
X125603000Y-97155000D01*
X125603000Y-97155000D02*
X128270000Y-99822000D01*
X128270000Y-99822000D02*
X154051000Y-99822000D01*
X154051000Y-99822000D02*
X158900000Y-94973000D01*
%TO.N,/LED_B*%
X154940000Y-105537000D02*
X154813000Y-105664000D01*
X154940000Y-101346000D02*
X154940000Y-105537000D01*
%TO.N,/LED_G*%
X177000000Y-96800000D02*
X177000000Y-103400000D01*
%TO.N,/LED_R*%
X177900000Y-97900000D02*
X177900000Y-105500000D01*
X177900000Y-105500000D02*
X178700000Y-106300000D01*
%TO.N,Net-(R19-Pad1)*%
X136451000Y-77851000D02*
X136398000Y-77851000D01*
X144653000Y-78486000D02*
X137086000Y-78486000D01*
X137086000Y-78486000D02*
X136451000Y-77851000D01*
X145288000Y-79121000D02*
X144653000Y-78486000D01*
D25*
X136398000Y-76252000D02*
X136313000Y-76167000D01*
X136398000Y-77851000D02*
X136398000Y-76252000D01*
%TO.N,Net-(R22-Pad1)*%
X143170500Y-76749500D02*
X145530500Y-76749500D01*
X143002000Y-76581000D02*
X143170500Y-76749500D01*
X145530500Y-76749500D02*
X146113000Y-76167000D01*
%TO.N,/SW2*%
X136402500Y-81656500D02*
X137959000Y-80100000D01*
X154700000Y-80300000D02*
X148300000Y-80300000D01*
X135255000Y-80010000D02*
X136313000Y-81068000D01*
X148100000Y-80100000D02*
X148300000Y-80300000D01*
X162965520Y-82525480D02*
X156925480Y-82525480D01*
X136313000Y-81068000D02*
X136313000Y-81567000D01*
X156925480Y-82525480D02*
X154700000Y-80300000D01*
X164846000Y-80645000D02*
X162965520Y-82525480D01*
X137959000Y-80100000D02*
X148100000Y-80100000D01*
X136313000Y-81567000D02*
X136402500Y-81656500D01*
D24*
%TO.N,/SW1*%
X159200000Y-83000000D02*
X165169000Y-83000000D01*
X156728927Y-82999999D02*
X159200000Y-83000000D01*
X140589000Y-81915000D02*
X145765000Y-81915000D01*
X154881928Y-81153000D02*
X156728927Y-82999999D01*
X145765000Y-81915000D02*
X146527000Y-81153000D01*
X146527000Y-81153000D02*
X154881928Y-81153000D01*
X165169000Y-83000000D02*
X166878000Y-84709000D01*
%TO.N,/IR_IN*%
X149098000Y-82931000D02*
X148463000Y-83566000D01*
X158700000Y-87707000D02*
X153924000Y-82931000D01*
X153924000Y-82931000D02*
X149098000Y-82931000D01*
X158700000Y-87884000D02*
X158700000Y-87707000D01*
%TO.N,+3V0*%
X108249511Y-91824511D02*
X108225000Y-91800000D01*
D26*
X165700000Y-74400000D02*
X152300000Y-74400000D01*
X128500000Y-88531000D02*
X127730000Y-89301000D01*
X131300978Y-74400000D02*
X138579000Y-74400000D01*
X152527000Y-74627000D02*
X152527000Y-76800000D01*
X152300000Y-74400000D02*
X152527000Y-74627000D01*
X128500000Y-82169000D02*
X128500000Y-88531000D01*
D24*
X109093000Y-100203000D02*
X108249511Y-99359511D01*
D22*
X152527000Y-105264000D02*
X152600000Y-105337000D01*
D24*
X108249511Y-99359511D02*
X108249511Y-91824511D01*
D26*
X128500000Y-82169000D02*
X128500000Y-77200978D01*
D22*
X150368000Y-84074000D02*
X150200000Y-84242000D01*
D26*
X128500000Y-77200978D02*
X131300978Y-74400000D01*
X138579000Y-74400000D02*
X152300000Y-74400000D01*
X169200000Y-77900000D02*
X165700000Y-74400000D01*
D22*
X152527000Y-101473000D02*
X152527000Y-105264000D01*
X150200000Y-84242000D02*
X150200000Y-88100000D01*
X152400000Y-101346000D02*
X152527000Y-101473000D01*
X138557000Y-74422000D02*
X138579000Y-74400000D01*
X138557000Y-75692000D02*
X138557000Y-74422000D01*
%TO.N,/DEC4*%
X126111000Y-74863000D02*
X125924000Y-74676000D01*
X123793000Y-93853000D02*
X126111000Y-91535000D01*
X126111000Y-91535000D02*
X126111000Y-74863000D01*
D24*
%TO.N,Net-(J2-Pad6)*%
X155448000Y-85725000D02*
X158800000Y-89077000D01*
X152654000Y-85725000D02*
X155448000Y-85725000D01*
X158800000Y-89077000D02*
X158800000Y-92100000D01*
%TO.N,Net-(P3-Pad1)*%
X160300000Y-90700000D02*
X160300000Y-92200000D01*
X160300000Y-92200000D02*
X160400000Y-92300000D01*
%TO.N,Net-(P13-Pad1)*%
X157988000Y-98298000D02*
X160400000Y-95886000D01*
X160400000Y-95886000D02*
X160400000Y-95650000D01*
%TO.N,Net-(P16-Pad1)*%
X163600000Y-96147020D02*
X163600000Y-95500000D01*
X161798000Y-97949020D02*
X163600000Y-96147020D01*
%TO.N,Net-(P17-Pad1)*%
X163195000Y-98044000D02*
X164356000Y-98044000D01*
X166475000Y-95925000D02*
X166475000Y-95500000D01*
X164356000Y-98044000D02*
X166475000Y-95925000D01*
%TO.N,/DRV_IR*%
X154937500Y-81915000D02*
X160322500Y-87300000D01*
X160322500Y-87300000D02*
X160400000Y-87300000D01*
X148844000Y-81915000D02*
X154937500Y-81915000D01*
X148209000Y-82550000D02*
X148844000Y-81915000D01*
X160400000Y-87300000D02*
X160400000Y-88950000D01*
%TO.N,Net-(P23-Pad1)*%
X173101000Y-98400000D02*
X172225000Y-97524000D01*
X172225000Y-97524000D02*
X172225000Y-95500000D01*
%TO.N,Net-(P24-Pad1)*%
X175100000Y-97696000D02*
X175100000Y-95500000D01*
X174371000Y-98425000D02*
X175100000Y-97696000D01*
%TO.N,Net-(P25-Pad1)*%
X174900000Y-87000000D02*
X174900000Y-88950000D01*
X174900000Y-88950000D02*
X174950000Y-89000000D01*
%TO.N,Net-(P26-Pad1)*%
X172100000Y-87000000D02*
X172100000Y-88925000D01*
X172100000Y-88925000D02*
X172175000Y-89000000D01*
%TO.N,Net-(P27-Pad1)*%
X169400000Y-86900000D02*
X169400000Y-89000000D01*
%TO.N,Net-(P29-Pad1)*%
X166500000Y-88875000D02*
X166625000Y-89000000D01*
X166500000Y-86900000D02*
X166500000Y-88875000D01*
%TO.N,Net-(P31-Pad1)*%
X163900000Y-88950000D02*
X163850000Y-89000000D01*
X163900000Y-87100000D02*
X163900000Y-88950000D01*
%TO.N,Net-(P22-Pad1)*%
X169350000Y-97650000D02*
X169350000Y-95500000D01*
X170125000Y-98425000D02*
X169350000Y-97650000D01*
X171704000Y-98425000D02*
X170125000Y-98425000D01*
%TD*%
%TA.AperFunction,Conductor*%
%TO.N,GND*%
G36*
X118186500Y-73317381D02*
G01*
X118232619Y-73363500D01*
X118249500Y-73426500D01*
X118249500Y-75274842D01*
X118249459Y-75275048D01*
X118249459Y-75300000D01*
X118249500Y-75300099D01*
X118249617Y-75300383D01*
X118250000Y-75300541D01*
X118250002Y-75300539D01*
X118275014Y-75300524D01*
X118275014Y-75300528D01*
X118275158Y-75300500D01*
X120024842Y-75300500D01*
X120024985Y-75300528D01*
X120024986Y-75300524D01*
X120049997Y-75300539D01*
X120050000Y-75300541D01*
X120050383Y-75300383D01*
X120050500Y-75300099D01*
X120050541Y-75300000D01*
X120050541Y-75275048D01*
X120050500Y-75274842D01*
X120050500Y-73426500D01*
X120067381Y-73363500D01*
X120113500Y-73317381D01*
X120176500Y-73300500D01*
X130715589Y-73300500D01*
X130779302Y-73317795D01*
X130825524Y-73364934D01*
X130841565Y-73428974D01*
X130823022Y-73492335D01*
X130774985Y-73537622D01*
X130737974Y-73557404D01*
X130584408Y-73683433D01*
X130556743Y-73717142D01*
X130548441Y-73726301D01*
X127826301Y-76448441D01*
X127817142Y-76456743D01*
X127783431Y-76484410D01*
X127657405Y-76637973D01*
X127590548Y-76763056D01*
X127590546Y-76763057D01*
X127563758Y-76813175D01*
X127506090Y-77003276D01*
X127486619Y-77200976D01*
X127490893Y-77244364D01*
X127491500Y-77256715D01*
X127491500Y-88017092D01*
X127479695Y-88070342D01*
X127446492Y-88113613D01*
X127398115Y-88138797D01*
X127315090Y-88161044D01*
X127315087Y-88161045D01*
X127315088Y-88161045D01*
X127123437Y-88250413D01*
X127067770Y-88289392D01*
X127003741Y-88311909D01*
X126937320Y-88297942D01*
X126887781Y-88251544D01*
X126869500Y-88186179D01*
X126869500Y-74927442D01*
X126870830Y-74909182D01*
X126871648Y-74903595D01*
X126874341Y-74885211D01*
X126869979Y-74835353D01*
X126869500Y-74824372D01*
X126869500Y-74818824D01*
X126869500Y-74818820D01*
X126865860Y-74787684D01*
X126865496Y-74784123D01*
X126858887Y-74708574D01*
X126858885Y-74708569D01*
X126858770Y-74707250D01*
X126854535Y-74688142D01*
X126854079Y-74686890D01*
X126854079Y-74686887D01*
X126837672Y-74641810D01*
X126830766Y-74611893D01*
X126817542Y-74486072D01*
X126758527Y-74304444D01*
X126758527Y-74304443D01*
X126663041Y-74139057D01*
X126535252Y-73997133D01*
X126380753Y-73884883D01*
X126380752Y-73884882D01*
X126206288Y-73807206D01*
X126019487Y-73767500D01*
X125828513Y-73767500D01*
X125703978Y-73793970D01*
X125641711Y-73807206D01*
X125467246Y-73884883D01*
X125312747Y-73997133D01*
X125184958Y-74139057D01*
X125089472Y-74304443D01*
X125030458Y-74486070D01*
X125019209Y-74593097D01*
X125010496Y-74676000D01*
X125014465Y-74713759D01*
X125030458Y-74865929D01*
X125089472Y-75047556D01*
X125184958Y-75212942D01*
X125184960Y-75212944D01*
X125263689Y-75300382D01*
X125320136Y-75363072D01*
X125344131Y-75402229D01*
X125352500Y-75447383D01*
X125352500Y-87671787D01*
X125333460Y-87738387D01*
X125282094Y-87784859D01*
X125213926Y-87797158D01*
X125149558Y-87771567D01*
X125108444Y-87715819D01*
X125095790Y-87681893D01*
X125093889Y-87676796D01*
X125093888Y-87676794D01*
X125006261Y-87559738D01*
X124889205Y-87472111D01*
X124820702Y-87446561D01*
X124752201Y-87421011D01*
X124691638Y-87414500D01*
X122894362Y-87414500D01*
X122833799Y-87421011D01*
X122696794Y-87472111D01*
X122579738Y-87559738D01*
X122492111Y-87676794D01*
X122466679Y-87744981D01*
X122441011Y-87813799D01*
X122434500Y-87874362D01*
X122434500Y-89671638D01*
X122441011Y-89732201D01*
X122453022Y-89764403D01*
X122492111Y-89869205D01*
X122579738Y-89986261D01*
X122696794Y-90073888D01*
X122696795Y-90073888D01*
X122696796Y-90073889D01*
X122811809Y-90116787D01*
X122862140Y-90151348D01*
X122890315Y-90205519D01*
X122889712Y-90266574D01*
X122860475Y-90320178D01*
X122717281Y-90475728D01*
X122717279Y-90475730D01*
X122717278Y-90475732D01*
X122699413Y-90503077D01*
X122594139Y-90664209D01*
X122503702Y-90870388D01*
X122452760Y-91071556D01*
X122448436Y-91088632D01*
X122429844Y-91313000D01*
X122448436Y-91537368D01*
X122448436Y-91537371D01*
X122448437Y-91537372D01*
X122503702Y-91755611D01*
X122594139Y-91961790D01*
X122717278Y-92150268D01*
X122869762Y-92315908D01*
X123047418Y-92454185D01*
X123047420Y-92454186D01*
X123047424Y-92454189D01*
X123080682Y-92472187D01*
X123128952Y-92518503D01*
X123146711Y-92583000D01*
X123128952Y-92647497D01*
X123080682Y-92693812D01*
X123055794Y-92707281D01*
X123047418Y-92711814D01*
X122869762Y-92850091D01*
X122717278Y-93015731D01*
X122594139Y-93204209D01*
X122503702Y-93410388D01*
X122487608Y-93473945D01*
X122455475Y-93531184D01*
X122398913Y-93564493D01*
X122333272Y-93564832D01*
X122276369Y-93532109D01*
X121726405Y-92982145D01*
X121699091Y-92941268D01*
X121689500Y-92893050D01*
X121689500Y-89574759D01*
X121697869Y-89529604D01*
X121721862Y-89490451D01*
X121770040Y-89436944D01*
X121865527Y-89271556D01*
X121924542Y-89089928D01*
X121944504Y-88900000D01*
X121924542Y-88710072D01*
X121883670Y-88584281D01*
X121865527Y-88528443D01*
X121770041Y-88363057D01*
X121642252Y-88221133D01*
X121528929Y-88138799D01*
X121487752Y-88108882D01*
X121313288Y-88031206D01*
X121126487Y-87991500D01*
X120935513Y-87991500D01*
X120815113Y-88017092D01*
X120748711Y-88031206D01*
X120574246Y-88108883D01*
X120419747Y-88221133D01*
X120291958Y-88363057D01*
X120196472Y-88528443D01*
X120137458Y-88710070D01*
X120117496Y-88899999D01*
X120137458Y-89089929D01*
X120196472Y-89271556D01*
X120291958Y-89436942D01*
X120291960Y-89436944D01*
X120340137Y-89490451D01*
X120364131Y-89529604D01*
X120372500Y-89574759D01*
X120372500Y-91612000D01*
X120355619Y-91675000D01*
X120309500Y-91721119D01*
X120246500Y-91738000D01*
X119729000Y-91738000D01*
X119729000Y-93224000D01*
X119712119Y-93287000D01*
X119666000Y-93333119D01*
X119603000Y-93350000D01*
X119347000Y-93350000D01*
X119284000Y-93333119D01*
X119237881Y-93287000D01*
X119221000Y-93224000D01*
X119221000Y-91738000D01*
X118576411Y-91738000D01*
X118515906Y-91744505D01*
X118379037Y-91795554D01*
X118262095Y-91883095D01*
X118174554Y-92000037D01*
X118157556Y-92045612D01*
X118116442Y-92101360D01*
X118052074Y-92126951D01*
X117983906Y-92114652D01*
X117932540Y-92068180D01*
X117913500Y-92001580D01*
X117913500Y-74726000D01*
X117906917Y-74675999D01*
X117896003Y-74593095D01*
X117879122Y-74530095D01*
X117827823Y-74406249D01*
X117746218Y-74299901D01*
X117746217Y-74299900D01*
X117746214Y-74299896D01*
X117700103Y-74253785D01*
X117593750Y-74172176D01*
X117469906Y-74120878D01*
X117406902Y-74103996D01*
X117274000Y-74086500D01*
X110626000Y-74086500D01*
X110493097Y-74103996D01*
X110430093Y-74120878D01*
X110306249Y-74172176D01*
X110199896Y-74253785D01*
X110153785Y-74299896D01*
X110072176Y-74406249D01*
X110020878Y-74530093D01*
X110003996Y-74593097D01*
X109986500Y-74726000D01*
X109986500Y-92819394D01*
X109987203Y-92846276D01*
X109987891Y-92859401D01*
X109987893Y-92859433D01*
X109989299Y-92877305D01*
X109990004Y-92886258D01*
X109996791Y-92950831D01*
X109996791Y-92977169D01*
X109990004Y-93041741D01*
X109987891Y-93068598D01*
X109987203Y-93081723D01*
X109986500Y-93108606D01*
X109986500Y-99509360D01*
X109972162Y-99567735D01*
X109932410Y-99612825D01*
X109876292Y-99634366D01*
X109816580Y-99627457D01*
X109766864Y-99593670D01*
X109704254Y-99524135D01*
X109626520Y-99467658D01*
X109549752Y-99411882D01*
X109375288Y-99334206D01*
X109188487Y-99294500D01*
X109188485Y-99294500D01*
X109167950Y-99294500D01*
X109119732Y-99284909D01*
X109078855Y-99257595D01*
X108944916Y-99123656D01*
X108917602Y-99082779D01*
X108908011Y-99034561D01*
X108908011Y-92447538D01*
X108916380Y-92402384D01*
X108940375Y-92363228D01*
X108964039Y-92336945D01*
X108966781Y-92332197D01*
X109059527Y-92171556D01*
X109118542Y-91989928D01*
X109138504Y-91800000D01*
X109118542Y-91610072D01*
X109085539Y-91508500D01*
X109059527Y-91428443D01*
X108964041Y-91263057D01*
X108850488Y-91136944D01*
X108836253Y-91121134D01*
X108681752Y-91008882D01*
X108507288Y-90931206D01*
X108320487Y-90891500D01*
X108129513Y-90891500D01*
X108004979Y-90917970D01*
X107942711Y-90931206D01*
X107768246Y-91008883D01*
X107613747Y-91121133D01*
X107485958Y-91263057D01*
X107390472Y-91428443D01*
X107331458Y-91610070D01*
X107311496Y-91800000D01*
X107331458Y-91989929D01*
X107390472Y-92171556D01*
X107485958Y-92336942D01*
X107485960Y-92336944D01*
X107558649Y-92417673D01*
X107582642Y-92456826D01*
X107591011Y-92501981D01*
X107591011Y-99272900D01*
X107588639Y-99294385D01*
X107590949Y-99367880D01*
X107591011Y-99371838D01*
X107591011Y-99400947D01*
X107591566Y-99405343D01*
X107592497Y-99417167D01*
X107593948Y-99463342D01*
X107599932Y-99483938D01*
X107603940Y-99503293D01*
X107606628Y-99524572D01*
X107623635Y-99567528D01*
X107627478Y-99578755D01*
X107640365Y-99623111D01*
X107651281Y-99641569D01*
X107659978Y-99659321D01*
X107667875Y-99679267D01*
X107695025Y-99716634D01*
X107701544Y-99726557D01*
X107725060Y-99766321D01*
X107740221Y-99781482D01*
X107753061Y-99796515D01*
X107765668Y-99813866D01*
X107801262Y-99843312D01*
X107810042Y-99851302D01*
X108150030Y-100191290D01*
X108174661Y-100226140D01*
X108186245Y-100267214D01*
X108199458Y-100392929D01*
X108258472Y-100574556D01*
X108353958Y-100739942D01*
X108461914Y-100859839D01*
X108481747Y-100881866D01*
X108636248Y-100994118D01*
X108810712Y-101071794D01*
X108997513Y-101111500D01*
X109188485Y-101111500D01*
X109188487Y-101111500D01*
X109375288Y-101071794D01*
X109549752Y-100994118D01*
X109704253Y-100881866D01*
X109740714Y-100841371D01*
X109766864Y-100812330D01*
X109816580Y-100778543D01*
X109876292Y-100771634D01*
X109932410Y-100793175D01*
X109972162Y-100838265D01*
X109986500Y-100896640D01*
X109986500Y-109774000D01*
X110003996Y-109906902D01*
X110020878Y-109969906D01*
X110072176Y-110093750D01*
X110153785Y-110200103D01*
X110199896Y-110246214D01*
X110199900Y-110246217D01*
X110199901Y-110246218D01*
X110306249Y-110327823D01*
X110430095Y-110379122D01*
X110493095Y-110396003D01*
X110626000Y-110413500D01*
X117274000Y-110413500D01*
X117406905Y-110396003D01*
X117469905Y-110379122D01*
X117593751Y-110327823D01*
X117700099Y-110246218D01*
X117746218Y-110200099D01*
X117827823Y-110093751D01*
X117879122Y-109969905D01*
X117896003Y-109906905D01*
X117913500Y-109774000D01*
X117913500Y-103634536D01*
X117927871Y-103576099D01*
X117967704Y-103530992D01*
X118023915Y-103509504D01*
X118083680Y-103516536D01*
X118133368Y-103550484D01*
X118161644Y-103603605D01*
X118185702Y-103698611D01*
X118276139Y-103904790D01*
X118399278Y-104093268D01*
X118551762Y-104258908D01*
X118729421Y-104397187D01*
X118729424Y-104397189D01*
X118927426Y-104504342D01*
X119140365Y-104577444D01*
X119362431Y-104614500D01*
X119587566Y-104614500D01*
X119587569Y-104614500D01*
X119809635Y-104577444D01*
X120022574Y-104504342D01*
X120220576Y-104397189D01*
X120398240Y-104258906D01*
X120550722Y-104093268D01*
X120673860Y-103904791D01*
X120764296Y-103698616D01*
X120819564Y-103480368D01*
X120838156Y-103256000D01*
X120819564Y-103031632D01*
X120764296Y-102813384D01*
X120673860Y-102607209D01*
X120550722Y-102418732D01*
X120398240Y-102253094D01*
X120398239Y-102253093D01*
X120398237Y-102253091D01*
X120220578Y-102114812D01*
X120187317Y-102096812D01*
X120139046Y-102050495D01*
X120121288Y-101985997D01*
X120139049Y-101921499D01*
X120187317Y-101875187D01*
X120220576Y-101857189D01*
X120398240Y-101718906D01*
X120550722Y-101553268D01*
X120673860Y-101364791D01*
X120764296Y-101158616D01*
X120819564Y-100940368D01*
X120838156Y-100716000D01*
X120819564Y-100491632D01*
X120792388Y-100384318D01*
X120793053Y-100319940D01*
X120825435Y-100264295D01*
X121321839Y-99767893D01*
X121362717Y-99740580D01*
X121410935Y-99730989D01*
X124180067Y-99730989D01*
X124228285Y-99740580D01*
X124269161Y-99767893D01*
X125573060Y-101071793D01*
X126872184Y-102370917D01*
X126885298Y-102387285D01*
X126937265Y-102436085D01*
X126940106Y-102438839D01*
X126959906Y-102458639D01*
X126963131Y-102461141D01*
X126972150Y-102468844D01*
X127004494Y-102499217D01*
X127022325Y-102509020D01*
X127038849Y-102519874D01*
X127054933Y-102532350D01*
X127095674Y-102549980D01*
X127106313Y-102555193D01*
X127145192Y-102576567D01*
X127145194Y-102576567D01*
X127145197Y-102576569D01*
X127164912Y-102581630D01*
X127183614Y-102588034D01*
X127202292Y-102596117D01*
X127246114Y-102603057D01*
X127257741Y-102605465D01*
X127300717Y-102616500D01*
X127300718Y-102616500D01*
X127321066Y-102616500D01*
X127340775Y-102618050D01*
X127360879Y-102621235D01*
X127405055Y-102617059D01*
X127416914Y-102616500D01*
X130608220Y-102616500D01*
X130665423Y-102630233D01*
X130710156Y-102668439D01*
X130732669Y-102722789D01*
X130728053Y-102781436D01*
X130678458Y-102934070D01*
X130658496Y-103124000D01*
X130678458Y-103313929D01*
X130737472Y-103495556D01*
X130832958Y-103660942D01*
X130960747Y-103802866D01*
X130988561Y-103823074D01*
X131026767Y-103867807D01*
X131040500Y-103925010D01*
X131040500Y-108729765D01*
X131023619Y-108792765D01*
X130991472Y-108848443D01*
X130932458Y-109030070D01*
X130912496Y-109219999D01*
X130932458Y-109409929D01*
X130991472Y-109591556D01*
X131086958Y-109756942D01*
X131102317Y-109774000D01*
X131214747Y-109898866D01*
X131369248Y-110011118D01*
X131543712Y-110088794D01*
X131730513Y-110128500D01*
X131921485Y-110128500D01*
X131921487Y-110128500D01*
X132108288Y-110088794D01*
X132282752Y-110011118D01*
X132437253Y-109898866D01*
X132565040Y-109756944D01*
X132660527Y-109591556D01*
X132719542Y-109409928D01*
X132739504Y-109220000D01*
X132726892Y-109100000D01*
X136596844Y-109100000D01*
X136615436Y-109324368D01*
X136615436Y-109324371D01*
X136615437Y-109324372D01*
X136670702Y-109542611D01*
X136761139Y-109748790D01*
X136768109Y-109759458D01*
X136884278Y-109937268D01*
X136943707Y-110001825D01*
X137036762Y-110102908D01*
X137156317Y-110195962D01*
X137214424Y-110241189D01*
X137412426Y-110348342D01*
X137625365Y-110421444D01*
X137847431Y-110458500D01*
X138072566Y-110458500D01*
X138072569Y-110458500D01*
X138294635Y-110421444D01*
X138507574Y-110348342D01*
X138705576Y-110241189D01*
X138883240Y-110102906D01*
X139035722Y-109937268D01*
X139124518Y-109801354D01*
X139170031Y-109759458D01*
X139230000Y-109744272D01*
X139289969Y-109759458D01*
X139335481Y-109801354D01*
X139424278Y-109937268D01*
X139483707Y-110001825D01*
X139576762Y-110102908D01*
X139696317Y-110195962D01*
X139754424Y-110241189D01*
X139952426Y-110348342D01*
X140165365Y-110421444D01*
X140387431Y-110458500D01*
X140612566Y-110458500D01*
X140612569Y-110458500D01*
X140834635Y-110421444D01*
X141047574Y-110348342D01*
X141245576Y-110241189D01*
X141423240Y-110102906D01*
X141575722Y-109937268D01*
X141664518Y-109801354D01*
X141710031Y-109759458D01*
X141770000Y-109744272D01*
X141829969Y-109759458D01*
X141875481Y-109801354D01*
X141964278Y-109937268D01*
X142023707Y-110001825D01*
X142116762Y-110102908D01*
X142236317Y-110195962D01*
X142294424Y-110241189D01*
X142492426Y-110348342D01*
X142705365Y-110421444D01*
X142927431Y-110458500D01*
X143152566Y-110458500D01*
X143152569Y-110458500D01*
X143374635Y-110421444D01*
X143587574Y-110348342D01*
X143785576Y-110241189D01*
X143963240Y-110102906D01*
X144024627Y-110036222D01*
X144078096Y-110001825D01*
X144141557Y-109997914D01*
X144198849Y-110025490D01*
X144235381Y-110077529D01*
X144279554Y-110195963D01*
X144367095Y-110312904D01*
X144484037Y-110400445D01*
X144620906Y-110451494D01*
X144681411Y-110458000D01*
X145326000Y-110458000D01*
X145326000Y-109354000D01*
X145834000Y-109354000D01*
X145834000Y-110458000D01*
X146478589Y-110458000D01*
X146539093Y-110451494D01*
X146675962Y-110400445D01*
X146792904Y-110312904D01*
X146880445Y-110195962D01*
X146931494Y-110059093D01*
X146938000Y-109998589D01*
X146938000Y-109354000D01*
X145834000Y-109354000D01*
X145326000Y-109354000D01*
X145326000Y-107742000D01*
X144681411Y-107742000D01*
X144620906Y-107748505D01*
X144484037Y-107799554D01*
X144367095Y-107887095D01*
X144279554Y-108004036D01*
X144235381Y-108122470D01*
X144198849Y-108174509D01*
X144141558Y-108202085D01*
X144078096Y-108198175D01*
X144024624Y-108163774D01*
X143963240Y-108097093D01*
X143785578Y-107958812D01*
X143587573Y-107851657D01*
X143435800Y-107799554D01*
X143374635Y-107778556D01*
X143152569Y-107741500D01*
X142927431Y-107741500D01*
X142705365Y-107778556D01*
X142705362Y-107778556D01*
X142705362Y-107778557D01*
X142492426Y-107851657D01*
X142294421Y-107958812D01*
X142116762Y-108097091D01*
X141964278Y-108262731D01*
X141875483Y-108398643D01*
X141829969Y-108440541D01*
X141770000Y-108455727D01*
X141710031Y-108440541D01*
X141664517Y-108398643D01*
X141575721Y-108262731D01*
X141519271Y-108201411D01*
X141423240Y-108097094D01*
X141423239Y-108097093D01*
X141423237Y-108097091D01*
X141245578Y-107958812D01*
X141047573Y-107851657D01*
X140895800Y-107799554D01*
X140834635Y-107778556D01*
X140612569Y-107741500D01*
X140387431Y-107741500D01*
X140165365Y-107778556D01*
X140165362Y-107778556D01*
X140165362Y-107778557D01*
X139952426Y-107851657D01*
X139754421Y-107958812D01*
X139576762Y-108097091D01*
X139424278Y-108262731D01*
X139335483Y-108398643D01*
X139289969Y-108440541D01*
X139230000Y-108455727D01*
X139170031Y-108440541D01*
X139124517Y-108398643D01*
X139035721Y-108262731D01*
X138979271Y-108201411D01*
X138883240Y-108097094D01*
X138883239Y-108097093D01*
X138883237Y-108097091D01*
X138705578Y-107958812D01*
X138507573Y-107851657D01*
X138355800Y-107799554D01*
X138294635Y-107778556D01*
X138072569Y-107741500D01*
X137847431Y-107741500D01*
X137625365Y-107778556D01*
X137625362Y-107778556D01*
X137625362Y-107778557D01*
X137412426Y-107851657D01*
X137214421Y-107958812D01*
X137036762Y-108097091D01*
X136884278Y-108262731D01*
X136761139Y-108451209D01*
X136670702Y-108657388D01*
X136622321Y-108848443D01*
X136615436Y-108875632D01*
X136596844Y-109100000D01*
X132726892Y-109100000D01*
X132719542Y-109030072D01*
X132688931Y-108935862D01*
X132660527Y-108848443D01*
X132565041Y-108683057D01*
X132437252Y-108541133D01*
X132409439Y-108520926D01*
X132371233Y-108476193D01*
X132357500Y-108418990D01*
X132357500Y-103614235D01*
X132374381Y-103551235D01*
X132406527Y-103495556D01*
X132419190Y-103456584D01*
X132465542Y-103313928D01*
X132485504Y-103124000D01*
X132465542Y-102934072D01*
X132415946Y-102781435D01*
X132411331Y-102722789D01*
X132433844Y-102668439D01*
X132478577Y-102630233D01*
X132535780Y-102616500D01*
X144663629Y-102616500D01*
X144714878Y-102627393D01*
X144757265Y-102658189D01*
X144783462Y-102703563D01*
X144834473Y-102860557D01*
X144929958Y-103025942D01*
X144929960Y-103025944D01*
X145057747Y-103167866D01*
X145212248Y-103280118D01*
X145386712Y-103357794D01*
X145573513Y-103397500D01*
X145764485Y-103397500D01*
X145764487Y-103397500D01*
X145951288Y-103357794D01*
X145976250Y-103346679D01*
X146037385Y-103336174D01*
X146096124Y-103356113D01*
X146138231Y-103401664D01*
X146153500Y-103461786D01*
X146153500Y-106386241D01*
X146145131Y-106431396D01*
X146121137Y-106470548D01*
X146103689Y-106489928D01*
X146072958Y-106524057D01*
X145977472Y-106689443D01*
X145918458Y-106871070D01*
X145898496Y-107060999D01*
X145898496Y-107061000D01*
X145908477Y-107155964D01*
X145918458Y-107250929D01*
X145977472Y-107432556D01*
X146047011Y-107553000D01*
X146063892Y-107616000D01*
X146047011Y-107679000D01*
X146000892Y-107725119D01*
X145937892Y-107742000D01*
X145834000Y-107742000D01*
X145834000Y-108846000D01*
X146938000Y-108846000D01*
X146938000Y-108201411D01*
X146931494Y-108140906D01*
X146921557Y-108114262D01*
X146913945Y-108061091D01*
X146929170Y-108009581D01*
X146964465Y-107969093D01*
X147013413Y-107946984D01*
X147094288Y-107929794D01*
X147268752Y-107852118D01*
X147423253Y-107739866D01*
X147551040Y-107597944D01*
X147646527Y-107432556D01*
X147691472Y-107294228D01*
X147726996Y-107239528D01*
X147785110Y-107209917D01*
X147796481Y-107207500D01*
X147796487Y-107207500D01*
X147983288Y-107167794D01*
X148157752Y-107090118D01*
X148312253Y-106977866D01*
X148440040Y-106835944D01*
X148535527Y-106670556D01*
X148594542Y-106488928D01*
X148614504Y-106299000D01*
X148594542Y-106109072D01*
X148544271Y-105954355D01*
X148535527Y-105927443D01*
X148440041Y-105762057D01*
X148435364Y-105756862D01*
X148391862Y-105708548D01*
X148367869Y-105669396D01*
X148359500Y-105624241D01*
X148359500Y-101989613D01*
X148361871Y-101968127D01*
X148361787Y-101965467D01*
X148361788Y-101965465D01*
X148359561Y-101894632D01*
X148359500Y-101890675D01*
X148359500Y-101861574D01*
X148359500Y-101861570D01*
X148358943Y-101857163D01*
X148358012Y-101845332D01*
X148357365Y-101824743D01*
X148356562Y-101799171D01*
X148350578Y-101778576D01*
X148346570Y-101759219D01*
X148343882Y-101737938D01*
X148326874Y-101694980D01*
X148323030Y-101683753D01*
X148310145Y-101639401D01*
X148299231Y-101620948D01*
X148290529Y-101603186D01*
X148282635Y-101583246D01*
X148255477Y-101545866D01*
X148248965Y-101535953D01*
X148225452Y-101496195D01*
X148210285Y-101481028D01*
X148197449Y-101465999D01*
X148193045Y-101459938D01*
X148184841Y-101448645D01*
X148149246Y-101419198D01*
X148140466Y-101411209D01*
X147424853Y-100695595D01*
X147394116Y-100645436D01*
X147389500Y-100586789D01*
X147412013Y-100532439D01*
X147456746Y-100494233D01*
X147513949Y-100480500D01*
X150157577Y-100480500D01*
X150214780Y-100494233D01*
X150259513Y-100532439D01*
X150282026Y-100586789D01*
X150277410Y-100645436D01*
X150246672Y-100695595D01*
X150074937Y-100867330D01*
X149906671Y-101035596D01*
X149865794Y-101062909D01*
X149817576Y-101072500D01*
X149764513Y-101072500D01*
X149640053Y-101098955D01*
X149577711Y-101112206D01*
X149403246Y-101189883D01*
X149248747Y-101302133D01*
X149120958Y-101444057D01*
X149025472Y-101609443D01*
X148966458Y-101791070D01*
X148948247Y-101964342D01*
X148946496Y-101981000D01*
X148947401Y-101989613D01*
X148966458Y-102170929D01*
X149025472Y-102352556D01*
X149120958Y-102517942D01*
X149120960Y-102517944D01*
X149192138Y-102596995D01*
X149216131Y-102636148D01*
X149224500Y-102681303D01*
X149224500Y-107503697D01*
X149216131Y-107548852D01*
X149192138Y-107588004D01*
X149183189Y-107597944D01*
X149120958Y-107667057D01*
X149025472Y-107832443D01*
X148966458Y-108014070D01*
X148946496Y-108204000D01*
X148966458Y-108393929D01*
X149025472Y-108575556D01*
X149120958Y-108740942D01*
X149120960Y-108740944D01*
X149248747Y-108882866D01*
X149403248Y-108995118D01*
X149577712Y-109072794D01*
X149764513Y-109112500D01*
X149955485Y-109112500D01*
X149955487Y-109112500D01*
X150142288Y-109072794D01*
X150316752Y-108995118D01*
X150471253Y-108882866D01*
X150599040Y-108740944D01*
X150694527Y-108575556D01*
X150753542Y-108393928D01*
X150773504Y-108204000D01*
X150753542Y-108014072D01*
X150694527Y-107832444D01*
X150694527Y-107832443D01*
X150599041Y-107667057D01*
X150592429Y-107659714D01*
X150527861Y-107588004D01*
X150503869Y-107548852D01*
X150495500Y-107503697D01*
X150495500Y-106954000D01*
X167642000Y-106954000D01*
X167642000Y-108999521D01*
X167656584Y-109147603D01*
X167714223Y-109337609D01*
X167807823Y-109512723D01*
X167933787Y-109666212D01*
X168087276Y-109792176D01*
X168262390Y-109885776D01*
X168452396Y-109943415D01*
X168600479Y-109958000D01*
X168896000Y-109958000D01*
X168896000Y-106954000D01*
X169404000Y-106954000D01*
X169404000Y-109958000D01*
X169699521Y-109958000D01*
X169847603Y-109943415D01*
X170037609Y-109885776D01*
X170212723Y-109792176D01*
X170366212Y-109666212D01*
X170492176Y-109512723D01*
X170585776Y-109337609D01*
X170643415Y-109147603D01*
X170658000Y-108999521D01*
X170658000Y-106954000D01*
X169404000Y-106954000D01*
X168896000Y-106954000D01*
X167642000Y-106954000D01*
X150495500Y-106954000D01*
X150495500Y-102681303D01*
X150503869Y-102636148D01*
X150527861Y-102596995D01*
X150599040Y-102517944D01*
X150694527Y-102352556D01*
X150753542Y-102170928D01*
X150770575Y-102008862D01*
X150782158Y-101967794D01*
X150806785Y-101932946D01*
X151290882Y-101448848D01*
X151352167Y-101415052D01*
X151422035Y-101419172D01*
X151478925Y-101459938D01*
X151505285Y-101524770D01*
X151506263Y-101534079D01*
X151506458Y-101535929D01*
X151565472Y-101717556D01*
X151660958Y-101882942D01*
X151660960Y-101882944D01*
X151735262Y-101965465D01*
X151736136Y-101966435D01*
X151760131Y-102005591D01*
X151768500Y-102050746D01*
X151768500Y-104936171D01*
X151762333Y-104975107D01*
X151706458Y-105147070D01*
X151686496Y-105337000D01*
X151706458Y-105526929D01*
X151765472Y-105708556D01*
X151860958Y-105873942D01*
X151910031Y-105928443D01*
X151988747Y-106015866D01*
X152143248Y-106128118D01*
X152317712Y-106205794D01*
X152504513Y-106245500D01*
X152695485Y-106245500D01*
X152695487Y-106245500D01*
X152882288Y-106205794D01*
X153056752Y-106128118D01*
X153211253Y-106015866D01*
X153339040Y-105873944D01*
X153434527Y-105708556D01*
X153493542Y-105526928D01*
X153513504Y-105337000D01*
X153493542Y-105147072D01*
X153440925Y-104985134D01*
X153434527Y-104965443D01*
X153339041Y-104800057D01*
X153317864Y-104776538D01*
X153293869Y-104737382D01*
X153285500Y-104692227D01*
X153285500Y-101580636D01*
X153291667Y-101541699D01*
X153292077Y-101540434D01*
X153293542Y-101535928D01*
X153313504Y-101346000D01*
X153293542Y-101156072D01*
X153279060Y-101111500D01*
X153274984Y-101098955D01*
X153270368Y-101040309D01*
X153292881Y-100985959D01*
X153337614Y-100947753D01*
X153394817Y-100934020D01*
X153945183Y-100934020D01*
X154002386Y-100947753D01*
X154047119Y-100985959D01*
X154069632Y-101040309D01*
X154065016Y-101098955D01*
X154060940Y-101111500D01*
X154046458Y-101156072D01*
X154029560Y-101316843D01*
X154026496Y-101345999D01*
X154046458Y-101535929D01*
X154105472Y-101717556D01*
X154200958Y-101882942D01*
X154200960Y-101882944D01*
X154249137Y-101936451D01*
X154273131Y-101975604D01*
X154281500Y-102020759D01*
X154281500Y-104862990D01*
X154267767Y-104920193D01*
X154229561Y-104964926D01*
X154201747Y-104985133D01*
X154073958Y-105127057D01*
X153978472Y-105292443D01*
X153919458Y-105474070D01*
X153899496Y-105663999D01*
X153919458Y-105853929D01*
X153978472Y-106035556D01*
X154073958Y-106200942D01*
X154073960Y-106200944D01*
X154201747Y-106342866D01*
X154356248Y-106455118D01*
X154530712Y-106532794D01*
X154717513Y-106572500D01*
X154908485Y-106572500D01*
X154908487Y-106572500D01*
X155095288Y-106532794D01*
X155269752Y-106455118D01*
X155282302Y-106446000D01*
X167642000Y-106446000D01*
X168896000Y-106446000D01*
X168896000Y-103442000D01*
X169404000Y-103442000D01*
X169404000Y-106446000D01*
X170658000Y-106446000D01*
X170658000Y-104400479D01*
X170643415Y-104252396D01*
X170585776Y-104062390D01*
X170492176Y-103887276D01*
X170366212Y-103733787D01*
X170212723Y-103607823D01*
X170037609Y-103514223D01*
X169847603Y-103456584D01*
X169699521Y-103442000D01*
X169404000Y-103442000D01*
X168896000Y-103442000D01*
X168600479Y-103442000D01*
X168452396Y-103456584D01*
X168262390Y-103514223D01*
X168087276Y-103607823D01*
X167933787Y-103733787D01*
X167807823Y-103887276D01*
X167714223Y-104062390D01*
X167656584Y-104252396D01*
X167642000Y-104400479D01*
X167642000Y-106446000D01*
X155282302Y-106446000D01*
X155424253Y-106342866D01*
X155552040Y-106200944D01*
X155647527Y-106035556D01*
X155706542Y-105853928D01*
X155726504Y-105664000D01*
X155706542Y-105474072D01*
X155647527Y-105292444D01*
X155647527Y-105292443D01*
X155615381Y-105236765D01*
X155598500Y-105173765D01*
X155598500Y-102020759D01*
X155606869Y-101975604D01*
X155630862Y-101936451D01*
X155679040Y-101882944D01*
X155774527Y-101717556D01*
X155833542Y-101535928D01*
X155853504Y-101346000D01*
X155833542Y-101156072D01*
X155819060Y-101111500D01*
X155814984Y-101098955D01*
X155810368Y-101040309D01*
X155832881Y-100985959D01*
X155877614Y-100947753D01*
X155934817Y-100934020D01*
X165917411Y-100934020D01*
X165938249Y-100936320D01*
X165941196Y-100936227D01*
X165941199Y-100936228D01*
X166009492Y-100934081D01*
X166013449Y-100934020D01*
X166041458Y-100934020D01*
X166041463Y-100934020D01*
X166045509Y-100933508D01*
X166057328Y-100932578D01*
X166101685Y-100931185D01*
X166121224Y-100925507D01*
X166140582Y-100921498D01*
X166160779Y-100918947D01*
X166202035Y-100902612D01*
X166213245Y-100898773D01*
X166255873Y-100886389D01*
X166273387Y-100876030D01*
X166291147Y-100867330D01*
X166310066Y-100859840D01*
X166310066Y-100859839D01*
X166310068Y-100859839D01*
X166345979Y-100833747D01*
X166355879Y-100827244D01*
X166394078Y-100804654D01*
X166408466Y-100790265D01*
X166423501Y-100777424D01*
X166439967Y-100765462D01*
X166468268Y-100731249D01*
X166476227Y-100722503D01*
X167753329Y-99445402D01*
X167794204Y-99418091D01*
X167842422Y-99408500D01*
X167895485Y-99408500D01*
X167895487Y-99408500D01*
X168082288Y-99368794D01*
X168256752Y-99291118D01*
X168411253Y-99178866D01*
X168539040Y-99036944D01*
X168634527Y-98871556D01*
X168693542Y-98689928D01*
X168713504Y-98500000D01*
X168693542Y-98310072D01*
X168672691Y-98245901D01*
X168669063Y-98181808D01*
X168697488Y-98124242D01*
X168750587Y-98088154D01*
X168814575Y-98082914D01*
X168872838Y-98109883D01*
X168884825Y-98119799D01*
X168901754Y-98133803D01*
X168910531Y-98141791D01*
X169598125Y-98829385D01*
X169611642Y-98846256D01*
X169613583Y-98848079D01*
X169613584Y-98848080D01*
X169665256Y-98896603D01*
X169668067Y-98899327D01*
X169688667Y-98919927D01*
X169692170Y-98922644D01*
X169701197Y-98930354D01*
X169734867Y-98961972D01*
X169753666Y-98972307D01*
X169770186Y-98983159D01*
X169787132Y-98996304D01*
X169829534Y-99014653D01*
X169840182Y-99019870D01*
X169880659Y-99042122D01*
X169880663Y-99042124D01*
X169901432Y-99047456D01*
X169920134Y-99053859D01*
X169939824Y-99062380D01*
X169985460Y-99069607D01*
X169997063Y-99072009D01*
X170041812Y-99083500D01*
X170063253Y-99083500D01*
X170082961Y-99085050D01*
X170104152Y-99088407D01*
X170150147Y-99084059D01*
X170162006Y-99083500D01*
X171023777Y-99083500D01*
X171062713Y-99089667D01*
X171097834Y-99107562D01*
X171247248Y-99216118D01*
X171421712Y-99293794D01*
X171608513Y-99333500D01*
X171799485Y-99333500D01*
X171799487Y-99333500D01*
X171986288Y-99293794D01*
X172160752Y-99216118D01*
X172315253Y-99103866D01*
X172321954Y-99096422D01*
X172372495Y-99062332D01*
X172433126Y-99055959D01*
X172489652Y-99078797D01*
X172489747Y-99078866D01*
X172644248Y-99191118D01*
X172818712Y-99268794D01*
X173005513Y-99308500D01*
X173196485Y-99308500D01*
X173196487Y-99308500D01*
X173383288Y-99268794D01*
X173557752Y-99191118D01*
X173644736Y-99127920D01*
X173692598Y-99106610D01*
X173744992Y-99106610D01*
X173792855Y-99127920D01*
X173914248Y-99216118D01*
X174088712Y-99293794D01*
X174275513Y-99333500D01*
X174466485Y-99333500D01*
X174466487Y-99333500D01*
X174653288Y-99293794D01*
X174827752Y-99216118D01*
X174982253Y-99103866D01*
X175110040Y-98961944D01*
X175205527Y-98796556D01*
X175264542Y-98614928D01*
X175277754Y-98489213D01*
X175289338Y-98448140D01*
X175313966Y-98413292D01*
X175504387Y-98222871D01*
X175521251Y-98209362D01*
X175523076Y-98207418D01*
X175523080Y-98207416D01*
X175571606Y-98155739D01*
X175574328Y-98152930D01*
X175594927Y-98132333D01*
X175597648Y-98128823D01*
X175605346Y-98119809D01*
X175636972Y-98086133D01*
X175647303Y-98067339D01*
X175658159Y-98050814D01*
X175671304Y-98033868D01*
X175689652Y-97991465D01*
X175694877Y-97980803D01*
X175714400Y-97945292D01*
X175717124Y-97940337D01*
X175722458Y-97919558D01*
X175728856Y-97900869D01*
X175737380Y-97881176D01*
X175744609Y-97835521D01*
X175747010Y-97823932D01*
X175758500Y-97779188D01*
X175758500Y-97757741D01*
X175760051Y-97738030D01*
X175761387Y-97729595D01*
X175763406Y-97716848D01*
X175759058Y-97670859D01*
X175758500Y-97659004D01*
X175758500Y-96884500D01*
X175775381Y-96821500D01*
X175821500Y-96775381D01*
X175884500Y-96758500D01*
X175898637Y-96758500D01*
X175898638Y-96758500D01*
X175954508Y-96752493D01*
X176019041Y-96762583D01*
X176069853Y-96803629D01*
X176093285Y-96864598D01*
X176100279Y-96931138D01*
X176106458Y-96989929D01*
X176165472Y-97171556D01*
X176260958Y-97336942D01*
X176260960Y-97336944D01*
X176309137Y-97390451D01*
X176333131Y-97429604D01*
X176341500Y-97474759D01*
X176341500Y-102725241D01*
X176333131Y-102770396D01*
X176309137Y-102809548D01*
X176287106Y-102834017D01*
X176260958Y-102863057D01*
X176165472Y-103028443D01*
X176106458Y-103210070D01*
X176086496Y-103399999D01*
X176106458Y-103589929D01*
X176165472Y-103771556D01*
X176260958Y-103936942D01*
X176260960Y-103936944D01*
X176388747Y-104078866D01*
X176543248Y-104191118D01*
X176717712Y-104268794D01*
X176904513Y-104308500D01*
X176904515Y-104308500D01*
X177108730Y-104308500D01*
X177108730Y-104310068D01*
X177144914Y-104310542D01*
X177194794Y-104335141D01*
X177229226Y-104378817D01*
X177241500Y-104433061D01*
X177241500Y-105413389D01*
X177239128Y-105434874D01*
X177241438Y-105508369D01*
X177241500Y-105512327D01*
X177241500Y-105541436D01*
X177242055Y-105545832D01*
X177242986Y-105557656D01*
X177244437Y-105603831D01*
X177250421Y-105624427D01*
X177254429Y-105643782D01*
X177257117Y-105665061D01*
X177257117Y-105665063D01*
X177257118Y-105665064D01*
X177260104Y-105672607D01*
X177274124Y-105708017D01*
X177277967Y-105719244D01*
X177290854Y-105763600D01*
X177301770Y-105782058D01*
X177310467Y-105799810D01*
X177318364Y-105819756D01*
X177345514Y-105857123D01*
X177352033Y-105867046D01*
X177375549Y-105906810D01*
X177390710Y-105921971D01*
X177403550Y-105937004D01*
X177416157Y-105954355D01*
X177451751Y-105983801D01*
X177460531Y-105991791D01*
X177757030Y-106288290D01*
X177781661Y-106323140D01*
X177793244Y-106364213D01*
X177801487Y-106442639D01*
X177806458Y-106489929D01*
X177865472Y-106671556D01*
X177960958Y-106836942D01*
X177960960Y-106836944D01*
X178088747Y-106978866D01*
X178243248Y-107091118D01*
X178417712Y-107168794D01*
X178604513Y-107208500D01*
X178795485Y-107208500D01*
X178795487Y-107208500D01*
X178982288Y-107168794D01*
X179156752Y-107091118D01*
X179311253Y-106978866D01*
X179439040Y-106836944D01*
X179534527Y-106671556D01*
X179593542Y-106489928D01*
X179613504Y-106300000D01*
X179593542Y-106110072D01*
X179542946Y-105954355D01*
X179534527Y-105928443D01*
X179439041Y-105763057D01*
X179314218Y-105624427D01*
X179311253Y-105621134D01*
X179156752Y-105508882D01*
X178982288Y-105431206D01*
X178795487Y-105391500D01*
X178795485Y-105391500D01*
X178774950Y-105391500D01*
X178726732Y-105381909D01*
X178685855Y-105354595D01*
X178595405Y-105264145D01*
X178568091Y-105223268D01*
X178558500Y-105175050D01*
X178558500Y-98574759D01*
X178566869Y-98529604D01*
X178590862Y-98490451D01*
X178639040Y-98436944D01*
X178734527Y-98271556D01*
X178793542Y-98089928D01*
X178813504Y-97900000D01*
X178793542Y-97710072D01*
X178750455Y-97577464D01*
X178734527Y-97528443D01*
X178639041Y-97363057D01*
X178539839Y-97252882D01*
X178511253Y-97221134D01*
X178356752Y-97108882D01*
X178182288Y-97031206D01*
X178006577Y-96993857D01*
X177951784Y-96967132D01*
X177915951Y-96917811D01*
X177907466Y-96857443D01*
X177913504Y-96800000D01*
X177893542Y-96610072D01*
X177843009Y-96454548D01*
X177834527Y-96428443D01*
X177739041Y-96263057D01*
X177611252Y-96121133D01*
X177500131Y-96040399D01*
X177456752Y-96008882D01*
X177282288Y-95931206D01*
X177095487Y-95891500D01*
X176904513Y-95891500D01*
X176812811Y-95910992D01*
X176717711Y-95931206D01*
X176535749Y-96012221D01*
X176474614Y-96022726D01*
X176415875Y-96002786D01*
X176373769Y-95957236D01*
X176358500Y-95897114D01*
X176358500Y-94701362D01*
X176356149Y-94679497D01*
X176351989Y-94640799D01*
X176300889Y-94503796D01*
X176300888Y-94503794D01*
X176213261Y-94386738D01*
X176096205Y-94299111D01*
X176014222Y-94268533D01*
X175959201Y-94248011D01*
X175898638Y-94241500D01*
X174301362Y-94241500D01*
X174240799Y-94248011D01*
X174103794Y-94299111D01*
X173986738Y-94386738D01*
X173899111Y-94503794D01*
X173850885Y-94633094D01*
X173848011Y-94640799D01*
X173841500Y-94701362D01*
X173841500Y-96298638D01*
X173848011Y-96359201D01*
X173864366Y-96403049D01*
X173899111Y-96496205D01*
X173986738Y-96613261D01*
X174103794Y-96700888D01*
X174103795Y-96700888D01*
X174103796Y-96700889D01*
X174240799Y-96751989D01*
X174301362Y-96758500D01*
X174315500Y-96758500D01*
X174378500Y-96775381D01*
X174424619Y-96821500D01*
X174441500Y-96884500D01*
X174441500Y-97371050D01*
X174431909Y-97419268D01*
X174404595Y-97460145D01*
X174385145Y-97479595D01*
X174344268Y-97506909D01*
X174296050Y-97516500D01*
X174275513Y-97516500D01*
X174150978Y-97542970D01*
X174088711Y-97556206D01*
X173914246Y-97633883D01*
X173827264Y-97697079D01*
X173779400Y-97718389D01*
X173727007Y-97718389D01*
X173679143Y-97697078D01*
X173643060Y-97670862D01*
X173557752Y-97608882D01*
X173383288Y-97531206D01*
X173196487Y-97491500D01*
X173196485Y-97491500D01*
X173175950Y-97491500D01*
X173127732Y-97481909D01*
X173086855Y-97454595D01*
X172920405Y-97288145D01*
X172893091Y-97247268D01*
X172883500Y-97199050D01*
X172883500Y-96884500D01*
X172900381Y-96821500D01*
X172946500Y-96775381D01*
X173009500Y-96758500D01*
X173023638Y-96758500D01*
X173084201Y-96751989D01*
X173221204Y-96700889D01*
X173338261Y-96613261D01*
X173425889Y-96496204D01*
X173476989Y-96359201D01*
X173483500Y-96298638D01*
X173483500Y-94701362D01*
X173476989Y-94640799D01*
X173425889Y-94503796D01*
X173425888Y-94503794D01*
X173338261Y-94386738D01*
X173221205Y-94299111D01*
X173139222Y-94268533D01*
X173084201Y-94248011D01*
X173023638Y-94241500D01*
X171426362Y-94241500D01*
X171365799Y-94248011D01*
X171228794Y-94299111D01*
X171111738Y-94386738D01*
X171024111Y-94503794D01*
X170975885Y-94633094D01*
X170973011Y-94640799D01*
X170966500Y-94701362D01*
X170966500Y-96298638D01*
X170973011Y-96359201D01*
X170989366Y-96403049D01*
X171024111Y-96496205D01*
X171111738Y-96613261D01*
X171228794Y-96700888D01*
X171228795Y-96700888D01*
X171228796Y-96700889D01*
X171365799Y-96751989D01*
X171426362Y-96758500D01*
X171440500Y-96758500D01*
X171503500Y-96775381D01*
X171549619Y-96821500D01*
X171566500Y-96884500D01*
X171566500Y-97423398D01*
X171553748Y-97478633D01*
X171518073Y-97522688D01*
X171466699Y-97546643D01*
X171430701Y-97554295D01*
X171421711Y-97556206D01*
X171247246Y-97633883D01*
X171210829Y-97660342D01*
X171097834Y-97742437D01*
X171062713Y-97760333D01*
X171023777Y-97766500D01*
X170449950Y-97766500D01*
X170401732Y-97756909D01*
X170360855Y-97729595D01*
X170045405Y-97414145D01*
X170018091Y-97373268D01*
X170008500Y-97325050D01*
X170008500Y-96884500D01*
X170025381Y-96821500D01*
X170071500Y-96775381D01*
X170134500Y-96758500D01*
X170148638Y-96758500D01*
X170209201Y-96751989D01*
X170346204Y-96700889D01*
X170463261Y-96613261D01*
X170550889Y-96496204D01*
X170601989Y-96359201D01*
X170608500Y-96298638D01*
X170608500Y-94701362D01*
X170601989Y-94640799D01*
X170550889Y-94503796D01*
X170550888Y-94503794D01*
X170463261Y-94386738D01*
X170346205Y-94299111D01*
X170264222Y-94268533D01*
X170209201Y-94248011D01*
X170148638Y-94241500D01*
X168551362Y-94241500D01*
X168541968Y-94242509D01*
X168473446Y-94230568D01*
X168421699Y-94184087D01*
X168402500Y-94117232D01*
X168402500Y-93683069D01*
X168404800Y-93662231D01*
X168404707Y-93659283D01*
X168404708Y-93659281D01*
X168402561Y-93591001D01*
X168402500Y-93587044D01*
X168402500Y-93559021D01*
X168402500Y-93559017D01*
X168401988Y-93554966D01*
X168401057Y-93543136D01*
X168400888Y-93537756D01*
X168399664Y-93498795D01*
X168393988Y-93479259D01*
X168389977Y-93459892D01*
X168387427Y-93439703D01*
X168387427Y-93439701D01*
X168371084Y-93398425D01*
X168367247Y-93387216D01*
X168354869Y-93344607D01*
X168344509Y-93327090D01*
X168335809Y-93309331D01*
X168335632Y-93308883D01*
X168328319Y-93290412D01*
X168302239Y-93254516D01*
X168295723Y-93244596D01*
X168273135Y-93206402D01*
X168269049Y-93202316D01*
X168258740Y-93192007D01*
X168245904Y-93176977D01*
X168233943Y-93160514D01*
X168199748Y-93132225D01*
X168190969Y-93124236D01*
X165862816Y-90796083D01*
X165849705Y-90779717D01*
X165798991Y-90732094D01*
X165797732Y-90730912D01*
X165794922Y-90728189D01*
X165775094Y-90708361D01*
X165774556Y-90707944D01*
X165771873Y-90705862D01*
X165762849Y-90698155D01*
X165757047Y-90692707D01*
X165730506Y-90667783D01*
X165730503Y-90667781D01*
X165712672Y-90657978D01*
X165696154Y-90647128D01*
X165680067Y-90634650D01*
X165639336Y-90617024D01*
X165628678Y-90611802D01*
X165589802Y-90590430D01*
X165570086Y-90585368D01*
X165551380Y-90578963D01*
X165532709Y-90570883D01*
X165488873Y-90563940D01*
X165477250Y-90561532D01*
X165434284Y-90550500D01*
X165434282Y-90550500D01*
X165413934Y-90550500D01*
X165394224Y-90548949D01*
X165374121Y-90545765D01*
X165374120Y-90545765D01*
X165329944Y-90549941D01*
X165318086Y-90550500D01*
X163383423Y-90550500D01*
X163335205Y-90540909D01*
X163294328Y-90513595D01*
X163254328Y-90473595D01*
X163223590Y-90423436D01*
X163218974Y-90364789D01*
X163241487Y-90310439D01*
X163286220Y-90272233D01*
X163343423Y-90258500D01*
X164648638Y-90258500D01*
X164709201Y-90251989D01*
X164846204Y-90200889D01*
X164963261Y-90113261D01*
X165050889Y-89996204D01*
X165101989Y-89859201D01*
X165108500Y-89798638D01*
X165366500Y-89798638D01*
X165373011Y-89859201D01*
X165391048Y-89907559D01*
X165424111Y-89996205D01*
X165511738Y-90113261D01*
X165628794Y-90200888D01*
X165628795Y-90200888D01*
X165628796Y-90200889D01*
X165765799Y-90251989D01*
X165826362Y-90258500D01*
X167423638Y-90258500D01*
X167484201Y-90251989D01*
X167621204Y-90200889D01*
X167738261Y-90113261D01*
X167825889Y-89996204D01*
X167876989Y-89859201D01*
X167883500Y-89798638D01*
X168141500Y-89798638D01*
X168148011Y-89859201D01*
X168166048Y-89907559D01*
X168199111Y-89996205D01*
X168286738Y-90113261D01*
X168403794Y-90200888D01*
X168403795Y-90200888D01*
X168403796Y-90200889D01*
X168540799Y-90251989D01*
X168601362Y-90258500D01*
X170198638Y-90258500D01*
X170259201Y-90251989D01*
X170396204Y-90200889D01*
X170513261Y-90113261D01*
X170600889Y-89996204D01*
X170651989Y-89859201D01*
X170658500Y-89798638D01*
X170916500Y-89798638D01*
X170923011Y-89859201D01*
X170941048Y-89907559D01*
X170974111Y-89996205D01*
X171061738Y-90113261D01*
X171178794Y-90200888D01*
X171178795Y-90200888D01*
X171178796Y-90200889D01*
X171315799Y-90251989D01*
X171376362Y-90258500D01*
X172973638Y-90258500D01*
X173034201Y-90251989D01*
X173171204Y-90200889D01*
X173288261Y-90113261D01*
X173375889Y-89996204D01*
X173426989Y-89859201D01*
X173433500Y-89798638D01*
X173691500Y-89798638D01*
X173698011Y-89859201D01*
X173716048Y-89907559D01*
X173749111Y-89996205D01*
X173836738Y-90113261D01*
X173953794Y-90200888D01*
X173953795Y-90200888D01*
X173953796Y-90200889D01*
X174090799Y-90251989D01*
X174151362Y-90258500D01*
X175748638Y-90258500D01*
X175809201Y-90251989D01*
X175946204Y-90200889D01*
X176063261Y-90113261D01*
X176150889Y-89996204D01*
X176201989Y-89859201D01*
X176208500Y-89798638D01*
X176208500Y-88201362D01*
X176201989Y-88140799D01*
X176150889Y-88003796D01*
X176150888Y-88003794D01*
X176063261Y-87886738D01*
X175946205Y-87799111D01*
X175872356Y-87771567D01*
X175809201Y-87748011D01*
X175748638Y-87741500D01*
X175737858Y-87741500D01*
X175681834Y-87728360D01*
X175637495Y-87691679D01*
X175614090Y-87639110D01*
X175616500Y-87581615D01*
X175634190Y-87549435D01*
X175632419Y-87548413D01*
X175734527Y-87371556D01*
X175761049Y-87289929D01*
X175793542Y-87189928D01*
X175813504Y-87000000D01*
X175793542Y-86810072D01*
X175734527Y-86628444D01*
X175734527Y-86628443D01*
X175639041Y-86463057D01*
X175565975Y-86381909D01*
X175511253Y-86321134D01*
X175356752Y-86208882D01*
X175182288Y-86131206D01*
X174995487Y-86091500D01*
X174804513Y-86091500D01*
X174679978Y-86117970D01*
X174617711Y-86131206D01*
X174443246Y-86208883D01*
X174288747Y-86321133D01*
X174160958Y-86463057D01*
X174065472Y-86628443D01*
X174006458Y-86810070D01*
X173986496Y-86999999D01*
X174006458Y-87189929D01*
X174065472Y-87371556D01*
X174160958Y-87536942D01*
X174163056Y-87539272D01*
X174167487Y-87548250D01*
X174167581Y-87548413D01*
X174167570Y-87548419D01*
X174193296Y-87600544D01*
X174187107Y-87668592D01*
X174146309Y-87723403D01*
X174104736Y-87740093D01*
X174105627Y-87742481D01*
X174090800Y-87748010D01*
X174090799Y-87748011D01*
X174037037Y-87768063D01*
X173953794Y-87799111D01*
X173836738Y-87886738D01*
X173749111Y-88003794D01*
X173709915Y-88108883D01*
X173698011Y-88140799D01*
X173691500Y-88201362D01*
X173691500Y-89798638D01*
X173433500Y-89798638D01*
X173433500Y-88201362D01*
X173426989Y-88140799D01*
X173375889Y-88003796D01*
X173375888Y-88003794D01*
X173288261Y-87886738D01*
X173171205Y-87799111D01*
X173097356Y-87771567D01*
X173034201Y-87748011D01*
X172973638Y-87741500D01*
X172937858Y-87741500D01*
X172881834Y-87728360D01*
X172837495Y-87691679D01*
X172814090Y-87639110D01*
X172816500Y-87581615D01*
X172834190Y-87549435D01*
X172832419Y-87548413D01*
X172934527Y-87371556D01*
X172961049Y-87289929D01*
X172993542Y-87189928D01*
X173013504Y-87000000D01*
X172993542Y-86810072D01*
X172934527Y-86628444D01*
X172934527Y-86628443D01*
X172839041Y-86463057D01*
X172765975Y-86381909D01*
X172711253Y-86321134D01*
X172556752Y-86208882D01*
X172382288Y-86131206D01*
X172195487Y-86091500D01*
X172004513Y-86091500D01*
X171879978Y-86117970D01*
X171817711Y-86131206D01*
X171643246Y-86208883D01*
X171488747Y-86321133D01*
X171360958Y-86463057D01*
X171265472Y-86628443D01*
X171206458Y-86810070D01*
X171186496Y-86999999D01*
X171206458Y-87189929D01*
X171265472Y-87371556D01*
X171360958Y-87536942D01*
X171367940Y-87544696D01*
X171396501Y-87598282D01*
X171396682Y-87659004D01*
X171368442Y-87712759D01*
X171318338Y-87747064D01*
X171178793Y-87799111D01*
X171061738Y-87886738D01*
X170974111Y-88003794D01*
X170934915Y-88108883D01*
X170923011Y-88140799D01*
X170916500Y-88201362D01*
X170916500Y-89798638D01*
X170658500Y-89798638D01*
X170658500Y-88201362D01*
X170651989Y-88140799D01*
X170600889Y-88003796D01*
X170600888Y-88003794D01*
X170513261Y-87886738D01*
X170396205Y-87799111D01*
X170322356Y-87771567D01*
X170259201Y-87748011D01*
X170198638Y-87741500D01*
X170184500Y-87741500D01*
X170121500Y-87724619D01*
X170075381Y-87678500D01*
X170058500Y-87615500D01*
X170058500Y-87574759D01*
X170066869Y-87529604D01*
X170090862Y-87490451D01*
X170139040Y-87436944D01*
X170234527Y-87271556D01*
X170293542Y-87089928D01*
X170313504Y-86900000D01*
X170293542Y-86710072D01*
X170234527Y-86528444D01*
X170234527Y-86528443D01*
X170139041Y-86363057D01*
X170011252Y-86221133D01*
X169856753Y-86108883D01*
X169856752Y-86108882D01*
X169682288Y-86031206D01*
X169495487Y-85991500D01*
X169304513Y-85991500D01*
X169179978Y-86017970D01*
X169117711Y-86031206D01*
X168943246Y-86108883D01*
X168788747Y-86221133D01*
X168660958Y-86363057D01*
X168565472Y-86528443D01*
X168506458Y-86710070D01*
X168504583Y-86727908D01*
X168486496Y-86900000D01*
X168489486Y-86928444D01*
X168506458Y-87089929D01*
X168565472Y-87271556D01*
X168660958Y-87436942D01*
X168660960Y-87436944D01*
X168709137Y-87490451D01*
X168733131Y-87529604D01*
X168741500Y-87574759D01*
X168741500Y-87615500D01*
X168724619Y-87678500D01*
X168678500Y-87724619D01*
X168615500Y-87741500D01*
X168601362Y-87741500D01*
X168540799Y-87748011D01*
X168403794Y-87799111D01*
X168286738Y-87886738D01*
X168199111Y-88003794D01*
X168159915Y-88108883D01*
X168148011Y-88140799D01*
X168141500Y-88201362D01*
X168141500Y-89798638D01*
X167883500Y-89798638D01*
X167883500Y-88201362D01*
X167876989Y-88140799D01*
X167825889Y-88003796D01*
X167825888Y-88003794D01*
X167738261Y-87886738D01*
X167621205Y-87799111D01*
X167547356Y-87771567D01*
X167484201Y-87748011D01*
X167423638Y-87741500D01*
X167284500Y-87741500D01*
X167221500Y-87724619D01*
X167175381Y-87678500D01*
X167158500Y-87615500D01*
X167158500Y-87574759D01*
X167166869Y-87529604D01*
X167190862Y-87490451D01*
X167239040Y-87436944D01*
X167334527Y-87271556D01*
X167393542Y-87089928D01*
X167413504Y-86900000D01*
X167393542Y-86710072D01*
X167334527Y-86528444D01*
X167334527Y-86528443D01*
X167239041Y-86363057D01*
X167111252Y-86221133D01*
X166956753Y-86108883D01*
X166956752Y-86108882D01*
X166782288Y-86031206D01*
X166595487Y-85991500D01*
X166404513Y-85991500D01*
X166279978Y-86017970D01*
X166217711Y-86031206D01*
X166043246Y-86108883D01*
X165888747Y-86221133D01*
X165760958Y-86363057D01*
X165665472Y-86528443D01*
X165606458Y-86710070D01*
X165604583Y-86727908D01*
X165586496Y-86900000D01*
X165589486Y-86928444D01*
X165606458Y-87089929D01*
X165665472Y-87271556D01*
X165760958Y-87436942D01*
X165760960Y-87436944D01*
X165809137Y-87490451D01*
X165833131Y-87529604D01*
X165841500Y-87574759D01*
X165841500Y-87632293D01*
X165831327Y-87681893D01*
X165802450Y-87723484D01*
X165759533Y-87750347D01*
X165706696Y-87770055D01*
X165628794Y-87799111D01*
X165511738Y-87886738D01*
X165424111Y-88003794D01*
X165384915Y-88108883D01*
X165373011Y-88140799D01*
X165366500Y-88201362D01*
X165366500Y-89798638D01*
X165108500Y-89798638D01*
X165108500Y-88201362D01*
X165101989Y-88140799D01*
X165050889Y-88003796D01*
X165050888Y-88003794D01*
X164963261Y-87886738D01*
X164846205Y-87799111D01*
X164772356Y-87771567D01*
X164738273Y-87758854D01*
X164692682Y-87729363D01*
X164663735Y-87683423D01*
X164656808Y-87629568D01*
X164673185Y-87577801D01*
X164734527Y-87471556D01*
X164793542Y-87289928D01*
X164813504Y-87100000D01*
X164793542Y-86910072D01*
X164734527Y-86728444D01*
X164734527Y-86728443D01*
X164639041Y-86563057D01*
X164511252Y-86421133D01*
X164380439Y-86326091D01*
X164342233Y-86281358D01*
X164328500Y-86224155D01*
X164328500Y-84328362D01*
X164321989Y-84267799D01*
X164270889Y-84130796D01*
X164270888Y-84130794D01*
X164183261Y-84013738D01*
X164066205Y-83926111D01*
X164003051Y-83902556D01*
X163947303Y-83861442D01*
X163921712Y-83797074D01*
X163934011Y-83728906D01*
X163980483Y-83677540D01*
X164047083Y-83658500D01*
X164844050Y-83658500D01*
X164892268Y-83668091D01*
X164933145Y-83695405D01*
X165935030Y-84697290D01*
X165959661Y-84732140D01*
X165971244Y-84773213D01*
X165976612Y-84824282D01*
X165984458Y-84898929D01*
X166043472Y-85080556D01*
X166138958Y-85245942D01*
X166138960Y-85245944D01*
X166266747Y-85387866D01*
X166421248Y-85500118D01*
X166595712Y-85577794D01*
X166782513Y-85617500D01*
X166973485Y-85617500D01*
X166973487Y-85617500D01*
X167160288Y-85577794D01*
X167334752Y-85500118D01*
X167489253Y-85387866D01*
X167617040Y-85245944D01*
X167712527Y-85080556D01*
X167771542Y-84898928D01*
X167791504Y-84709000D01*
X167771542Y-84519072D01*
X167712527Y-84337444D01*
X167712527Y-84337443D01*
X167617041Y-84172057D01*
X167507703Y-84050625D01*
X167489253Y-84030134D01*
X167466687Y-84013739D01*
X167334753Y-83917883D01*
X167334752Y-83917882D01*
X167160288Y-83840206D01*
X166973487Y-83800500D01*
X166973485Y-83800500D01*
X166952950Y-83800500D01*
X166904732Y-83790909D01*
X166863855Y-83763595D01*
X165695874Y-82595614D01*
X165682356Y-82578742D01*
X165628742Y-82528395D01*
X165625930Y-82525670D01*
X165605333Y-82505073D01*
X165601828Y-82502354D01*
X165592803Y-82494646D01*
X165559131Y-82463026D01*
X165540338Y-82452694D01*
X165523817Y-82441842D01*
X165506870Y-82428697D01*
X165506868Y-82428696D01*
X165464459Y-82410343D01*
X165453818Y-82405130D01*
X165413337Y-82382876D01*
X165413334Y-82382875D01*
X165392568Y-82377543D01*
X165373864Y-82371139D01*
X165354178Y-82362620D01*
X165308552Y-82355394D01*
X165296928Y-82352987D01*
X165280180Y-82348687D01*
X165252188Y-82341500D01*
X165252187Y-82341500D01*
X165230741Y-82341500D01*
X165211032Y-82339949D01*
X165189848Y-82336594D01*
X165189847Y-82336594D01*
X165169770Y-82338491D01*
X165143859Y-82340941D01*
X165132004Y-82341500D01*
X164349594Y-82341500D01*
X164292391Y-82327767D01*
X164247658Y-82289561D01*
X164225145Y-82235211D01*
X164229761Y-82176564D01*
X164260499Y-82126405D01*
X164796499Y-81590405D01*
X164837376Y-81563091D01*
X164885594Y-81553500D01*
X164941485Y-81553500D01*
X164941487Y-81553500D01*
X165128288Y-81513794D01*
X165302752Y-81436118D01*
X165457253Y-81323866D01*
X165585040Y-81181944D01*
X165680527Y-81016556D01*
X165739542Y-80834928D01*
X165759504Y-80645000D01*
X165739542Y-80455072D01*
X165680527Y-80273444D01*
X165680527Y-80273443D01*
X165585041Y-80108057D01*
X165457252Y-79966133D01*
X165302753Y-79853883D01*
X165302752Y-79853882D01*
X165128288Y-79776206D01*
X164941487Y-79736500D01*
X164750513Y-79736500D01*
X164626796Y-79762797D01*
X164563711Y-79776206D01*
X164547522Y-79783414D01*
X164505246Y-79802236D01*
X164444114Y-79812741D01*
X164385376Y-79792802D01*
X164343269Y-79747251D01*
X164328000Y-79687129D01*
X164328000Y-78928411D01*
X164321494Y-78867906D01*
X164270445Y-78731037D01*
X164182904Y-78614095D01*
X164065962Y-78526554D01*
X163929093Y-78475505D01*
X163868589Y-78469000D01*
X163274000Y-78469000D01*
X163274000Y-80105000D01*
X163257119Y-80168000D01*
X163211000Y-80214119D01*
X163148000Y-80231000D01*
X161712000Y-80231000D01*
X161712000Y-81025589D01*
X161718505Y-81086093D01*
X161769554Y-81222962D01*
X161857095Y-81339904D01*
X161974037Y-81427445D01*
X162110906Y-81478494D01*
X162171411Y-81485000D01*
X162805905Y-81485000D01*
X162863108Y-81498733D01*
X162907841Y-81536939D01*
X162930354Y-81591289D01*
X162925738Y-81649936D01*
X162895000Y-81700095D01*
X162740020Y-81855075D01*
X162699143Y-81882389D01*
X162650925Y-81891980D01*
X157240074Y-81891980D01*
X157191856Y-81882389D01*
X157150979Y-81855075D01*
X156183149Y-80887245D01*
X155207244Y-79911339D01*
X155194172Y-79895022D01*
X155150361Y-79853882D01*
X155142362Y-79846371D01*
X155139519Y-79843615D01*
X155119770Y-79823865D01*
X155119349Y-79823539D01*
X155116569Y-79821381D01*
X155107555Y-79813682D01*
X155075320Y-79783413D01*
X155057567Y-79773653D01*
X155041041Y-79762797D01*
X155025041Y-79750386D01*
X154984466Y-79732828D01*
X154973804Y-79727604D01*
X154965430Y-79723000D01*
X161712000Y-79723000D01*
X162766000Y-79723000D01*
X162766000Y-78469000D01*
X162171411Y-78469000D01*
X162110906Y-78475505D01*
X161974037Y-78526554D01*
X161857095Y-78614095D01*
X161769554Y-78731037D01*
X161718505Y-78867906D01*
X161712000Y-78928411D01*
X161712000Y-79723000D01*
X154965430Y-79723000D01*
X154935063Y-79706305D01*
X154921313Y-79702775D01*
X154915437Y-79701266D01*
X154896731Y-79694862D01*
X154878145Y-79686819D01*
X154834475Y-79679902D01*
X154822853Y-79677495D01*
X154780030Y-79666500D01*
X154780029Y-79666500D01*
X154759776Y-79666500D01*
X154740066Y-79664949D01*
X154720057Y-79661779D01*
X154676039Y-79665941D01*
X154664181Y-79666500D01*
X149008200Y-79666500D01*
X148956952Y-79655607D01*
X148914565Y-79624812D01*
X148911253Y-79621133D01*
X148756753Y-79508883D01*
X148756752Y-79508882D01*
X148582288Y-79431206D01*
X148395487Y-79391500D01*
X148204513Y-79391500D01*
X148017712Y-79431206D01*
X148017710Y-79431206D01*
X148017709Y-79431207D01*
X147962905Y-79455607D01*
X147911657Y-79466500D01*
X146304417Y-79466500D01*
X146247213Y-79452766D01*
X146202479Y-79414558D01*
X146179968Y-79360206D01*
X146182789Y-79324374D01*
X146180157Y-79324098D01*
X146181540Y-79310931D01*
X146181542Y-79310928D01*
X146201504Y-79121000D01*
X146181542Y-78931072D01*
X146122527Y-78749444D01*
X146122527Y-78749443D01*
X146027041Y-78584057D01*
X145899252Y-78442133D01*
X145744753Y-78329883D01*
X145744752Y-78329882D01*
X145570288Y-78252206D01*
X145383487Y-78212500D01*
X145383485Y-78212500D01*
X145362950Y-78212500D01*
X145314732Y-78202909D01*
X145273855Y-78175595D01*
X145179874Y-78081614D01*
X145166356Y-78064742D01*
X145112742Y-78014395D01*
X145109930Y-78011670D01*
X145089333Y-77991073D01*
X145085828Y-77988354D01*
X145076803Y-77980646D01*
X145074907Y-77978866D01*
X145043133Y-77949028D01*
X145043131Y-77949026D01*
X145024338Y-77938694D01*
X145007817Y-77927842D01*
X144990870Y-77914697D01*
X144990868Y-77914696D01*
X144948459Y-77896343D01*
X144937818Y-77891130D01*
X144897337Y-77868876D01*
X144897334Y-77868875D01*
X144876568Y-77863543D01*
X144857864Y-77857139D01*
X144838178Y-77848620D01*
X144792552Y-77841394D01*
X144780928Y-77838987D01*
X144764180Y-77834687D01*
X144736188Y-77827500D01*
X144736187Y-77827500D01*
X144714741Y-77827500D01*
X144695032Y-77825949D01*
X144673848Y-77822594D01*
X144673847Y-77822594D01*
X144653770Y-77824491D01*
X144627859Y-77826941D01*
X144616004Y-77827500D01*
X137457766Y-77827500D01*
X137397381Y-77812088D01*
X137351768Y-77769621D01*
X137332087Y-77710489D01*
X137343152Y-77649158D01*
X137382257Y-77600632D01*
X137476261Y-77530261D01*
X137536499Y-77449792D01*
X137563889Y-77413204D01*
X137614989Y-77276201D01*
X137621500Y-77215638D01*
X137621500Y-76338995D01*
X137635838Y-76280620D01*
X137675590Y-76235530D01*
X137731708Y-76213989D01*
X137791420Y-76220897D01*
X137841136Y-76254684D01*
X137945747Y-76370866D01*
X138100248Y-76483118D01*
X138274712Y-76560794D01*
X138461513Y-76600500D01*
X138652485Y-76600500D01*
X138652487Y-76600500D01*
X138839288Y-76560794D01*
X139013752Y-76483118D01*
X139168253Y-76370866D01*
X139296040Y-76228944D01*
X139391527Y-76063556D01*
X139450542Y-75881928D01*
X139470504Y-75692000D01*
X139455334Y-75547668D01*
X139467396Y-75479265D01*
X139513874Y-75427646D01*
X139580644Y-75408500D01*
X144678500Y-75408500D01*
X144741500Y-75425381D01*
X144787619Y-75471500D01*
X144804500Y-75534500D01*
X144804500Y-75990000D01*
X144787619Y-76053000D01*
X144741500Y-76099119D01*
X144678500Y-76116000D01*
X143855323Y-76116000D01*
X143792322Y-76099119D01*
X143746203Y-76052998D01*
X143741041Y-76044056D01*
X143613252Y-75902133D01*
X143458753Y-75789883D01*
X143458752Y-75789882D01*
X143284288Y-75712206D01*
X143097487Y-75672500D01*
X142906513Y-75672500D01*
X142781978Y-75698970D01*
X142719711Y-75712206D01*
X142545246Y-75789883D01*
X142390747Y-75902133D01*
X142262958Y-76044057D01*
X142167472Y-76209443D01*
X142108458Y-76391070D01*
X142088496Y-76581000D01*
X142108458Y-76770929D01*
X142167472Y-76952556D01*
X142262958Y-77117942D01*
X142262960Y-77117944D01*
X142390747Y-77259866D01*
X142545248Y-77372118D01*
X142719712Y-77449794D01*
X142906513Y-77489500D01*
X143097485Y-77489500D01*
X143097487Y-77489500D01*
X143284288Y-77449794D01*
X143409844Y-77393893D01*
X143461093Y-77383000D01*
X144776430Y-77383000D01*
X144832830Y-77396328D01*
X144877297Y-77433490D01*
X144889502Y-77449794D01*
X144949739Y-77530262D01*
X145066794Y-77617888D01*
X145066795Y-77617888D01*
X145066796Y-77617889D01*
X145203799Y-77668989D01*
X145264362Y-77675500D01*
X146961638Y-77675500D01*
X147022201Y-77668989D01*
X147159204Y-77617889D01*
X147276261Y-77530261D01*
X147363889Y-77413204D01*
X147414989Y-77276201D01*
X147421500Y-77215638D01*
X147421500Y-75534500D01*
X147438381Y-75471500D01*
X147484500Y-75425381D01*
X147547500Y-75408500D01*
X151392500Y-75408500D01*
X151455500Y-75425381D01*
X151501619Y-75471500D01*
X151518500Y-75534500D01*
X151518500Y-76849550D01*
X151533091Y-76997701D01*
X151590758Y-77187802D01*
X151684406Y-77363007D01*
X151810431Y-77516568D01*
X151963992Y-77642593D01*
X151998564Y-77661072D01*
X152139196Y-77736241D01*
X152234247Y-77765074D01*
X152329298Y-77793908D01*
X152527000Y-77813380D01*
X152724701Y-77793908D01*
X152914804Y-77736241D01*
X153090004Y-77642595D01*
X153090005Y-77642593D01*
X153090007Y-77642593D01*
X153243568Y-77516568D01*
X153369593Y-77363007D01*
X153403271Y-77300000D01*
X153463241Y-77187804D01*
X153520908Y-76997701D01*
X153520908Y-76997700D01*
X153535500Y-76849550D01*
X153535500Y-75534500D01*
X153552381Y-75471500D01*
X153598500Y-75425381D01*
X153661500Y-75408500D01*
X165230076Y-75408500D01*
X165278294Y-75418091D01*
X165319171Y-75445405D01*
X167654595Y-77780830D01*
X167681909Y-77821707D01*
X167691500Y-77869925D01*
X167691500Y-80199550D01*
X167706091Y-80347701D01*
X167763758Y-80537802D01*
X167857406Y-80713007D01*
X167983431Y-80866568D01*
X168136992Y-80992593D01*
X168172951Y-81011813D01*
X168312196Y-81086241D01*
X168407247Y-81115074D01*
X168502298Y-81143908D01*
X168523009Y-81145947D01*
X168650453Y-81158500D01*
X169749546Y-81158499D01*
X169749550Y-81158499D01*
X169897701Y-81143908D01*
X169941901Y-81130500D01*
X170087804Y-81086241D01*
X170263004Y-80992595D01*
X170263005Y-80992593D01*
X170263007Y-80992593D01*
X170416568Y-80866568D01*
X170542593Y-80713007D01*
X170542595Y-80713004D01*
X170636241Y-80537804D01*
X170693908Y-80347701D01*
X170708500Y-80199547D01*
X170708499Y-75600454D01*
X170693908Y-75452299D01*
X170678719Y-75402229D01*
X170647873Y-75300541D01*
X170636241Y-75262196D01*
X170542595Y-75086996D01*
X170542593Y-75086992D01*
X170416568Y-74933431D01*
X170263007Y-74807406D01*
X170087802Y-74713758D01*
X169897701Y-74656091D01*
X169749550Y-74641500D01*
X168650449Y-74641500D01*
X168502298Y-74656091D01*
X168312197Y-74713758D01*
X168136992Y-74807406D01*
X167983433Y-74933429D01*
X167925685Y-75003796D01*
X167868787Y-75043175D01*
X167799674Y-75046571D01*
X167739191Y-75012957D01*
X166452532Y-73726298D01*
X166444227Y-73717135D01*
X166416569Y-73683433D01*
X166263003Y-73557404D01*
X166225993Y-73537622D01*
X166177956Y-73492335D01*
X166159413Y-73428974D01*
X166175454Y-73364934D01*
X166221676Y-73317795D01*
X166285389Y-73300500D01*
X179873500Y-73300500D01*
X179936500Y-73317381D01*
X179982619Y-73363500D01*
X179999500Y-73426500D01*
X179999500Y-111173500D01*
X179982619Y-111236500D01*
X179936500Y-111282619D01*
X179873500Y-111299500D01*
X165376500Y-111299500D01*
X165313500Y-111282619D01*
X165267381Y-111236500D01*
X165250500Y-111173500D01*
X165250500Y-109325158D01*
X165250528Y-109325014D01*
X165250524Y-109325014D01*
X165250539Y-109300002D01*
X165250541Y-109300000D01*
X165250383Y-109299617D01*
X165250381Y-109299616D01*
X165250380Y-109299615D01*
X165250305Y-109299584D01*
X165250096Y-109299498D01*
X165250002Y-109299459D01*
X165225048Y-109299459D01*
X165224842Y-109299500D01*
X163475158Y-109299500D01*
X163474952Y-109299459D01*
X163449998Y-109299459D01*
X163449901Y-109299499D01*
X163449696Y-109299584D01*
X163449618Y-109299615D01*
X163449617Y-109299617D01*
X163449459Y-109300000D01*
X163449476Y-109325014D01*
X163449471Y-109325014D01*
X163449500Y-109325158D01*
X163449500Y-111173500D01*
X163432619Y-111236500D01*
X163386500Y-111282619D01*
X163323500Y-111299500D01*
X135876500Y-111299500D01*
X135813500Y-111282619D01*
X135767381Y-111236500D01*
X135750500Y-111173500D01*
X135750500Y-109325158D01*
X135750528Y-109325014D01*
X135750524Y-109325014D01*
X135750539Y-109300002D01*
X135750541Y-109300000D01*
X135750383Y-109299617D01*
X135750381Y-109299616D01*
X135750380Y-109299615D01*
X135750305Y-109299584D01*
X135750096Y-109299498D01*
X135750002Y-109299459D01*
X135725048Y-109299459D01*
X135724842Y-109299500D01*
X133975158Y-109299500D01*
X133974952Y-109299459D01*
X133949998Y-109299459D01*
X133949901Y-109299499D01*
X133949696Y-109299584D01*
X133949618Y-109299615D01*
X133949617Y-109299617D01*
X133949459Y-109300000D01*
X133949476Y-109325014D01*
X133949471Y-109325014D01*
X133949500Y-109325158D01*
X133949500Y-111173500D01*
X133932619Y-111236500D01*
X133886500Y-111282619D01*
X133823500Y-111299500D01*
X99126500Y-111299500D01*
X99063500Y-111282619D01*
X99017381Y-111236500D01*
X99000500Y-111173500D01*
X99000500Y-104460467D01*
X103649500Y-104460467D01*
X103689722Y-104778861D01*
X103769532Y-105089700D01*
X103769534Y-105089706D01*
X103803324Y-105175050D01*
X103887675Y-105388096D01*
X104042285Y-105669331D01*
X104230919Y-105928963D01*
X104282415Y-105983801D01*
X104450610Y-106162911D01*
X104697890Y-106367478D01*
X104968858Y-106539439D01*
X105259242Y-106676084D01*
X105564462Y-106775256D01*
X105879706Y-106835392D01*
X105904343Y-106836942D01*
X106119836Y-106850500D01*
X106119843Y-106850500D01*
X106280157Y-106850500D01*
X106280164Y-106850500D01*
X106466930Y-106838749D01*
X106520294Y-106835392D01*
X106835538Y-106775256D01*
X107140758Y-106676084D01*
X107431142Y-106539439D01*
X107702110Y-106367478D01*
X107949390Y-106162911D01*
X108169080Y-105928964D01*
X108357716Y-105669328D01*
X108512324Y-105388097D01*
X108630466Y-105089706D01*
X108710277Y-104778861D01*
X108715517Y-104737382D01*
X108750500Y-104460467D01*
X108750500Y-104139533D01*
X108710277Y-103821138D01*
X108635780Y-103530992D01*
X108630466Y-103510294D01*
X108512324Y-103211903D01*
X108413219Y-103031632D01*
X108357714Y-102930668D01*
X108169080Y-102671036D01*
X107949389Y-102437088D01*
X107726977Y-102253094D01*
X107702110Y-102232522D01*
X107431142Y-102060561D01*
X107346559Y-102020759D01*
X107140759Y-101923916D01*
X106835537Y-101824743D01*
X106520292Y-101764607D01*
X106280164Y-101749500D01*
X106280157Y-101749500D01*
X106119843Y-101749500D01*
X106119836Y-101749500D01*
X105879707Y-101764607D01*
X105564462Y-101824743D01*
X105259240Y-101923916D01*
X104968857Y-102060561D01*
X104697892Y-102232520D01*
X104450610Y-102437088D01*
X104230919Y-102671036D01*
X104042285Y-102930668D01*
X103887675Y-103211903D01*
X103769532Y-103510299D01*
X103689722Y-103821138D01*
X103649500Y-104139533D01*
X103649500Y-104460467D01*
X99000500Y-104460467D01*
X99000500Y-91191000D01*
X99840673Y-91191000D01*
X99859949Y-91423626D01*
X99859949Y-91423629D01*
X99859950Y-91423630D01*
X99917250Y-91649905D01*
X100011016Y-91863669D01*
X100101117Y-92001580D01*
X100138686Y-92059083D01*
X100223842Y-92151587D01*
X100253079Y-92205190D01*
X100253682Y-92266246D01*
X100225508Y-92320416D01*
X100175174Y-92354980D01*
X100107793Y-92380111D01*
X99990738Y-92467738D01*
X99903111Y-92584794D01*
X99879724Y-92647497D01*
X99852011Y-92721799D01*
X99845500Y-92782362D01*
X99845500Y-94679638D01*
X99852011Y-94740201D01*
X99870883Y-94790799D01*
X99903111Y-94877205D01*
X99990738Y-94994261D01*
X100107794Y-95081888D01*
X100107795Y-95081888D01*
X100107796Y-95081889D01*
X100244799Y-95132989D01*
X100305362Y-95139500D01*
X102202638Y-95139500D01*
X102263201Y-95132989D01*
X102400204Y-95081889D01*
X102517261Y-94994261D01*
X102604889Y-94877204D01*
X102655989Y-94740201D01*
X102662500Y-94679638D01*
X102662500Y-92782362D01*
X102655989Y-92721799D01*
X102604889Y-92584796D01*
X102555263Y-92518503D01*
X102517261Y-92467738D01*
X102400205Y-92380111D01*
X102332826Y-92354980D01*
X102282491Y-92320416D01*
X102254317Y-92266246D01*
X102254920Y-92205190D01*
X102284154Y-92151590D01*
X102369314Y-92059083D01*
X102496984Y-91863669D01*
X102590749Y-91649907D01*
X102648051Y-91423626D01*
X102667327Y-91191000D01*
X102648051Y-90958374D01*
X102590749Y-90732093D01*
X102496984Y-90518331D01*
X102369314Y-90322917D01*
X102211220Y-90151182D01*
X102027017Y-90007810D01*
X101902358Y-89940348D01*
X101821726Y-89896712D01*
X101627927Y-89830181D01*
X101600951Y-89820920D01*
X101370712Y-89782500D01*
X101137288Y-89782500D01*
X100907049Y-89820920D01*
X100907046Y-89820920D01*
X100907046Y-89820921D01*
X100686273Y-89896712D01*
X100480984Y-90007809D01*
X100296779Y-90151182D01*
X100138684Y-90322919D01*
X100011016Y-90518330D01*
X99917250Y-90732094D01*
X99871768Y-90911701D01*
X99859949Y-90958374D01*
X99840673Y-91191000D01*
X99000500Y-91191000D01*
X99000500Y-73426500D01*
X99017381Y-73363500D01*
X99063500Y-73317381D01*
X99126500Y-73300500D01*
X118123500Y-73300500D01*
X118186500Y-73317381D01*
G37*
%TD.AperFunction*%
%TA.AperFunction,Conductor*%
G36*
X134941500Y-75425381D02*
G01*
X134987619Y-75471500D01*
X135004500Y-75534500D01*
X135004500Y-76441593D01*
X134985933Y-76507428D01*
X134935703Y-76553860D01*
X134868614Y-76567205D01*
X134804439Y-76543529D01*
X134756753Y-76508883D01*
X134756752Y-76508882D01*
X134582288Y-76431206D01*
X134395487Y-76391500D01*
X134204513Y-76391500D01*
X134079979Y-76417970D01*
X134017711Y-76431206D01*
X133843246Y-76508883D01*
X133688747Y-76621133D01*
X133560958Y-76763057D01*
X133465472Y-76928443D01*
X133406458Y-77110070D01*
X133386496Y-77300000D01*
X133406458Y-77489929D01*
X133465472Y-77671556D01*
X133560958Y-77836942D01*
X133582689Y-77861077D01*
X133688747Y-77978866D01*
X133843248Y-78091118D01*
X134017712Y-78168794D01*
X134080772Y-78182197D01*
X134114695Y-78194713D01*
X134143668Y-78216349D01*
X134909373Y-78982054D01*
X134940610Y-79033785D01*
X134944168Y-79094110D01*
X134919228Y-79149154D01*
X134871528Y-79186255D01*
X134798248Y-79218881D01*
X134643747Y-79331133D01*
X134515958Y-79473057D01*
X134420472Y-79638443D01*
X134361458Y-79820070D01*
X134341496Y-80010000D01*
X134361458Y-80199929D01*
X134420472Y-80381556D01*
X134515958Y-80546942D01*
X134515960Y-80546944D01*
X134643747Y-80688866D01*
X134798248Y-80801118D01*
X134929751Y-80859667D01*
X134969137Y-80887245D01*
X134995325Y-80927571D01*
X135004500Y-80974772D01*
X135004500Y-82615638D01*
X135011011Y-82676200D01*
X135062111Y-82813205D01*
X135149738Y-82930261D01*
X135266794Y-83017888D01*
X135266795Y-83017888D01*
X135266796Y-83017889D01*
X135403799Y-83068989D01*
X135464362Y-83075500D01*
X137161638Y-83075500D01*
X137222201Y-83068989D01*
X137359204Y-83017889D01*
X137476261Y-82930261D01*
X137563889Y-82813204D01*
X137614989Y-82676201D01*
X137621500Y-82615638D01*
X137621500Y-81385594D01*
X137631091Y-81337376D01*
X137658405Y-81296499D01*
X138184499Y-80770405D01*
X138225376Y-80743091D01*
X138273594Y-80733500D01*
X144678500Y-80733500D01*
X144741500Y-80750381D01*
X144787619Y-80796500D01*
X144804500Y-80859500D01*
X144804500Y-81130500D01*
X144787619Y-81193500D01*
X144741500Y-81239619D01*
X144678500Y-81256500D01*
X141269223Y-81256500D01*
X141230287Y-81250333D01*
X141195165Y-81232437D01*
X141045752Y-81123882D01*
X140871288Y-81046206D01*
X140684487Y-81006500D01*
X140493513Y-81006500D01*
X140403707Y-81025589D01*
X140306711Y-81046206D01*
X140132246Y-81123883D01*
X139977747Y-81236133D01*
X139849958Y-81378057D01*
X139754472Y-81543443D01*
X139695458Y-81725070D01*
X139675496Y-81914999D01*
X139695458Y-82104929D01*
X139754472Y-82286556D01*
X139849958Y-82451942D01*
X139916315Y-82525639D01*
X139977747Y-82593866D01*
X140132248Y-82706118D01*
X140306712Y-82783794D01*
X140493513Y-82823500D01*
X140684485Y-82823500D01*
X140684487Y-82823500D01*
X140871288Y-82783794D01*
X141045752Y-82706118D01*
X141195165Y-82597562D01*
X141230287Y-82579667D01*
X141269223Y-82573500D01*
X144686790Y-82573500D01*
X144745854Y-82588201D01*
X144791136Y-82628874D01*
X144803331Y-82662174D01*
X144805481Y-82661373D01*
X144811010Y-82676199D01*
X144811011Y-82676201D01*
X144822169Y-82706116D01*
X144862111Y-82813205D01*
X144949738Y-82930261D01*
X145066794Y-83017888D01*
X145066795Y-83017888D01*
X145066796Y-83017889D01*
X145203799Y-83068989D01*
X145264362Y-83075500D01*
X146961638Y-83075500D01*
X147022201Y-83068989D01*
X147159204Y-83017889D01*
X147234696Y-82961375D01*
X147300220Y-82936639D01*
X147368829Y-82950711D01*
X147419325Y-82999243D01*
X147469960Y-83086945D01*
X147563429Y-83190753D01*
X147593040Y-83248866D01*
X147589626Y-83313999D01*
X147569457Y-83376070D01*
X147549496Y-83565999D01*
X147569458Y-83755929D01*
X147628472Y-83937556D01*
X147723958Y-84102942D01*
X147789237Y-84175442D01*
X147851747Y-84244866D01*
X148006248Y-84357118D01*
X148180712Y-84434794D01*
X148367513Y-84474500D01*
X148558485Y-84474500D01*
X148558487Y-84474500D01*
X148745288Y-84434794D01*
X148919752Y-84357118D01*
X149074253Y-84244866D01*
X149202040Y-84102944D01*
X149204192Y-84099215D01*
X149254792Y-84050625D01*
X149323535Y-84036625D01*
X149389110Y-84061558D01*
X149431188Y-84117693D01*
X149434603Y-84160843D01*
X149438813Y-84160721D01*
X149441447Y-84251259D01*
X149441500Y-84254923D01*
X149441500Y-87563000D01*
X149424619Y-87626000D01*
X149365472Y-87728444D01*
X149306458Y-87910070D01*
X149286496Y-88100000D01*
X149306458Y-88289929D01*
X149365472Y-88471556D01*
X149460958Y-88636942D01*
X149588747Y-88778866D01*
X149615918Y-88798607D01*
X149655440Y-88846000D01*
X149667717Y-88906477D01*
X149649805Y-88965530D01*
X149605999Y-89008995D01*
X149572400Y-89028866D01*
X149558003Y-89043262D01*
X149542978Y-89056094D01*
X149526513Y-89068057D01*
X149498225Y-89102250D01*
X149490239Y-89111026D01*
X148946672Y-89654595D01*
X148905794Y-89681909D01*
X148857576Y-89691500D01*
X148804513Y-89691500D01*
X148689678Y-89715909D01*
X148617711Y-89731206D01*
X148443246Y-89808883D01*
X148288747Y-89921133D01*
X148160958Y-90063057D01*
X148065472Y-90228443D01*
X148006458Y-90410070D01*
X147986496Y-90600000D01*
X148006458Y-90789929D01*
X148065472Y-90971556D01*
X148160958Y-91136942D01*
X148160960Y-91136944D01*
X148288747Y-91278866D01*
X148443248Y-91391118D01*
X148617712Y-91468794D01*
X148804513Y-91508500D01*
X148995485Y-91508500D01*
X148995487Y-91508500D01*
X149182288Y-91468794D01*
X149356752Y-91391118D01*
X149511253Y-91278866D01*
X149639040Y-91136944D01*
X149734527Y-90971556D01*
X149793542Y-90789928D01*
X149810575Y-90627860D01*
X149822158Y-90586793D01*
X149846786Y-90551944D01*
X150191327Y-90207404D01*
X150232205Y-90180091D01*
X150280423Y-90170500D01*
X151256015Y-90170500D01*
X151315984Y-90185686D01*
X151361498Y-90227584D01*
X151381585Y-90286094D01*
X151371403Y-90347112D01*
X151364703Y-90362385D01*
X151309437Y-90580627D01*
X151309436Y-90580632D01*
X151290844Y-90805000D01*
X151309436Y-91029368D01*
X151309436Y-91029371D01*
X151309437Y-91029372D01*
X151364702Y-91247611D01*
X151455139Y-91453790D01*
X151509746Y-91537372D01*
X151578278Y-91642268D01*
X151657608Y-91728443D01*
X151730762Y-91807908D01*
X151908418Y-91946185D01*
X151908420Y-91946186D01*
X151908424Y-91946189D01*
X151941682Y-91964187D01*
X151989952Y-92010503D01*
X152007711Y-92075000D01*
X151989952Y-92139497D01*
X151941682Y-92185812D01*
X151916794Y-92199281D01*
X151908418Y-92203814D01*
X151730762Y-92342091D01*
X151578278Y-92507731D01*
X151455139Y-92696209D01*
X151364702Y-92902388D01*
X151312482Y-93108603D01*
X151309436Y-93120632D01*
X151295650Y-93287000D01*
X151290877Y-93344607D01*
X151290844Y-93345000D01*
X151309436Y-93569368D01*
X151309436Y-93569371D01*
X151309437Y-93569372D01*
X151364702Y-93787611D01*
X151455139Y-93993790D01*
X151524529Y-94099999D01*
X151578278Y-94182268D01*
X151669117Y-94280945D01*
X151730762Y-94347908D01*
X151908418Y-94486185D01*
X151908420Y-94486186D01*
X151908424Y-94486189D01*
X151941682Y-94504187D01*
X151989952Y-94550503D01*
X152007711Y-94615000D01*
X151989952Y-94679497D01*
X151941682Y-94725812D01*
X151916794Y-94739281D01*
X151908418Y-94743814D01*
X151730762Y-94882091D01*
X151578278Y-95047731D01*
X151455139Y-95236209D01*
X151364702Y-95442388D01*
X151309437Y-95660627D01*
X151309436Y-95660632D01*
X151290844Y-95885000D01*
X151309436Y-96109368D01*
X151309436Y-96109371D01*
X151309437Y-96109372D01*
X151364702Y-96327611D01*
X151455139Y-96533790D01*
X151530832Y-96649646D01*
X151578278Y-96722268D01*
X151709305Y-96864600D01*
X151721841Y-96878217D01*
X151751078Y-96931821D01*
X151751681Y-96992877D01*
X151723507Y-97047047D01*
X151673173Y-97081611D01*
X151558036Y-97124554D01*
X151441095Y-97212095D01*
X151353554Y-97329037D01*
X151302505Y-97465906D01*
X151296000Y-97526411D01*
X151296000Y-98171000D01*
X154012000Y-98171000D01*
X154012000Y-97526411D01*
X154005494Y-97465906D01*
X153954445Y-97329037D01*
X153866904Y-97212095D01*
X153749962Y-97124554D01*
X153634827Y-97081611D01*
X153584492Y-97047047D01*
X153556318Y-96992877D01*
X153556921Y-96931821D01*
X153586155Y-96878220D01*
X153729722Y-96722268D01*
X153852860Y-96533791D01*
X153943296Y-96327616D01*
X153998564Y-96109368D01*
X154017156Y-95885000D01*
X153998564Y-95660632D01*
X153943296Y-95442384D01*
X153852860Y-95236209D01*
X153729722Y-95047732D01*
X153577240Y-94882094D01*
X153577239Y-94882093D01*
X153577237Y-94882091D01*
X153399579Y-94743813D01*
X153399577Y-94743812D01*
X153399576Y-94743811D01*
X153366317Y-94725812D01*
X153318047Y-94679498D01*
X153300288Y-94615000D01*
X153318047Y-94550502D01*
X153366317Y-94504187D01*
X153399576Y-94486189D01*
X153577240Y-94347906D01*
X153729722Y-94182268D01*
X153852860Y-93993791D01*
X153943296Y-93787616D01*
X153998564Y-93569368D01*
X154017156Y-93345000D01*
X153998564Y-93120632D01*
X153943296Y-92902384D01*
X153852860Y-92696209D01*
X153729722Y-92507732D01*
X153577240Y-92342094D01*
X153577239Y-92342093D01*
X153577237Y-92342091D01*
X153399579Y-92203813D01*
X153399577Y-92203812D01*
X153399576Y-92203811D01*
X153366317Y-92185812D01*
X153318047Y-92139498D01*
X153300288Y-92075000D01*
X153318047Y-92010502D01*
X153366317Y-91964187D01*
X153399576Y-91946189D01*
X153577240Y-91807906D01*
X153729722Y-91642268D01*
X153852860Y-91453791D01*
X153943296Y-91247616D01*
X153998564Y-91029368D01*
X154017156Y-90805000D01*
X153998564Y-90580632D01*
X153943296Y-90362384D01*
X153936596Y-90347111D01*
X153926415Y-90286094D01*
X153946502Y-90227584D01*
X153992016Y-90185686D01*
X154051985Y-90170500D01*
X157154601Y-90170500D01*
X157205849Y-90181393D01*
X157248237Y-90212189D01*
X157249747Y-90213866D01*
X157404248Y-90326118D01*
X157578712Y-90403794D01*
X157765513Y-90443500D01*
X157956487Y-90443500D01*
X157956488Y-90443500D01*
X157989302Y-90436525D01*
X158044914Y-90437252D01*
X158094794Y-90461850D01*
X158129226Y-90505526D01*
X158141500Y-90559771D01*
X158141500Y-91425241D01*
X158133131Y-91470396D01*
X158109137Y-91509548D01*
X158087106Y-91534017D01*
X158060958Y-91563057D01*
X157965472Y-91728443D01*
X157906458Y-91910070D01*
X157886496Y-92100000D01*
X157906458Y-92289929D01*
X157965472Y-92471556D01*
X158060958Y-92636942D01*
X158060960Y-92636944D01*
X158188747Y-92778866D01*
X158343248Y-92891118D01*
X158517712Y-92968794D01*
X158605160Y-92987381D01*
X158665171Y-93018736D01*
X158700288Y-93076629D01*
X158700367Y-93144340D01*
X158665386Y-93202316D01*
X158628074Y-93221921D01*
X158629810Y-93225820D01*
X158617713Y-93231205D01*
X158617712Y-93231206D01*
X158531192Y-93269727D01*
X158443246Y-93308883D01*
X158288747Y-93421133D01*
X158160958Y-93563057D01*
X158065472Y-93728443D01*
X158006458Y-93910070D01*
X157986496Y-94099999D01*
X158006458Y-94289929D01*
X158065472Y-94471556D01*
X158165265Y-94644402D01*
X158181667Y-94696420D01*
X158174547Y-94750497D01*
X158145241Y-94796497D01*
X154226465Y-98715274D01*
X154169981Y-98747886D01*
X154104759Y-98747886D01*
X154048275Y-98715274D01*
X154012001Y-98679000D01*
X151296000Y-98679000D01*
X151296000Y-99037500D01*
X151279119Y-99100500D01*
X151233000Y-99146619D01*
X151170000Y-99163500D01*
X128594950Y-99163500D01*
X128546732Y-99153909D01*
X128505855Y-99126595D01*
X126129874Y-96750614D01*
X126116356Y-96733742D01*
X126104137Y-96722268D01*
X126062741Y-96683394D01*
X126059930Y-96680670D01*
X126039333Y-96660073D01*
X126035828Y-96657354D01*
X126026803Y-96649646D01*
X125993131Y-96618026D01*
X125974338Y-96607694D01*
X125957817Y-96596842D01*
X125940870Y-96583697D01*
X125940868Y-96583696D01*
X125898459Y-96565343D01*
X125887818Y-96560130D01*
X125847337Y-96537876D01*
X125847334Y-96537875D01*
X125826568Y-96532543D01*
X125807864Y-96526139D01*
X125788178Y-96517620D01*
X125742552Y-96510394D01*
X125730928Y-96507987D01*
X125714180Y-96503687D01*
X125686188Y-96496500D01*
X125686187Y-96496500D01*
X125664741Y-96496500D01*
X125645032Y-96494949D01*
X125623848Y-96491594D01*
X125623847Y-96491594D01*
X125603770Y-96493491D01*
X125577859Y-96495941D01*
X125566004Y-96496500D01*
X124989833Y-96496500D01*
X124930680Y-96481751D01*
X124885374Y-96440958D01*
X124864523Y-96383671D01*
X124845542Y-96203072D01*
X124810625Y-96095610D01*
X124799055Y-96060000D01*
X129949455Y-96060000D01*
X129997177Y-96248451D01*
X130087580Y-96454548D01*
X130210678Y-96642962D01*
X130363096Y-96808533D01*
X130540697Y-96946766D01*
X130738631Y-97053883D01*
X130951485Y-97126955D01*
X131032000Y-97140391D01*
X131032000Y-96060000D01*
X131540000Y-96060000D01*
X131540000Y-97140391D01*
X131620514Y-97126955D01*
X131833368Y-97053883D01*
X132031302Y-96946766D01*
X132208903Y-96808533D01*
X132361321Y-96642962D01*
X132484419Y-96454548D01*
X132574822Y-96248451D01*
X132622544Y-96060000D01*
X131540000Y-96060000D01*
X131032000Y-96060000D01*
X129949455Y-96060000D01*
X124799055Y-96060000D01*
X124786527Y-96021443D01*
X124691041Y-95856057D01*
X124563252Y-95714133D01*
X124408749Y-95601880D01*
X124317226Y-95561131D01*
X124279380Y-95535120D01*
X124114827Y-95370567D01*
X124082795Y-95316174D01*
X124081164Y-95253072D01*
X124110344Y-95197097D01*
X124163007Y-95162300D01*
X124340574Y-95101342D01*
X124538576Y-94994189D01*
X124716240Y-94855906D01*
X124868722Y-94690268D01*
X124991860Y-94501791D01*
X125082296Y-94295616D01*
X125137564Y-94077368D01*
X125156156Y-93853000D01*
X125138750Y-93642951D01*
X125146018Y-93589183D01*
X125175223Y-93543456D01*
X125198679Y-93520000D01*
X129949455Y-93520000D01*
X129997177Y-93708451D01*
X130087580Y-93914548D01*
X130210678Y-94102962D01*
X130363096Y-94268533D01*
X130540697Y-94406766D01*
X130574732Y-94425184D01*
X130623004Y-94471500D01*
X130640764Y-94535997D01*
X130623006Y-94600494D01*
X130574736Y-94646811D01*
X130540702Y-94665229D01*
X130363096Y-94803466D01*
X130210678Y-94969037D01*
X130087580Y-95157451D01*
X129997177Y-95363548D01*
X129949455Y-95551999D01*
X129949456Y-95552000D01*
X131032000Y-95552000D01*
X131032000Y-93520000D01*
X131540000Y-93520000D01*
X131540000Y-95552000D01*
X132622544Y-95552000D01*
X132622544Y-95551999D01*
X132574822Y-95363548D01*
X132484419Y-95157451D01*
X132361321Y-94969037D01*
X132208903Y-94803466D01*
X132031299Y-94665231D01*
X131997264Y-94646812D01*
X131948993Y-94600495D01*
X131947769Y-94596050D01*
X139090699Y-94596050D01*
X139109654Y-94800608D01*
X139165874Y-94998202D01*
X139207545Y-95081888D01*
X139257446Y-95182101D01*
X139381248Y-95346042D01*
X139533067Y-95484443D01*
X139614913Y-95535120D01*
X139707005Y-95592142D01*
X139707731Y-95592591D01*
X139899294Y-95666802D01*
X140101231Y-95704551D01*
X140306665Y-95704551D01*
X140306667Y-95704551D01*
X140508604Y-95666802D01*
X140700167Y-95592591D01*
X140787906Y-95538265D01*
X143213045Y-95538265D01*
X143300058Y-95592142D01*
X143491530Y-95666318D01*
X143693382Y-95704051D01*
X143898720Y-95704051D01*
X144100571Y-95666318D01*
X144292043Y-95592142D01*
X144379055Y-95538266D01*
X143796051Y-94955261D01*
X143796050Y-94955261D01*
X143213045Y-95538265D01*
X140787906Y-95538265D01*
X140874831Y-95484443D01*
X141026650Y-95346042D01*
X141150452Y-95182101D01*
X141242023Y-94998203D01*
X141298243Y-94800610D01*
X141317198Y-94596051D01*
X141317198Y-94596050D01*
X142683303Y-94596050D01*
X142702250Y-94800516D01*
X142758443Y-94998018D01*
X142849975Y-95181839D01*
X142850437Y-95182451D01*
X142850438Y-95182451D01*
X143436840Y-94596051D01*
X144155261Y-94596051D01*
X144741662Y-95182451D01*
X144742129Y-95181832D01*
X144833656Y-94998023D01*
X144889851Y-94800516D01*
X144908798Y-94596050D01*
X144889851Y-94391585D01*
X144833657Y-94194082D01*
X144742127Y-94010264D01*
X144741663Y-94009649D01*
X144741661Y-94009649D01*
X144155261Y-94596050D01*
X144155261Y-94596051D01*
X143436840Y-94596051D01*
X143436840Y-94596050D01*
X142850438Y-94009648D01*
X142849974Y-94010263D01*
X142758443Y-94194082D01*
X142702250Y-94391585D01*
X142683303Y-94596050D01*
X141317198Y-94596050D01*
X141298243Y-94391492D01*
X141242023Y-94193899D01*
X141150452Y-94010001D01*
X141026650Y-93846060D01*
X140874831Y-93707659D01*
X140801463Y-93662231D01*
X140787903Y-93653835D01*
X143213045Y-93653835D01*
X143796050Y-94236840D01*
X143796051Y-94236840D01*
X144379055Y-93653834D01*
X144292046Y-93599961D01*
X144100571Y-93525783D01*
X143898720Y-93488051D01*
X143693382Y-93488051D01*
X143491530Y-93525783D01*
X143300060Y-93599959D01*
X143213045Y-93653835D01*
X140787903Y-93653835D01*
X140700168Y-93599511D01*
X140508604Y-93525300D01*
X140480252Y-93520000D01*
X140306667Y-93487551D01*
X140101231Y-93487551D01*
X139988673Y-93508592D01*
X139899293Y-93525300D01*
X139707729Y-93599511D01*
X139533068Y-93707658D01*
X139381247Y-93846061D01*
X139257446Y-94010000D01*
X139165874Y-94193899D01*
X139109654Y-94391493D01*
X139090699Y-94596050D01*
X131947769Y-94596050D01*
X131931235Y-94535997D01*
X131948996Y-94471499D01*
X131997268Y-94425184D01*
X132031300Y-94406767D01*
X132208903Y-94268533D01*
X132361321Y-94102962D01*
X132484419Y-93914548D01*
X132574822Y-93708451D01*
X132622544Y-93520000D01*
X131540000Y-93520000D01*
X131032000Y-93520000D01*
X129949455Y-93520000D01*
X125198679Y-93520000D01*
X126422329Y-92296350D01*
X126473533Y-92265279D01*
X126533302Y-92261361D01*
X126588126Y-92285484D01*
X126625617Y-92332197D01*
X126679411Y-92447558D01*
X126800701Y-92620779D01*
X126950220Y-92770298D01*
X127123440Y-92891588D01*
X127123441Y-92891588D01*
X127123442Y-92891589D01*
X127315090Y-92980956D01*
X127519345Y-93035686D01*
X127730000Y-93054116D01*
X127940655Y-93035686D01*
X128144910Y-92980956D01*
X128336558Y-92891589D01*
X128509776Y-92770301D01*
X128659301Y-92620776D01*
X128780589Y-92447558D01*
X128869956Y-92255910D01*
X128924686Y-92051655D01*
X128943116Y-91841000D01*
X128924686Y-91630345D01*
X128869956Y-91426090D01*
X128780589Y-91234442D01*
X128757582Y-91201585D01*
X128678489Y-91088627D01*
X128659301Y-91061224D01*
X128659300Y-91061223D01*
X128659298Y-91061220D01*
X128578078Y-90980000D01*
X129949455Y-90980000D01*
X129997177Y-91168451D01*
X130087580Y-91374548D01*
X130210678Y-91562962D01*
X130363096Y-91728533D01*
X130540697Y-91866766D01*
X130574732Y-91885184D01*
X130623004Y-91931500D01*
X130640764Y-91995997D01*
X130623006Y-92060494D01*
X130574736Y-92106811D01*
X130540702Y-92125229D01*
X130363096Y-92263466D01*
X130210678Y-92429037D01*
X130087580Y-92617451D01*
X129997177Y-92823548D01*
X129949455Y-93011999D01*
X129949456Y-93012000D01*
X131032000Y-93012000D01*
X131032000Y-90980000D01*
X131540000Y-90980000D01*
X131540000Y-93012000D01*
X132622544Y-93012000D01*
X132622544Y-93011999D01*
X132574822Y-92823548D01*
X132484419Y-92617451D01*
X132361321Y-92429037D01*
X132208903Y-92263466D01*
X132031299Y-92125231D01*
X131997264Y-92106812D01*
X131948993Y-92060495D01*
X131931235Y-91995997D01*
X131948996Y-91931499D01*
X131997268Y-91885184D01*
X132031300Y-91866767D01*
X132208903Y-91728533D01*
X132361321Y-91562962D01*
X132484419Y-91374548D01*
X132574822Y-91168451D01*
X132622544Y-90980000D01*
X131540000Y-90980000D01*
X131032000Y-90980000D01*
X129949455Y-90980000D01*
X128578078Y-90980000D01*
X128509779Y-90911701D01*
X128336559Y-90790411D01*
X128320855Y-90783088D01*
X138951822Y-90783088D01*
X138956860Y-90994728D01*
X139001860Y-91201585D01*
X139085195Y-91396194D01*
X139203851Y-91571506D01*
X139598880Y-91966536D01*
X139721221Y-92067549D01*
X139907024Y-92169005D01*
X140108668Y-92233464D01*
X140149232Y-92238313D01*
X140318870Y-92258596D01*
X140530029Y-92243495D01*
X140734513Y-92188703D01*
X140924933Y-92096202D01*
X141094406Y-91969337D01*
X141236807Y-91812691D01*
X141346988Y-91631926D01*
X141420969Y-91433576D01*
X141456075Y-91224809D01*
X141451037Y-91013171D01*
X141450104Y-91008883D01*
X141406037Y-90806312D01*
X141405475Y-90805000D01*
X141329631Y-90627884D01*
X141322702Y-90611703D01*
X141204046Y-90436391D01*
X140809017Y-90041361D01*
X140686676Y-89940348D01*
X140500873Y-89838892D01*
X140299229Y-89774433D01*
X140109309Y-89751726D01*
X140089028Y-89749302D01*
X140089027Y-89749302D01*
X139877870Y-89764402D01*
X139673383Y-89819195D01*
X139482965Y-89911696D01*
X139313491Y-90038561D01*
X139171091Y-90195207D01*
X139069192Y-90362385D01*
X139060910Y-90375972D01*
X138988947Y-90568914D01*
X138986928Y-90574326D01*
X138951822Y-90783088D01*
X128320855Y-90783088D01*
X128144910Y-90701043D01*
X128113796Y-90692707D01*
X128057312Y-90660096D01*
X128024700Y-90603611D01*
X128024700Y-90538389D01*
X128057312Y-90481904D01*
X128113796Y-90449293D01*
X128144910Y-90440956D01*
X128238734Y-90397205D01*
X128336558Y-90351589D01*
X128509776Y-90230301D01*
X128659301Y-90080776D01*
X128780589Y-89907558D01*
X128869956Y-89715910D01*
X128908300Y-89572804D01*
X128940910Y-89516322D01*
X129173708Y-89283524D01*
X129182838Y-89275247D01*
X129216568Y-89247568D01*
X129342595Y-89094004D01*
X129436241Y-88918804D01*
X129493908Y-88728701D01*
X129508500Y-88580547D01*
X129513380Y-88531000D01*
X129509106Y-88487615D01*
X129508500Y-88475265D01*
X129508500Y-88440000D01*
X129928000Y-88440000D01*
X129928000Y-89084589D01*
X129934505Y-89145093D01*
X129985554Y-89281962D01*
X130073095Y-89398904D01*
X130190037Y-89486445D01*
X130305678Y-89529577D01*
X130356012Y-89564141D01*
X130384187Y-89618311D01*
X130383585Y-89679366D01*
X130354348Y-89732970D01*
X130210675Y-89889040D01*
X130087580Y-90077451D01*
X129997177Y-90283548D01*
X129949455Y-90471999D01*
X129949456Y-90472000D01*
X131032000Y-90472000D01*
X131032000Y-88440000D01*
X131540000Y-88440000D01*
X131540000Y-90472000D01*
X132622544Y-90472000D01*
X132622544Y-90471999D01*
X132574822Y-90283548D01*
X132484419Y-90077451D01*
X132361321Y-89889037D01*
X132217652Y-89732970D01*
X132188415Y-89679366D01*
X132187812Y-89618311D01*
X132215987Y-89564140D01*
X132266321Y-89529577D01*
X132381962Y-89486445D01*
X132498904Y-89398904D01*
X132586445Y-89281962D01*
X132637494Y-89145093D01*
X132644000Y-89084589D01*
X132644000Y-88440000D01*
X131540000Y-88440000D01*
X131032000Y-88440000D01*
X129928000Y-88440000D01*
X129508500Y-88440000D01*
X129508500Y-87932000D01*
X129928000Y-87932000D01*
X131032000Y-87932000D01*
X131032000Y-86828000D01*
X131540000Y-86828000D01*
X131540000Y-87932000D01*
X132644000Y-87932000D01*
X132644000Y-87287411D01*
X132637494Y-87226906D01*
X132586445Y-87090037D01*
X132498904Y-86973095D01*
X132381962Y-86885554D01*
X132245093Y-86834505D01*
X132184589Y-86828000D01*
X131540000Y-86828000D01*
X131032000Y-86828000D01*
X130387411Y-86828000D01*
X130326906Y-86834505D01*
X130190037Y-86885554D01*
X130073095Y-86973095D01*
X129985554Y-87090037D01*
X129934505Y-87226906D01*
X129928000Y-87287411D01*
X129928000Y-87932000D01*
X129508500Y-87932000D01*
X129508500Y-77670902D01*
X129518091Y-77622684D01*
X129545405Y-77581807D01*
X131681807Y-75445405D01*
X131722684Y-75418091D01*
X131770902Y-75408500D01*
X134878500Y-75408500D01*
X134941500Y-75425381D01*
G37*
%TD.AperFunction*%
%TD*%
%TA.AperFunction,Conductor*%
%TO.N,Net-(BT1-Pad2)*%
G36*
X117337000Y-74616881D02*
G01*
X117383119Y-74663000D01*
X117400000Y-74726000D01*
X117400000Y-109774000D01*
X117383119Y-109837000D01*
X117337000Y-109883119D01*
X117274000Y-109900000D01*
X110626000Y-109900000D01*
X110563000Y-109883119D01*
X110516881Y-109837000D01*
X110500000Y-109774000D01*
X110500000Y-93108603D01*
X110500690Y-93095433D01*
X110500701Y-93095326D01*
X110514504Y-92964000D01*
X110500690Y-92832567D01*
X110500000Y-92819397D01*
X110500000Y-74726000D01*
X110516881Y-74663000D01*
X110563000Y-74616881D01*
X110626000Y-74600000D01*
X117274000Y-74600000D01*
X117337000Y-74616881D01*
G37*
%TD.AperFunction*%
%TD*%
M02*
